%TF.GenerationSoftware,KiCad,Pcbnew,4.0.7*%
%TF.CreationDate,2018-07-15T20:14:49+02:00*%
%TF.ProjectId,KeyPad,4B65795061642E6B696361645F706362,v1.0*%
%TF.FileFunction,Legend,Bot*%
%FSLAX46Y46*%
G04 Gerber Fmt 4.6, Leading zero omitted, Abs format (unit mm)*
G04 Created by KiCad (PCBNEW 4.0.7) date 07/15/18 20:14:49*
%MOMM*%
%LPD*%
G01*
G04 APERTURE LIST*
%ADD10C,0.127000*%
%ADD11C,0.010000*%
G04 APERTURE END LIST*
D10*
D11*
G36*
X18863263Y-297656D02*
X18851034Y-334757D01*
X18844704Y-357187D01*
X18832073Y-381356D01*
X18819813Y-396875D01*
X18802089Y-419885D01*
X18798248Y-428625D01*
X18791779Y-451558D01*
X18773813Y-497840D01*
X18746455Y-562127D01*
X18738816Y-579437D01*
X18721204Y-619848D01*
X18710207Y-646502D01*
X18708688Y-650875D01*
X18701613Y-669001D01*
X18686093Y-705221D01*
X18678560Y-722312D01*
X18644885Y-798715D01*
X18623072Y-849511D01*
X18613816Y-873081D01*
X18613804Y-873125D01*
X18606502Y-891258D01*
X18590847Y-927491D01*
X18583310Y-944562D01*
X18548554Y-1023441D01*
X18527027Y-1073756D01*
X18518719Y-1095375D01*
X18511429Y-1113253D01*
X18495224Y-1149963D01*
X18484010Y-1174750D01*
X18454001Y-1243051D01*
X18437929Y-1286171D01*
X18434765Y-1306931D01*
X18435279Y-1308187D01*
X18428497Y-1322894D01*
X18408571Y-1347708D01*
X18390990Y-1371309D01*
X18391188Y-1381125D01*
X18392203Y-1390723D01*
X18378905Y-1408906D01*
X18358574Y-1435195D01*
X18352197Y-1448427D01*
X18341967Y-1484343D01*
X18317222Y-1545282D01*
X18298366Y-1587500D01*
X18279310Y-1630934D01*
X18267174Y-1661747D01*
X18264987Y-1669520D01*
X18257419Y-1689734D01*
X18242654Y-1685338D01*
X18224855Y-1661373D01*
X18208187Y-1622876D01*
X18199471Y-1590229D01*
X18189415Y-1557422D01*
X18183438Y-1542604D01*
X18172065Y-1516039D01*
X18168979Y-1508125D01*
X18160964Y-1487122D01*
X18146230Y-1449938D01*
X18130055Y-1409787D01*
X18118244Y-1381125D01*
X18107822Y-1355679D01*
X18105438Y-1349375D01*
X18097393Y-1329717D01*
X18090938Y-1314895D01*
X18078860Y-1280252D01*
X18075988Y-1267270D01*
X18065001Y-1235558D01*
X18057826Y-1222375D01*
X18042272Y-1185754D01*
X18038113Y-1168058D01*
X18027404Y-1133411D01*
X18019878Y-1120433D01*
X18006806Y-1095197D01*
X17990831Y-1053387D01*
X17986375Y-1039812D01*
X17970933Y-996153D01*
X17956994Y-965232D01*
X17953907Y-960437D01*
X17941924Y-940109D01*
X17941125Y-936625D01*
X17939681Y-928182D01*
X17934476Y-911394D01*
X17923438Y-880337D01*
X17904494Y-829088D01*
X17888330Y-785812D01*
X17869634Y-735451D01*
X17856022Y-698046D01*
X17850735Y-682625D01*
X17843853Y-663340D01*
X17829563Y-626544D01*
X17812531Y-584092D01*
X17800744Y-555625D01*
X17790807Y-530211D01*
X17788813Y-523875D01*
X17782539Y-506370D01*
X17767532Y-466921D01*
X17746691Y-413126D01*
X17740341Y-396875D01*
X17718995Y-339934D01*
X17703729Y-294540D01*
X17697138Y-268565D01*
X17697181Y-265906D01*
X17683765Y-261227D01*
X17644712Y-257413D01*
X17586132Y-254869D01*
X17518063Y-254000D01*
X17444319Y-255211D01*
X17385449Y-258527D01*
X17347297Y-263474D01*
X17335500Y-268841D01*
X17340716Y-294101D01*
X17349474Y-320435D01*
X17360878Y-353354D01*
X17365027Y-369260D01*
X17372812Y-390498D01*
X17389583Y-425747D01*
X17391063Y-428625D01*
X17408271Y-464372D01*
X17416959Y-487175D01*
X17417099Y-487989D01*
X17423262Y-510748D01*
X17433123Y-539750D01*
X17448835Y-583455D01*
X17456681Y-607347D01*
X17459876Y-621362D01*
X17460158Y-623260D01*
X17468025Y-644491D01*
X17484848Y-679774D01*
X17486399Y-682791D01*
X17499985Y-714411D01*
X17501227Y-729927D01*
X17500135Y-730250D01*
X17501228Y-740073D01*
X17518063Y-762000D01*
X17535453Y-784909D01*
X17535991Y-793750D01*
X17535071Y-805893D01*
X17546941Y-835680D01*
X17549727Y-841208D01*
X17565919Y-874347D01*
X17572860Y-892228D01*
X17572831Y-892802D01*
X17576840Y-909002D01*
X17588511Y-943433D01*
X17603849Y-984791D01*
X17616382Y-1016000D01*
X17626180Y-1041404D01*
X17628060Y-1047750D01*
X17636670Y-1067133D01*
X17639224Y-1071562D01*
X17649039Y-1094546D01*
X17664361Y-1137223D01*
X17676813Y-1174750D01*
X17693709Y-1225091D01*
X17707931Y-1263516D01*
X17714402Y-1277937D01*
X17724779Y-1299117D01*
X17725525Y-1301750D01*
X17731933Y-1320588D01*
X17745295Y-1355333D01*
X17746083Y-1357312D01*
X17764143Y-1403569D01*
X17772713Y-1429131D01*
X17774500Y-1442618D01*
X17774011Y-1446153D01*
X17780945Y-1465061D01*
X17789806Y-1477903D01*
X17804285Y-1504806D01*
X17822795Y-1550508D01*
X17835563Y-1587500D01*
X17852812Y-1637880D01*
X17867943Y-1676314D01*
X17875282Y-1690687D01*
X17887185Y-1715028D01*
X17902504Y-1756238D01*
X17907016Y-1770062D01*
X17921750Y-1813659D01*
X17933955Y-1844579D01*
X17936420Y-1849437D01*
X17948021Y-1877884D01*
X17948753Y-1881187D01*
X17956489Y-1904962D01*
X17972064Y-1944431D01*
X17977162Y-1956517D01*
X17993044Y-1995710D01*
X18001604Y-2020928D01*
X18002110Y-2024153D01*
X18008350Y-2042450D01*
X18024223Y-2076041D01*
X18026063Y-2079625D01*
X18043271Y-2115372D01*
X18051959Y-2138175D01*
X18052099Y-2138989D01*
X18058873Y-2163407D01*
X18073065Y-2204285D01*
X18090142Y-2248671D01*
X18092432Y-2254250D01*
X18103753Y-2285074D01*
X18106378Y-2293937D01*
X18114961Y-2317349D01*
X18131604Y-2357088D01*
X18138735Y-2373312D01*
X18156293Y-2413704D01*
X18167088Y-2440360D01*
X18168501Y-2444750D01*
X18177504Y-2461314D01*
X18199004Y-2495274D01*
X18217090Y-2522531D01*
X18247126Y-2567285D01*
X18271589Y-2604103D01*
X18280063Y-2617072D01*
X18308049Y-2654404D01*
X18345256Y-2696333D01*
X18384506Y-2735694D01*
X18418621Y-2765322D01*
X18440425Y-2778051D01*
X18441396Y-2778125D01*
X18460826Y-2786201D01*
X18462625Y-2791624D01*
X18475684Y-2804410D01*
X18509285Y-2825883D01*
X18555064Y-2851595D01*
X18604660Y-2877095D01*
X18649708Y-2897934D01*
X18681848Y-2909663D01*
X18686155Y-2910550D01*
X18717901Y-2919910D01*
X18724563Y-2923231D01*
X18747478Y-2928282D01*
X18792530Y-2932713D01*
X18850109Y-2935587D01*
X18851975Y-2935640D01*
X18963513Y-2938774D01*
X18962915Y-2788149D01*
X18961891Y-2722304D01*
X18959631Y-2669347D01*
X18956525Y-2636649D01*
X18954565Y-2629939D01*
X18935734Y-2623937D01*
X18895415Y-2616493D01*
X18859500Y-2611437D01*
X18807254Y-2602520D01*
X18766792Y-2591339D01*
X18752344Y-2584191D01*
X18735410Y-2575936D01*
X18732500Y-2579687D01*
X18722640Y-2580826D01*
X18706995Y-2570344D01*
X18671147Y-2545472D01*
X18648141Y-2532551D01*
X18619130Y-2509741D01*
X18584604Y-2471456D01*
X18570464Y-2452556D01*
X18537714Y-2402328D01*
X18502985Y-2343577D01*
X18469692Y-2282871D01*
X18441245Y-2226775D01*
X18421059Y-2181858D01*
X18412546Y-2154686D01*
X18413298Y-2150118D01*
X18423691Y-2130036D01*
X18423702Y-2129895D01*
X18430377Y-2111109D01*
X18447094Y-2072263D01*
X18469168Y-2024062D01*
X18492532Y-1972541D01*
X18509727Y-1931365D01*
X18516725Y-1910570D01*
X18528730Y-1883027D01*
X18537378Y-1870882D01*
X18553792Y-1846210D01*
X18556960Y-1837697D01*
X18568028Y-1800045D01*
X18593894Y-1736863D01*
X18611010Y-1698625D01*
X18630057Y-1655811D01*
X18642313Y-1626261D01*
X18644632Y-1619250D01*
X18653020Y-1600669D01*
X18660860Y-1587500D01*
X18675460Y-1558322D01*
X18678492Y-1547812D01*
X18686092Y-1524976D01*
X18702664Y-1484785D01*
X18713453Y-1460500D01*
X18761146Y-1355162D01*
X18801843Y-1264177D01*
X18833999Y-1191063D01*
X18856067Y-1139338D01*
X18866503Y-1112519D01*
X18866872Y-1111250D01*
X18874199Y-1093868D01*
X18891339Y-1056096D01*
X18913668Y-1008062D01*
X18936946Y-956995D01*
X18954036Y-916743D01*
X18960976Y-896937D01*
X18971191Y-870571D01*
X18978766Y-857250D01*
X18992443Y-832820D01*
X18995159Y-825500D01*
X19001789Y-807387D01*
X19017041Y-771194D01*
X19024566Y-754062D01*
X19056701Y-681204D01*
X19077053Y-633790D01*
X19087074Y-608406D01*
X19088601Y-603250D01*
X19097464Y-584637D01*
X19105360Y-571500D01*
X19120047Y-542311D01*
X19123150Y-531812D01*
X19130843Y-510130D01*
X19148398Y-469001D01*
X19170458Y-420687D01*
X19193351Y-370648D01*
X19209735Y-332442D01*
X19215924Y-314854D01*
X19226309Y-294830D01*
X19228594Y-292364D01*
X19238992Y-276624D01*
X19231196Y-265673D01*
X19201878Y-258756D01*
X19147710Y-255117D01*
X19065365Y-254003D01*
X19059491Y-253999D01*
X18878481Y-253999D01*
X18863263Y-297656D01*
X18863263Y-297656D01*
G37*
X18863263Y-297656D02*
X18851034Y-334757D01*
X18844704Y-357187D01*
X18832073Y-381356D01*
X18819813Y-396875D01*
X18802089Y-419885D01*
X18798248Y-428625D01*
X18791779Y-451558D01*
X18773813Y-497840D01*
X18746455Y-562127D01*
X18738816Y-579437D01*
X18721204Y-619848D01*
X18710207Y-646502D01*
X18708688Y-650875D01*
X18701613Y-669001D01*
X18686093Y-705221D01*
X18678560Y-722312D01*
X18644885Y-798715D01*
X18623072Y-849511D01*
X18613816Y-873081D01*
X18613804Y-873125D01*
X18606502Y-891258D01*
X18590847Y-927491D01*
X18583310Y-944562D01*
X18548554Y-1023441D01*
X18527027Y-1073756D01*
X18518719Y-1095375D01*
X18511429Y-1113253D01*
X18495224Y-1149963D01*
X18484010Y-1174750D01*
X18454001Y-1243051D01*
X18437929Y-1286171D01*
X18434765Y-1306931D01*
X18435279Y-1308187D01*
X18428497Y-1322894D01*
X18408571Y-1347708D01*
X18390990Y-1371309D01*
X18391188Y-1381125D01*
X18392203Y-1390723D01*
X18378905Y-1408906D01*
X18358574Y-1435195D01*
X18352197Y-1448427D01*
X18341967Y-1484343D01*
X18317222Y-1545282D01*
X18298366Y-1587500D01*
X18279310Y-1630934D01*
X18267174Y-1661747D01*
X18264987Y-1669520D01*
X18257419Y-1689734D01*
X18242654Y-1685338D01*
X18224855Y-1661373D01*
X18208187Y-1622876D01*
X18199471Y-1590229D01*
X18189415Y-1557422D01*
X18183438Y-1542604D01*
X18172065Y-1516039D01*
X18168979Y-1508125D01*
X18160964Y-1487122D01*
X18146230Y-1449938D01*
X18130055Y-1409787D01*
X18118244Y-1381125D01*
X18107822Y-1355679D01*
X18105438Y-1349375D01*
X18097393Y-1329717D01*
X18090938Y-1314895D01*
X18078860Y-1280252D01*
X18075988Y-1267270D01*
X18065001Y-1235558D01*
X18057826Y-1222375D01*
X18042272Y-1185754D01*
X18038113Y-1168058D01*
X18027404Y-1133411D01*
X18019878Y-1120433D01*
X18006806Y-1095197D01*
X17990831Y-1053387D01*
X17986375Y-1039812D01*
X17970933Y-996153D01*
X17956994Y-965232D01*
X17953907Y-960437D01*
X17941924Y-940109D01*
X17941125Y-936625D01*
X17939681Y-928182D01*
X17934476Y-911394D01*
X17923438Y-880337D01*
X17904494Y-829088D01*
X17888330Y-785812D01*
X17869634Y-735451D01*
X17856022Y-698046D01*
X17850735Y-682625D01*
X17843853Y-663340D01*
X17829563Y-626544D01*
X17812531Y-584092D01*
X17800744Y-555625D01*
X17790807Y-530211D01*
X17788813Y-523875D01*
X17782539Y-506370D01*
X17767532Y-466921D01*
X17746691Y-413126D01*
X17740341Y-396875D01*
X17718995Y-339934D01*
X17703729Y-294540D01*
X17697138Y-268565D01*
X17697181Y-265906D01*
X17683765Y-261227D01*
X17644712Y-257413D01*
X17586132Y-254869D01*
X17518063Y-254000D01*
X17444319Y-255211D01*
X17385449Y-258527D01*
X17347297Y-263474D01*
X17335500Y-268841D01*
X17340716Y-294101D01*
X17349474Y-320435D01*
X17360878Y-353354D01*
X17365027Y-369260D01*
X17372812Y-390498D01*
X17389583Y-425747D01*
X17391063Y-428625D01*
X17408271Y-464372D01*
X17416959Y-487175D01*
X17417099Y-487989D01*
X17423262Y-510748D01*
X17433123Y-539750D01*
X17448835Y-583455D01*
X17456681Y-607347D01*
X17459876Y-621362D01*
X17460158Y-623260D01*
X17468025Y-644491D01*
X17484848Y-679774D01*
X17486399Y-682791D01*
X17499985Y-714411D01*
X17501227Y-729927D01*
X17500135Y-730250D01*
X17501228Y-740073D01*
X17518063Y-762000D01*
X17535453Y-784909D01*
X17535991Y-793750D01*
X17535071Y-805893D01*
X17546941Y-835680D01*
X17549727Y-841208D01*
X17565919Y-874347D01*
X17572860Y-892228D01*
X17572831Y-892802D01*
X17576840Y-909002D01*
X17588511Y-943433D01*
X17603849Y-984791D01*
X17616382Y-1016000D01*
X17626180Y-1041404D01*
X17628060Y-1047750D01*
X17636670Y-1067133D01*
X17639224Y-1071562D01*
X17649039Y-1094546D01*
X17664361Y-1137223D01*
X17676813Y-1174750D01*
X17693709Y-1225091D01*
X17707931Y-1263516D01*
X17714402Y-1277937D01*
X17724779Y-1299117D01*
X17725525Y-1301750D01*
X17731933Y-1320588D01*
X17745295Y-1355333D01*
X17746083Y-1357312D01*
X17764143Y-1403569D01*
X17772713Y-1429131D01*
X17774500Y-1442618D01*
X17774011Y-1446153D01*
X17780945Y-1465061D01*
X17789806Y-1477903D01*
X17804285Y-1504806D01*
X17822795Y-1550508D01*
X17835563Y-1587500D01*
X17852812Y-1637880D01*
X17867943Y-1676314D01*
X17875282Y-1690687D01*
X17887185Y-1715028D01*
X17902504Y-1756238D01*
X17907016Y-1770062D01*
X17921750Y-1813659D01*
X17933955Y-1844579D01*
X17936420Y-1849437D01*
X17948021Y-1877884D01*
X17948753Y-1881187D01*
X17956489Y-1904962D01*
X17972064Y-1944431D01*
X17977162Y-1956517D01*
X17993044Y-1995710D01*
X18001604Y-2020928D01*
X18002110Y-2024153D01*
X18008350Y-2042450D01*
X18024223Y-2076041D01*
X18026063Y-2079625D01*
X18043271Y-2115372D01*
X18051959Y-2138175D01*
X18052099Y-2138989D01*
X18058873Y-2163407D01*
X18073065Y-2204285D01*
X18090142Y-2248671D01*
X18092432Y-2254250D01*
X18103753Y-2285074D01*
X18106378Y-2293937D01*
X18114961Y-2317349D01*
X18131604Y-2357088D01*
X18138735Y-2373312D01*
X18156293Y-2413704D01*
X18167088Y-2440360D01*
X18168501Y-2444750D01*
X18177504Y-2461314D01*
X18199004Y-2495274D01*
X18217090Y-2522531D01*
X18247126Y-2567285D01*
X18271589Y-2604103D01*
X18280063Y-2617072D01*
X18308049Y-2654404D01*
X18345256Y-2696333D01*
X18384506Y-2735694D01*
X18418621Y-2765322D01*
X18440425Y-2778051D01*
X18441396Y-2778125D01*
X18460826Y-2786201D01*
X18462625Y-2791624D01*
X18475684Y-2804410D01*
X18509285Y-2825883D01*
X18555064Y-2851595D01*
X18604660Y-2877095D01*
X18649708Y-2897934D01*
X18681848Y-2909663D01*
X18686155Y-2910550D01*
X18717901Y-2919910D01*
X18724563Y-2923231D01*
X18747478Y-2928282D01*
X18792530Y-2932713D01*
X18850109Y-2935587D01*
X18851975Y-2935640D01*
X18963513Y-2938774D01*
X18962915Y-2788149D01*
X18961891Y-2722304D01*
X18959631Y-2669347D01*
X18956525Y-2636649D01*
X18954565Y-2629939D01*
X18935734Y-2623937D01*
X18895415Y-2616493D01*
X18859500Y-2611437D01*
X18807254Y-2602520D01*
X18766792Y-2591339D01*
X18752344Y-2584191D01*
X18735410Y-2575936D01*
X18732500Y-2579687D01*
X18722640Y-2580826D01*
X18706995Y-2570344D01*
X18671147Y-2545472D01*
X18648141Y-2532551D01*
X18619130Y-2509741D01*
X18584604Y-2471456D01*
X18570464Y-2452556D01*
X18537714Y-2402328D01*
X18502985Y-2343577D01*
X18469692Y-2282871D01*
X18441245Y-2226775D01*
X18421059Y-2181858D01*
X18412546Y-2154686D01*
X18413298Y-2150118D01*
X18423691Y-2130036D01*
X18423702Y-2129895D01*
X18430377Y-2111109D01*
X18447094Y-2072263D01*
X18469168Y-2024062D01*
X18492532Y-1972541D01*
X18509727Y-1931365D01*
X18516725Y-1910570D01*
X18528730Y-1883027D01*
X18537378Y-1870882D01*
X18553792Y-1846210D01*
X18556960Y-1837697D01*
X18568028Y-1800045D01*
X18593894Y-1736863D01*
X18611010Y-1698625D01*
X18630057Y-1655811D01*
X18642313Y-1626261D01*
X18644632Y-1619250D01*
X18653020Y-1600669D01*
X18660860Y-1587500D01*
X18675460Y-1558322D01*
X18678492Y-1547812D01*
X18686092Y-1524976D01*
X18702664Y-1484785D01*
X18713453Y-1460500D01*
X18761146Y-1355162D01*
X18801843Y-1264177D01*
X18833999Y-1191063D01*
X18856067Y-1139338D01*
X18866503Y-1112519D01*
X18866872Y-1111250D01*
X18874199Y-1093868D01*
X18891339Y-1056096D01*
X18913668Y-1008062D01*
X18936946Y-956995D01*
X18954036Y-916743D01*
X18960976Y-896937D01*
X18971191Y-870571D01*
X18978766Y-857250D01*
X18992443Y-832820D01*
X18995159Y-825500D01*
X19001789Y-807387D01*
X19017041Y-771194D01*
X19024566Y-754062D01*
X19056701Y-681204D01*
X19077053Y-633790D01*
X19087074Y-608406D01*
X19088601Y-603250D01*
X19097464Y-584637D01*
X19105360Y-571500D01*
X19120047Y-542311D01*
X19123150Y-531812D01*
X19130843Y-510130D01*
X19148398Y-469001D01*
X19170458Y-420687D01*
X19193351Y-370648D01*
X19209735Y-332442D01*
X19215924Y-314854D01*
X19226309Y-294830D01*
X19228594Y-292364D01*
X19238992Y-276624D01*
X19231196Y-265673D01*
X19201878Y-258756D01*
X19147710Y-255117D01*
X19065365Y-254003D01*
X19059491Y-253999D01*
X18878481Y-253999D01*
X18863263Y-297656D01*
G36*
X18637250Y-2516187D02*
X18645188Y-2524125D01*
X18653125Y-2516187D01*
X18645188Y-2508250D01*
X18637250Y-2516187D01*
X18637250Y-2516187D01*
G37*
X18637250Y-2516187D02*
X18645188Y-2524125D01*
X18653125Y-2516187D01*
X18645188Y-2508250D01*
X18637250Y-2516187D01*
G36*
X17108876Y-1739868D02*
X17071799Y-1747325D01*
X17040954Y-1765938D01*
X17003590Y-1800821D01*
X16999680Y-1804724D01*
X16961131Y-1846460D01*
X16940628Y-1881358D01*
X16931875Y-1922961D01*
X16929712Y-1955238D01*
X16933672Y-2032931D01*
X16956946Y-2095221D01*
X17004434Y-2154131D01*
X17014910Y-2164336D01*
X17070652Y-2198778D01*
X17141419Y-2217433D01*
X17214268Y-2218505D01*
X17275742Y-2200482D01*
X17320837Y-2174310D01*
X17356740Y-2150324D01*
X17377104Y-2133124D01*
X17376776Y-2127250D01*
X17374333Y-2117459D01*
X17384410Y-2101889D01*
X17408360Y-2054409D01*
X17419703Y-1992772D01*
X17418117Y-1929217D01*
X17403274Y-1875983D01*
X17390916Y-1857212D01*
X17374671Y-1834476D01*
X17376413Y-1825625D01*
X17373072Y-1817769D01*
X17349087Y-1797684D01*
X17327279Y-1781968D01*
X17283410Y-1755992D01*
X17239746Y-1742786D01*
X17182129Y-1738555D01*
X17164937Y-1738452D01*
X17108876Y-1739868D01*
X17108876Y-1739868D01*
G37*
X17108876Y-1739868D02*
X17071799Y-1747325D01*
X17040954Y-1765938D01*
X17003590Y-1800821D01*
X16999680Y-1804724D01*
X16961131Y-1846460D01*
X16940628Y-1881358D01*
X16931875Y-1922961D01*
X16929712Y-1955238D01*
X16933672Y-2032931D01*
X16956946Y-2095221D01*
X17004434Y-2154131D01*
X17014910Y-2164336D01*
X17070652Y-2198778D01*
X17141419Y-2217433D01*
X17214268Y-2218505D01*
X17275742Y-2200482D01*
X17320837Y-2174310D01*
X17356740Y-2150324D01*
X17377104Y-2133124D01*
X17376776Y-2127250D01*
X17374333Y-2117459D01*
X17384410Y-2101889D01*
X17408360Y-2054409D01*
X17419703Y-1992772D01*
X17418117Y-1929217D01*
X17403274Y-1875983D01*
X17390916Y-1857212D01*
X17374671Y-1834476D01*
X17376413Y-1825625D01*
X17373072Y-1817769D01*
X17349087Y-1797684D01*
X17327279Y-1781968D01*
X17283410Y-1755992D01*
X17239746Y-1742786D01*
X17182129Y-1738555D01*
X17164937Y-1738452D01*
X17108876Y-1739868D01*
G36*
X15618061Y-214548D02*
X15517108Y-223150D01*
X15427103Y-242730D01*
X15337944Y-275702D01*
X15239532Y-324483D01*
X15208250Y-341690D01*
X15181666Y-361101D01*
X15141831Y-395450D01*
X15094396Y-439219D01*
X15045013Y-486892D01*
X14999330Y-532954D01*
X14962998Y-571888D01*
X14941667Y-598178D01*
X14938375Y-605165D01*
X14930157Y-624959D01*
X14909504Y-659828D01*
X14899383Y-675173D01*
X14868768Y-729065D01*
X14836528Y-799351D01*
X14808388Y-872264D01*
X14790073Y-934034D01*
X14788421Y-942049D01*
X14782272Y-969095D01*
X14779230Y-976312D01*
X14773701Y-990922D01*
X14769077Y-1029712D01*
X14765532Y-1085118D01*
X14763241Y-1149577D01*
X14762380Y-1215528D01*
X14763123Y-1275407D01*
X14765645Y-1321652D01*
X14770122Y-1346701D01*
X14770641Y-1347680D01*
X14784683Y-1352071D01*
X14821791Y-1355781D01*
X14883225Y-1358835D01*
X14970245Y-1361262D01*
X15084113Y-1363089D01*
X15226089Y-1364343D01*
X15397436Y-1365053D01*
X15574539Y-1365250D01*
X16367578Y-1365250D01*
X16358603Y-1416194D01*
X16347215Y-1458341D01*
X16332620Y-1487632D01*
X16322413Y-1505022D01*
X16324553Y-1508125D01*
X16326944Y-1519353D01*
X16313502Y-1548763D01*
X16288469Y-1589935D01*
X16256088Y-1636455D01*
X16220601Y-1681906D01*
X16186252Y-1719870D01*
X16181481Y-1724502D01*
X16143397Y-1754342D01*
X16089292Y-1789322D01*
X16029382Y-1823622D01*
X15973884Y-1851421D01*
X15933015Y-1866897D01*
X15930563Y-1867454D01*
X15902528Y-1872855D01*
X15882938Y-1876430D01*
X15848403Y-1886041D01*
X15834715Y-1892406D01*
X15811635Y-1897033D01*
X15765957Y-1899999D01*
X15706785Y-1901333D01*
X15643227Y-1901069D01*
X15584387Y-1899235D01*
X15539373Y-1895864D01*
X15517813Y-1891326D01*
X15489319Y-1881077D01*
X15471937Y-1877438D01*
X15421724Y-1862523D01*
X15361439Y-1835212D01*
X15305858Y-1802870D01*
X15276383Y-1779969D01*
X15248783Y-1756168D01*
X15231604Y-1746250D01*
X15231593Y-1746250D01*
X15213797Y-1736344D01*
X15198045Y-1722437D01*
X15182761Y-1703707D01*
X15183199Y-1698625D01*
X15180423Y-1688400D01*
X15161612Y-1663512D01*
X15159262Y-1660782D01*
X15133890Y-1635894D01*
X15111151Y-1632791D01*
X15080307Y-1645912D01*
X15045699Y-1665917D01*
X15025911Y-1682403D01*
X15025695Y-1682738D01*
X15007771Y-1696649D01*
X14969973Y-1718647D01*
X14930477Y-1738988D01*
X14882421Y-1764269D01*
X14859299Y-1785526D01*
X14860229Y-1810146D01*
X14884331Y-1845518D01*
X14913686Y-1879687D01*
X14939838Y-1912604D01*
X14953621Y-1936150D01*
X14954250Y-1939219D01*
X14967308Y-1950765D01*
X14980709Y-1952625D01*
X14998436Y-1957155D01*
X14997340Y-1962452D01*
X14998714Y-1979134D01*
X15016350Y-2000574D01*
X15039434Y-2014947D01*
X15046423Y-2016125D01*
X15068240Y-2027021D01*
X15080666Y-2039233D01*
X15104999Y-2058146D01*
X15149232Y-2084426D01*
X15204444Y-2113621D01*
X15261713Y-2141283D01*
X15312118Y-2162959D01*
X15346738Y-2174201D01*
X15352589Y-2174875D01*
X15381421Y-2181163D01*
X15388627Y-2185917D01*
X15401487Y-2194595D01*
X15423454Y-2201024D01*
X15459557Y-2205750D01*
X15514827Y-2209317D01*
X15594294Y-2212270D01*
X15644813Y-2213692D01*
X15727381Y-2214593D01*
X15805639Y-2213192D01*
X15869987Y-2209790D01*
X15906750Y-2205517D01*
X15980006Y-2191551D01*
X16030338Y-2180380D01*
X16066137Y-2169576D01*
X16095797Y-2156711D01*
X16119646Y-2143921D01*
X16155590Y-2126312D01*
X16178263Y-2119995D01*
X16180780Y-2120821D01*
X16195100Y-2116486D01*
X16208057Y-2103821D01*
X16233824Y-2083501D01*
X16247546Y-2079625D01*
X16271896Y-2068809D01*
X16295688Y-2047875D01*
X16323571Y-2024075D01*
X16343090Y-2016125D01*
X16362359Y-2005328D01*
X16396207Y-1976790D01*
X16437885Y-1936290D01*
X16445090Y-1928812D01*
X16482961Y-1887612D01*
X16508441Y-1856885D01*
X16517091Y-1842080D01*
X16516241Y-1841500D01*
X16518338Y-1831560D01*
X16537983Y-1806552D01*
X16549688Y-1793875D01*
X16574690Y-1764874D01*
X16583856Y-1747997D01*
X16581948Y-1746250D01*
X16580188Y-1736464D01*
X16592440Y-1718468D01*
X16617684Y-1680912D01*
X16631557Y-1644924D01*
X16632297Y-1635125D01*
X16638478Y-1616702D01*
X16651303Y-1590438D01*
X16668723Y-1551685D01*
X16676472Y-1526938D01*
X16683448Y-1494808D01*
X16693959Y-1448157D01*
X16696982Y-1434965D01*
X16703525Y-1387424D01*
X16707310Y-1319555D01*
X16708502Y-1239490D01*
X16707264Y-1155365D01*
X16703946Y-1079500D01*
X16369032Y-1079500D01*
X15732009Y-1079500D01*
X15573234Y-1079465D01*
X15443363Y-1079267D01*
X15339548Y-1078761D01*
X15258944Y-1077803D01*
X15198704Y-1076251D01*
X15155981Y-1073961D01*
X15127928Y-1070788D01*
X15111699Y-1066591D01*
X15104448Y-1061224D01*
X15103328Y-1054545D01*
X15105020Y-1047886D01*
X15115687Y-1007428D01*
X15122905Y-972973D01*
X15134747Y-933066D01*
X15147635Y-909336D01*
X15157738Y-892039D01*
X15155573Y-889000D01*
X15155149Y-877591D01*
X15169262Y-848166D01*
X15193160Y-807931D01*
X15222090Y-764089D01*
X15251302Y-723844D01*
X15276043Y-694400D01*
X15291474Y-682963D01*
X15310558Y-673264D01*
X15340445Y-650287D01*
X15341650Y-649244D01*
X15370154Y-627842D01*
X15387235Y-621200D01*
X15387729Y-621463D01*
X15403967Y-616715D01*
X15424865Y-601529D01*
X15453066Y-583009D01*
X15490416Y-565155D01*
X15526758Y-551880D01*
X15551934Y-547093D01*
X15557500Y-550457D01*
X15567178Y-550112D01*
X15577963Y-542530D01*
X15602115Y-535780D01*
X15648815Y-531850D01*
X15708990Y-530686D01*
X15773568Y-532234D01*
X15833478Y-536439D01*
X15879647Y-543247D01*
X15884344Y-544366D01*
X15973769Y-569811D01*
X16035080Y-593754D01*
X16071778Y-617610D01*
X16075643Y-621561D01*
X16100802Y-644061D01*
X16115465Y-650875D01*
X16140583Y-662890D01*
X16175866Y-693620D01*
X16214451Y-735095D01*
X16249472Y-779340D01*
X16274065Y-818384D01*
X16281476Y-843677D01*
X16289783Y-861630D01*
X16310055Y-887333D01*
X16328228Y-910991D01*
X16329340Y-920750D01*
X16327331Y-932406D01*
X16336547Y-954688D01*
X16352993Y-996873D01*
X16361871Y-1034063D01*
X16369032Y-1079500D01*
X16703946Y-1079500D01*
X16703762Y-1075312D01*
X16698161Y-1007464D01*
X16690626Y-959956D01*
X16687131Y-948531D01*
X16677081Y-917879D01*
X16677391Y-904878D01*
X16677489Y-904875D01*
X16676477Y-892662D01*
X16663588Y-862717D01*
X16660813Y-857250D01*
X16647183Y-825562D01*
X16645879Y-809962D01*
X16646991Y-809625D01*
X16645898Y-799801D01*
X16629063Y-777875D01*
X16612338Y-755027D01*
X16613188Y-746125D01*
X16614000Y-736470D01*
X16599739Y-717055D01*
X16582644Y-692258D01*
X16581501Y-679916D01*
X16577259Y-664859D01*
X16557723Y-643025D01*
X16534002Y-616687D01*
X16525875Y-599643D01*
X16514525Y-577550D01*
X16484433Y-541338D01*
X16441541Y-496862D01*
X16391791Y-449975D01*
X16341123Y-406530D01*
X16295478Y-372381D01*
X16294659Y-371835D01*
X16218122Y-325491D01*
X16139738Y-285833D01*
X16069584Y-257630D01*
X16032002Y-247481D01*
X16003120Y-241308D01*
X15994063Y-238090D01*
X15978550Y-230754D01*
X15933443Y-224349D01*
X15860888Y-219076D01*
X15763033Y-215133D01*
X15740063Y-214507D01*
X15618061Y-214548D01*
X15618061Y-214548D01*
G37*
X15618061Y-214548D02*
X15517108Y-223150D01*
X15427103Y-242730D01*
X15337944Y-275702D01*
X15239532Y-324483D01*
X15208250Y-341690D01*
X15181666Y-361101D01*
X15141831Y-395450D01*
X15094396Y-439219D01*
X15045013Y-486892D01*
X14999330Y-532954D01*
X14962998Y-571888D01*
X14941667Y-598178D01*
X14938375Y-605165D01*
X14930157Y-624959D01*
X14909504Y-659828D01*
X14899383Y-675173D01*
X14868768Y-729065D01*
X14836528Y-799351D01*
X14808388Y-872264D01*
X14790073Y-934034D01*
X14788421Y-942049D01*
X14782272Y-969095D01*
X14779230Y-976312D01*
X14773701Y-990922D01*
X14769077Y-1029712D01*
X14765532Y-1085118D01*
X14763241Y-1149577D01*
X14762380Y-1215528D01*
X14763123Y-1275407D01*
X14765645Y-1321652D01*
X14770122Y-1346701D01*
X14770641Y-1347680D01*
X14784683Y-1352071D01*
X14821791Y-1355781D01*
X14883225Y-1358835D01*
X14970245Y-1361262D01*
X15084113Y-1363089D01*
X15226089Y-1364343D01*
X15397436Y-1365053D01*
X15574539Y-1365250D01*
X16367578Y-1365250D01*
X16358603Y-1416194D01*
X16347215Y-1458341D01*
X16332620Y-1487632D01*
X16322413Y-1505022D01*
X16324553Y-1508125D01*
X16326944Y-1519353D01*
X16313502Y-1548763D01*
X16288469Y-1589935D01*
X16256088Y-1636455D01*
X16220601Y-1681906D01*
X16186252Y-1719870D01*
X16181481Y-1724502D01*
X16143397Y-1754342D01*
X16089292Y-1789322D01*
X16029382Y-1823622D01*
X15973884Y-1851421D01*
X15933015Y-1866897D01*
X15930563Y-1867454D01*
X15902528Y-1872855D01*
X15882938Y-1876430D01*
X15848403Y-1886041D01*
X15834715Y-1892406D01*
X15811635Y-1897033D01*
X15765957Y-1899999D01*
X15706785Y-1901333D01*
X15643227Y-1901069D01*
X15584387Y-1899235D01*
X15539373Y-1895864D01*
X15517813Y-1891326D01*
X15489319Y-1881077D01*
X15471937Y-1877438D01*
X15421724Y-1862523D01*
X15361439Y-1835212D01*
X15305858Y-1802870D01*
X15276383Y-1779969D01*
X15248783Y-1756168D01*
X15231604Y-1746250D01*
X15231593Y-1746250D01*
X15213797Y-1736344D01*
X15198045Y-1722437D01*
X15182761Y-1703707D01*
X15183199Y-1698625D01*
X15180423Y-1688400D01*
X15161612Y-1663512D01*
X15159262Y-1660782D01*
X15133890Y-1635894D01*
X15111151Y-1632791D01*
X15080307Y-1645912D01*
X15045699Y-1665917D01*
X15025911Y-1682403D01*
X15025695Y-1682738D01*
X15007771Y-1696649D01*
X14969973Y-1718647D01*
X14930477Y-1738988D01*
X14882421Y-1764269D01*
X14859299Y-1785526D01*
X14860229Y-1810146D01*
X14884331Y-1845518D01*
X14913686Y-1879687D01*
X14939838Y-1912604D01*
X14953621Y-1936150D01*
X14954250Y-1939219D01*
X14967308Y-1950765D01*
X14980709Y-1952625D01*
X14998436Y-1957155D01*
X14997340Y-1962452D01*
X14998714Y-1979134D01*
X15016350Y-2000574D01*
X15039434Y-2014947D01*
X15046423Y-2016125D01*
X15068240Y-2027021D01*
X15080666Y-2039233D01*
X15104999Y-2058146D01*
X15149232Y-2084426D01*
X15204444Y-2113621D01*
X15261713Y-2141283D01*
X15312118Y-2162959D01*
X15346738Y-2174201D01*
X15352589Y-2174875D01*
X15381421Y-2181163D01*
X15388627Y-2185917D01*
X15401487Y-2194595D01*
X15423454Y-2201024D01*
X15459557Y-2205750D01*
X15514827Y-2209317D01*
X15594294Y-2212270D01*
X15644813Y-2213692D01*
X15727381Y-2214593D01*
X15805639Y-2213192D01*
X15869987Y-2209790D01*
X15906750Y-2205517D01*
X15980006Y-2191551D01*
X16030338Y-2180380D01*
X16066137Y-2169576D01*
X16095797Y-2156711D01*
X16119646Y-2143921D01*
X16155590Y-2126312D01*
X16178263Y-2119995D01*
X16180780Y-2120821D01*
X16195100Y-2116486D01*
X16208057Y-2103821D01*
X16233824Y-2083501D01*
X16247546Y-2079625D01*
X16271896Y-2068809D01*
X16295688Y-2047875D01*
X16323571Y-2024075D01*
X16343090Y-2016125D01*
X16362359Y-2005328D01*
X16396207Y-1976790D01*
X16437885Y-1936290D01*
X16445090Y-1928812D01*
X16482961Y-1887612D01*
X16508441Y-1856885D01*
X16517091Y-1842080D01*
X16516241Y-1841500D01*
X16518338Y-1831560D01*
X16537983Y-1806552D01*
X16549688Y-1793875D01*
X16574690Y-1764874D01*
X16583856Y-1747997D01*
X16581948Y-1746250D01*
X16580188Y-1736464D01*
X16592440Y-1718468D01*
X16617684Y-1680912D01*
X16631557Y-1644924D01*
X16632297Y-1635125D01*
X16638478Y-1616702D01*
X16651303Y-1590438D01*
X16668723Y-1551685D01*
X16676472Y-1526938D01*
X16683448Y-1494808D01*
X16693959Y-1448157D01*
X16696982Y-1434965D01*
X16703525Y-1387424D01*
X16707310Y-1319555D01*
X16708502Y-1239490D01*
X16707264Y-1155365D01*
X16703946Y-1079500D01*
X16369032Y-1079500D01*
X15732009Y-1079500D01*
X15573234Y-1079465D01*
X15443363Y-1079267D01*
X15339548Y-1078761D01*
X15258944Y-1077803D01*
X15198704Y-1076251D01*
X15155981Y-1073961D01*
X15127928Y-1070788D01*
X15111699Y-1066591D01*
X15104448Y-1061224D01*
X15103328Y-1054545D01*
X15105020Y-1047886D01*
X15115687Y-1007428D01*
X15122905Y-972973D01*
X15134747Y-933066D01*
X15147635Y-909336D01*
X15157738Y-892039D01*
X15155573Y-889000D01*
X15155149Y-877591D01*
X15169262Y-848166D01*
X15193160Y-807931D01*
X15222090Y-764089D01*
X15251302Y-723844D01*
X15276043Y-694400D01*
X15291474Y-682963D01*
X15310558Y-673264D01*
X15340445Y-650287D01*
X15341650Y-649244D01*
X15370154Y-627842D01*
X15387235Y-621200D01*
X15387729Y-621463D01*
X15403967Y-616715D01*
X15424865Y-601529D01*
X15453066Y-583009D01*
X15490416Y-565155D01*
X15526758Y-551880D01*
X15551934Y-547093D01*
X15557500Y-550457D01*
X15567178Y-550112D01*
X15577963Y-542530D01*
X15602115Y-535780D01*
X15648815Y-531850D01*
X15708990Y-530686D01*
X15773568Y-532234D01*
X15833478Y-536439D01*
X15879647Y-543247D01*
X15884344Y-544366D01*
X15973769Y-569811D01*
X16035080Y-593754D01*
X16071778Y-617610D01*
X16075643Y-621561D01*
X16100802Y-644061D01*
X16115465Y-650875D01*
X16140583Y-662890D01*
X16175866Y-693620D01*
X16214451Y-735095D01*
X16249472Y-779340D01*
X16274065Y-818384D01*
X16281476Y-843677D01*
X16289783Y-861630D01*
X16310055Y-887333D01*
X16328228Y-910991D01*
X16329340Y-920750D01*
X16327331Y-932406D01*
X16336547Y-954688D01*
X16352993Y-996873D01*
X16361871Y-1034063D01*
X16369032Y-1079500D01*
X16703946Y-1079500D01*
X16703762Y-1075312D01*
X16698161Y-1007464D01*
X16690626Y-959956D01*
X16687131Y-948531D01*
X16677081Y-917879D01*
X16677391Y-904878D01*
X16677489Y-904875D01*
X16676477Y-892662D01*
X16663588Y-862717D01*
X16660813Y-857250D01*
X16647183Y-825562D01*
X16645879Y-809962D01*
X16646991Y-809625D01*
X16645898Y-799801D01*
X16629063Y-777875D01*
X16612338Y-755027D01*
X16613188Y-746125D01*
X16614000Y-736470D01*
X16599739Y-717055D01*
X16582644Y-692258D01*
X16581501Y-679916D01*
X16577259Y-664859D01*
X16557723Y-643025D01*
X16534002Y-616687D01*
X16525875Y-599643D01*
X16514525Y-577550D01*
X16484433Y-541338D01*
X16441541Y-496862D01*
X16391791Y-449975D01*
X16341123Y-406530D01*
X16295478Y-372381D01*
X16294659Y-371835D01*
X16218122Y-325491D01*
X16139738Y-285833D01*
X16069584Y-257630D01*
X16032002Y-247481D01*
X16003120Y-241308D01*
X15994063Y-238090D01*
X15978550Y-230754D01*
X15933443Y-224349D01*
X15860888Y-219076D01*
X15763033Y-215133D01*
X15740063Y-214507D01*
X15618061Y-214548D01*
G36*
X13699579Y-220852D02*
X13550597Y-253073D01*
X13419246Y-311390D01*
X13304905Y-396084D01*
X13206954Y-507438D01*
X13200063Y-517140D01*
X13165582Y-572241D01*
X13153814Y-606353D01*
X13164898Y-619047D01*
X13166881Y-619125D01*
X13194225Y-630303D01*
X13208046Y-642992D01*
X13232069Y-661897D01*
X13275395Y-687873D01*
X13324743Y-713361D01*
X13390799Y-740193D01*
X13434527Y-746028D01*
X13457474Y-730802D01*
X13462000Y-707607D01*
X13474937Y-680218D01*
X13508359Y-645114D01*
X13554184Y-608436D01*
X13604330Y-576325D01*
X13650715Y-554922D01*
X13669054Y-550288D01*
X13700925Y-541188D01*
X13708063Y-537755D01*
X13742670Y-528863D01*
X13797257Y-525735D01*
X13860652Y-528007D01*
X13921681Y-535317D01*
X13966032Y-546143D01*
X14006101Y-558708D01*
X14030275Y-563088D01*
X14033500Y-561664D01*
X14043801Y-566990D01*
X14070538Y-589375D01*
X14100528Y-617014D01*
X14138758Y-655747D01*
X14158774Y-686942D01*
X14166419Y-723783D01*
X14167556Y-768211D01*
X14164444Y-825920D01*
X14152538Y-864994D01*
X14128310Y-897812D01*
X14092635Y-930732D01*
X14059223Y-953475D01*
X14057313Y-954381D01*
X14022195Y-972373D01*
X13978693Y-997159D01*
X13973969Y-1000000D01*
X13941200Y-1017645D01*
X13923429Y-1022953D01*
X13922375Y-1021671D01*
X13912679Y-1021684D01*
X13901286Y-1029615D01*
X13868303Y-1046575D01*
X13846132Y-1052316D01*
X13813766Y-1061179D01*
X13801076Y-1068507D01*
X13777792Y-1077429D01*
X13755688Y-1079500D01*
X13722719Y-1084498D01*
X13709386Y-1091406D01*
X13689173Y-1103394D01*
X13686896Y-1103694D01*
X13658789Y-1108731D01*
X13612773Y-1120428D01*
X13561025Y-1135298D01*
X13515719Y-1149854D01*
X13489997Y-1160077D01*
X13454268Y-1172719D01*
X13438188Y-1174750D01*
X13397977Y-1186671D01*
X13345923Y-1218543D01*
X13288702Y-1264531D01*
X13232992Y-1318798D01*
X13185472Y-1375508D01*
X13156838Y-1420632D01*
X13120918Y-1521348D01*
X13107127Y-1635369D01*
X13115488Y-1753211D01*
X13146023Y-1865392D01*
X13155738Y-1888411D01*
X13177556Y-1925553D01*
X13210683Y-1970251D01*
X13248656Y-2015121D01*
X13285010Y-2052779D01*
X13313284Y-2075839D01*
X13323095Y-2079625D01*
X13343334Y-2089433D01*
X13368983Y-2110047D01*
X13407701Y-2136869D01*
X13439057Y-2149861D01*
X13482596Y-2163225D01*
X13520832Y-2177441D01*
X13561071Y-2192906D01*
X13589000Y-2202185D01*
X13616428Y-2205598D01*
X13667516Y-2208620D01*
X13734175Y-2211084D01*
X13808317Y-2212825D01*
X13881852Y-2213675D01*
X13946692Y-2213469D01*
X13994747Y-2212039D01*
X14009688Y-2210845D01*
X14052338Y-2203629D01*
X14081125Y-2195607D01*
X14115949Y-2184084D01*
X14126120Y-2181623D01*
X14160171Y-2169808D01*
X14208272Y-2147650D01*
X14260048Y-2120614D01*
X14305123Y-2094168D01*
X14333122Y-2073781D01*
X14335428Y-2071322D01*
X14361079Y-2051421D01*
X14374206Y-2047875D01*
X14395533Y-2036559D01*
X14427324Y-2007457D01*
X14463532Y-1967834D01*
X14498110Y-1924958D01*
X14525014Y-1886095D01*
X14538197Y-1858511D01*
X14537788Y-1851271D01*
X14543916Y-1836253D01*
X14561473Y-1813993D01*
X14579838Y-1789823D01*
X14575474Y-1772003D01*
X14557504Y-1754303D01*
X14534607Y-1737610D01*
X14525625Y-1738619D01*
X14515627Y-1738937D01*
X14491414Y-1721681D01*
X14489907Y-1720367D01*
X14450439Y-1691469D01*
X14401525Y-1663414D01*
X14352205Y-1640430D01*
X14311517Y-1626746D01*
X14288877Y-1626336D01*
X14272515Y-1649485D01*
X14271625Y-1656067D01*
X14261605Y-1679637D01*
X14237063Y-1712299D01*
X14232878Y-1716924D01*
X14209871Y-1746665D01*
X14202774Y-1766473D01*
X14203773Y-1768356D01*
X14200018Y-1776651D01*
X14188903Y-1778000D01*
X14158762Y-1789312D01*
X14144382Y-1802105D01*
X14114671Y-1826153D01*
X14069275Y-1852165D01*
X14022758Y-1872449D01*
X13999015Y-1878888D01*
X13967548Y-1888406D01*
X13962063Y-1891166D01*
X13936921Y-1896818D01*
X13891401Y-1900184D01*
X13834574Y-1901363D01*
X13775510Y-1900453D01*
X13723282Y-1897553D01*
X13686959Y-1892762D01*
X13675647Y-1888047D01*
X13654070Y-1875659D01*
X13631720Y-1872089D01*
X13577207Y-1857365D01*
X13522157Y-1822090D01*
X13479202Y-1774601D01*
X13475898Y-1769231D01*
X13459350Y-1727405D01*
X13449660Y-1676423D01*
X13447611Y-1627213D01*
X13453990Y-1590706D01*
X13462259Y-1579402D01*
X13471813Y-1560997D01*
X13469870Y-1555640D01*
X13477391Y-1540371D01*
X13506160Y-1515203D01*
X13549106Y-1484597D01*
X13599159Y-1453014D01*
X13649249Y-1424913D01*
X13692305Y-1404754D01*
X13721258Y-1397000D01*
X13721335Y-1397000D01*
X13740570Y-1391518D01*
X13774498Y-1378486D01*
X13808526Y-1364856D01*
X13827125Y-1358260D01*
X13857679Y-1350721D01*
X13904185Y-1338326D01*
X13954592Y-1324400D01*
X13996846Y-1312264D01*
X14017625Y-1305738D01*
X14052650Y-1294956D01*
X14062521Y-1292637D01*
X14095400Y-1282631D01*
X14110146Y-1276775D01*
X14147652Y-1263682D01*
X14161626Y-1260211D01*
X14223055Y-1236934D01*
X14290900Y-1193983D01*
X14358140Y-1137936D01*
X14417752Y-1075373D01*
X14462715Y-1012872D01*
X14486005Y-957012D01*
X14486175Y-956150D01*
X14491803Y-932826D01*
X14493875Y-928687D01*
X14499785Y-914550D01*
X14506685Y-878856D01*
X14512856Y-831685D01*
X14515522Y-801687D01*
X14509975Y-698626D01*
X14481544Y-592165D01*
X14475734Y-577481D01*
X14461978Y-541563D01*
X14455518Y-519604D01*
X14443603Y-500479D01*
X14414439Y-467054D01*
X14374699Y-425902D01*
X14331055Y-383598D01*
X14290181Y-346717D01*
X14258750Y-321833D01*
X14248928Y-316060D01*
X14210875Y-296959D01*
X14192250Y-285778D01*
X14156821Y-267157D01*
X14106400Y-246015D01*
X14056466Y-228749D01*
X14049375Y-226724D01*
X14023987Y-223391D01*
X13974989Y-219714D01*
X13910508Y-216239D01*
X13866813Y-214444D01*
X13699579Y-220852D01*
X13699579Y-220852D01*
G37*
X13699579Y-220852D02*
X13550597Y-253073D01*
X13419246Y-311390D01*
X13304905Y-396084D01*
X13206954Y-507438D01*
X13200063Y-517140D01*
X13165582Y-572241D01*
X13153814Y-606353D01*
X13164898Y-619047D01*
X13166881Y-619125D01*
X13194225Y-630303D01*
X13208046Y-642992D01*
X13232069Y-661897D01*
X13275395Y-687873D01*
X13324743Y-713361D01*
X13390799Y-740193D01*
X13434527Y-746028D01*
X13457474Y-730802D01*
X13462000Y-707607D01*
X13474937Y-680218D01*
X13508359Y-645114D01*
X13554184Y-608436D01*
X13604330Y-576325D01*
X13650715Y-554922D01*
X13669054Y-550288D01*
X13700925Y-541188D01*
X13708063Y-537755D01*
X13742670Y-528863D01*
X13797257Y-525735D01*
X13860652Y-528007D01*
X13921681Y-535317D01*
X13966032Y-546143D01*
X14006101Y-558708D01*
X14030275Y-563088D01*
X14033500Y-561664D01*
X14043801Y-566990D01*
X14070538Y-589375D01*
X14100528Y-617014D01*
X14138758Y-655747D01*
X14158774Y-686942D01*
X14166419Y-723783D01*
X14167556Y-768211D01*
X14164444Y-825920D01*
X14152538Y-864994D01*
X14128310Y-897812D01*
X14092635Y-930732D01*
X14059223Y-953475D01*
X14057313Y-954381D01*
X14022195Y-972373D01*
X13978693Y-997159D01*
X13973969Y-1000000D01*
X13941200Y-1017645D01*
X13923429Y-1022953D01*
X13922375Y-1021671D01*
X13912679Y-1021684D01*
X13901286Y-1029615D01*
X13868303Y-1046575D01*
X13846132Y-1052316D01*
X13813766Y-1061179D01*
X13801076Y-1068507D01*
X13777792Y-1077429D01*
X13755688Y-1079500D01*
X13722719Y-1084498D01*
X13709386Y-1091406D01*
X13689173Y-1103394D01*
X13686896Y-1103694D01*
X13658789Y-1108731D01*
X13612773Y-1120428D01*
X13561025Y-1135298D01*
X13515719Y-1149854D01*
X13489997Y-1160077D01*
X13454268Y-1172719D01*
X13438188Y-1174750D01*
X13397977Y-1186671D01*
X13345923Y-1218543D01*
X13288702Y-1264531D01*
X13232992Y-1318798D01*
X13185472Y-1375508D01*
X13156838Y-1420632D01*
X13120918Y-1521348D01*
X13107127Y-1635369D01*
X13115488Y-1753211D01*
X13146023Y-1865392D01*
X13155738Y-1888411D01*
X13177556Y-1925553D01*
X13210683Y-1970251D01*
X13248656Y-2015121D01*
X13285010Y-2052779D01*
X13313284Y-2075839D01*
X13323095Y-2079625D01*
X13343334Y-2089433D01*
X13368983Y-2110047D01*
X13407701Y-2136869D01*
X13439057Y-2149861D01*
X13482596Y-2163225D01*
X13520832Y-2177441D01*
X13561071Y-2192906D01*
X13589000Y-2202185D01*
X13616428Y-2205598D01*
X13667516Y-2208620D01*
X13734175Y-2211084D01*
X13808317Y-2212825D01*
X13881852Y-2213675D01*
X13946692Y-2213469D01*
X13994747Y-2212039D01*
X14009688Y-2210845D01*
X14052338Y-2203629D01*
X14081125Y-2195607D01*
X14115949Y-2184084D01*
X14126120Y-2181623D01*
X14160171Y-2169808D01*
X14208272Y-2147650D01*
X14260048Y-2120614D01*
X14305123Y-2094168D01*
X14333122Y-2073781D01*
X14335428Y-2071322D01*
X14361079Y-2051421D01*
X14374206Y-2047875D01*
X14395533Y-2036559D01*
X14427324Y-2007457D01*
X14463532Y-1967834D01*
X14498110Y-1924958D01*
X14525014Y-1886095D01*
X14538197Y-1858511D01*
X14537788Y-1851271D01*
X14543916Y-1836253D01*
X14561473Y-1813993D01*
X14579838Y-1789823D01*
X14575474Y-1772003D01*
X14557504Y-1754303D01*
X14534607Y-1737610D01*
X14525625Y-1738619D01*
X14515627Y-1738937D01*
X14491414Y-1721681D01*
X14489907Y-1720367D01*
X14450439Y-1691469D01*
X14401525Y-1663414D01*
X14352205Y-1640430D01*
X14311517Y-1626746D01*
X14288877Y-1626336D01*
X14272515Y-1649485D01*
X14271625Y-1656067D01*
X14261605Y-1679637D01*
X14237063Y-1712299D01*
X14232878Y-1716924D01*
X14209871Y-1746665D01*
X14202774Y-1766473D01*
X14203773Y-1768356D01*
X14200018Y-1776651D01*
X14188903Y-1778000D01*
X14158762Y-1789312D01*
X14144382Y-1802105D01*
X14114671Y-1826153D01*
X14069275Y-1852165D01*
X14022758Y-1872449D01*
X13999015Y-1878888D01*
X13967548Y-1888406D01*
X13962063Y-1891166D01*
X13936921Y-1896818D01*
X13891401Y-1900184D01*
X13834574Y-1901363D01*
X13775510Y-1900453D01*
X13723282Y-1897553D01*
X13686959Y-1892762D01*
X13675647Y-1888047D01*
X13654070Y-1875659D01*
X13631720Y-1872089D01*
X13577207Y-1857365D01*
X13522157Y-1822090D01*
X13479202Y-1774601D01*
X13475898Y-1769231D01*
X13459350Y-1727405D01*
X13449660Y-1676423D01*
X13447611Y-1627213D01*
X13453990Y-1590706D01*
X13462259Y-1579402D01*
X13471813Y-1560997D01*
X13469870Y-1555640D01*
X13477391Y-1540371D01*
X13506160Y-1515203D01*
X13549106Y-1484597D01*
X13599159Y-1453014D01*
X13649249Y-1424913D01*
X13692305Y-1404754D01*
X13721258Y-1397000D01*
X13721335Y-1397000D01*
X13740570Y-1391518D01*
X13774498Y-1378486D01*
X13808526Y-1364856D01*
X13827125Y-1358260D01*
X13857679Y-1350721D01*
X13904185Y-1338326D01*
X13954592Y-1324400D01*
X13996846Y-1312264D01*
X14017625Y-1305738D01*
X14052650Y-1294956D01*
X14062521Y-1292637D01*
X14095400Y-1282631D01*
X14110146Y-1276775D01*
X14147652Y-1263682D01*
X14161626Y-1260211D01*
X14223055Y-1236934D01*
X14290900Y-1193983D01*
X14358140Y-1137936D01*
X14417752Y-1075373D01*
X14462715Y-1012872D01*
X14486005Y-957012D01*
X14486175Y-956150D01*
X14491803Y-932826D01*
X14493875Y-928687D01*
X14499785Y-914550D01*
X14506685Y-878856D01*
X14512856Y-831685D01*
X14515522Y-801687D01*
X14509975Y-698626D01*
X14481544Y-592165D01*
X14475734Y-577481D01*
X14461978Y-541563D01*
X14455518Y-519604D01*
X14443603Y-500479D01*
X14414439Y-467054D01*
X14374699Y-425902D01*
X14331055Y-383598D01*
X14290181Y-346717D01*
X14258750Y-321833D01*
X14248928Y-316060D01*
X14210875Y-296959D01*
X14192250Y-285778D01*
X14156821Y-267157D01*
X14106400Y-246015D01*
X14056466Y-228749D01*
X14049375Y-226724D01*
X14023987Y-223391D01*
X13974989Y-219714D01*
X13910508Y-216239D01*
X13866813Y-214444D01*
X13699579Y-220852D01*
G36*
X24938515Y238125D02*
X25034320Y236141D01*
X25097780Y234182D01*
X25137508Y230989D01*
X25161520Y225740D01*
X25169813Y222250D01*
X25191016Y214990D01*
X25193625Y214313D01*
X25215984Y207053D01*
X25217438Y206375D01*
X25238886Y200795D01*
X25241612Y200422D01*
X25260829Y188940D01*
X25294174Y161163D01*
X25326454Y130830D01*
X25383497Y60790D01*
X25419249Y-19117D01*
X25436671Y-116605D01*
X25439184Y-162718D01*
X25441685Y-254000D01*
X24939625Y-254000D01*
X24939625Y-570693D01*
X25189657Y-575065D01*
X25439688Y-579437D01*
X25439530Y-2174875D01*
X25781000Y-2174875D01*
X25781000Y-571500D01*
X26082625Y-571500D01*
X26082625Y-254000D01*
X25785476Y-254000D01*
X25776154Y-123031D01*
X25768961Y-34997D01*
X25760537Y30771D01*
X25748768Y83749D01*
X25731536Y133408D01*
X25706725Y189223D01*
X25706121Y190500D01*
X25679039Y237736D01*
X25641051Y291491D01*
X25597660Y345387D01*
X25554367Y393044D01*
X25516676Y428082D01*
X25490087Y444122D01*
X25487062Y444500D01*
X25461867Y454678D01*
X25450007Y464344D01*
X25427250Y482196D01*
X25419050Y485518D01*
X25398061Y492292D01*
X25362414Y506880D01*
X25360313Y507801D01*
X25319573Y524050D01*
X25288875Y533559D01*
X25214315Y545657D01*
X25126900Y555632D01*
X25045526Y561431D01*
X25026938Y562016D01*
X24947563Y563563D01*
X24938515Y238125D01*
X24938515Y238125D01*
G37*
X24938515Y238125D02*
X25034320Y236141D01*
X25097780Y234182D01*
X25137508Y230989D01*
X25161520Y225740D01*
X25169813Y222250D01*
X25191016Y214990D01*
X25193625Y214313D01*
X25215984Y207053D01*
X25217438Y206375D01*
X25238886Y200795D01*
X25241612Y200422D01*
X25260829Y188940D01*
X25294174Y161163D01*
X25326454Y130830D01*
X25383497Y60790D01*
X25419249Y-19117D01*
X25436671Y-116605D01*
X25439184Y-162718D01*
X25441685Y-254000D01*
X24939625Y-254000D01*
X24939625Y-570693D01*
X25189657Y-575065D01*
X25439688Y-579437D01*
X25439530Y-2174875D01*
X25781000Y-2174875D01*
X25781000Y-571500D01*
X26082625Y-571500D01*
X26082625Y-254000D01*
X25785476Y-254000D01*
X25776154Y-123031D01*
X25768961Y-34997D01*
X25760537Y30771D01*
X25748768Y83749D01*
X25731536Y133408D01*
X25706725Y189223D01*
X25706121Y190500D01*
X25679039Y237736D01*
X25641051Y291491D01*
X25597660Y345387D01*
X25554367Y393044D01*
X25516676Y428082D01*
X25490087Y444122D01*
X25487062Y444500D01*
X25461867Y454678D01*
X25450007Y464344D01*
X25427250Y482196D01*
X25419050Y485518D01*
X25398061Y492292D01*
X25362414Y506880D01*
X25360313Y507801D01*
X25319573Y524050D01*
X25288875Y533559D01*
X25214315Y545657D01*
X25126900Y555632D01*
X25045526Y561431D01*
X25026938Y562016D01*
X24947563Y563563D01*
X24938515Y238125D01*
G36*
X23756734Y-386797D02*
X23757682Y-456254D01*
X23759819Y-513142D01*
X23762799Y-550469D01*
X23765354Y-561395D01*
X23784554Y-567659D01*
X23824577Y-574685D01*
X23852497Y-578223D01*
X23913552Y-585658D01*
X23955616Y-593307D01*
X23991339Y-604009D01*
X24023878Y-616685D01*
X24057350Y-629626D01*
X24075007Y-635000D01*
X24090433Y-643386D01*
X24123461Y-665017D01*
X24153751Y-685964D01*
X24196013Y-721557D01*
X24237339Y-765688D01*
X24270947Y-809964D01*
X24290058Y-845990D01*
X24292122Y-857250D01*
X24298534Y-876072D01*
X24307495Y-894361D01*
X24322711Y-932930D01*
X24331253Y-965798D01*
X24339385Y-1006827D01*
X24344610Y-1031875D01*
X24345857Y-1052841D01*
X24347066Y-1101772D01*
X24348194Y-1174882D01*
X24349201Y-1268385D01*
X24350044Y-1378496D01*
X24350682Y-1501428D01*
X24351036Y-1615281D01*
X24352250Y-2174875D01*
X24685625Y-2174875D01*
X24685625Y-254000D01*
X24352250Y-254000D01*
X24352250Y-405749D01*
X24350682Y-482539D01*
X24346064Y-530353D01*
X24338531Y-548015D01*
X24336117Y-547527D01*
X24325795Y-530330D01*
X24327330Y-525668D01*
X24322478Y-507494D01*
X24301124Y-477826D01*
X24295196Y-471202D01*
X24272091Y-443814D01*
X24264328Y-429316D01*
X24265429Y-428624D01*
X24265147Y-421115D01*
X24241179Y-397936D01*
X24192466Y-358110D01*
X24169296Y-339997D01*
X24094024Y-294560D01*
X24000377Y-256980D01*
X23901563Y-231849D01*
X23835939Y-224100D01*
X23756191Y-220277D01*
X23756734Y-386797D01*
X23756734Y-386797D01*
G37*
X23756734Y-386797D02*
X23757682Y-456254D01*
X23759819Y-513142D01*
X23762799Y-550469D01*
X23765354Y-561395D01*
X23784554Y-567659D01*
X23824577Y-574685D01*
X23852497Y-578223D01*
X23913552Y-585658D01*
X23955616Y-593307D01*
X23991339Y-604009D01*
X24023878Y-616685D01*
X24057350Y-629626D01*
X24075007Y-635000D01*
X24090433Y-643386D01*
X24123461Y-665017D01*
X24153751Y-685964D01*
X24196013Y-721557D01*
X24237339Y-765688D01*
X24270947Y-809964D01*
X24290058Y-845990D01*
X24292122Y-857250D01*
X24298534Y-876072D01*
X24307495Y-894361D01*
X24322711Y-932930D01*
X24331253Y-965798D01*
X24339385Y-1006827D01*
X24344610Y-1031875D01*
X24345857Y-1052841D01*
X24347066Y-1101772D01*
X24348194Y-1174882D01*
X24349201Y-1268385D01*
X24350044Y-1378496D01*
X24350682Y-1501428D01*
X24351036Y-1615281D01*
X24352250Y-2174875D01*
X24685625Y-2174875D01*
X24685625Y-254000D01*
X24352250Y-254000D01*
X24352250Y-405749D01*
X24350682Y-482539D01*
X24346064Y-530353D01*
X24338531Y-548015D01*
X24336117Y-547527D01*
X24325795Y-530330D01*
X24327330Y-525668D01*
X24322478Y-507494D01*
X24301124Y-477826D01*
X24295196Y-471202D01*
X24272091Y-443814D01*
X24264328Y-429316D01*
X24265429Y-428624D01*
X24265147Y-421115D01*
X24241179Y-397936D01*
X24192466Y-358110D01*
X24169296Y-339997D01*
X24094024Y-294560D01*
X24000377Y-256980D01*
X23901563Y-231849D01*
X23835939Y-224100D01*
X23756191Y-220277D01*
X23756734Y-386797D01*
G36*
X23098125Y-2174875D02*
X23439504Y-2174875D01*
X23439504Y-254000D01*
X23098125Y-254000D01*
X23098125Y-2174875D01*
X23098125Y-2174875D01*
G37*
X23098125Y-2174875D02*
X23439504Y-2174875D01*
X23439504Y-254000D01*
X23098125Y-254000D01*
X23098125Y-2174875D01*
G36*
X21209000Y-365340D02*
X21212513Y-442132D01*
X21225433Y-499279D01*
X21251338Y-548343D01*
X21275204Y-579437D01*
X21298609Y-609695D01*
X21334679Y-658866D01*
X21378194Y-719630D01*
X21423937Y-784665D01*
X21466690Y-846649D01*
X21485547Y-874558D01*
X21516058Y-917115D01*
X21544338Y-951850D01*
X21550046Y-957902D01*
X21566268Y-977867D01*
X21565677Y-984250D01*
X21568669Y-994741D01*
X21588261Y-1021458D01*
X21604231Y-1040364D01*
X21633402Y-1075838D01*
X21651074Y-1101670D01*
X21653500Y-1107995D01*
X21663335Y-1126117D01*
X21687613Y-1156163D01*
X21693830Y-1163005D01*
X21716845Y-1190694D01*
X21724095Y-1205646D01*
X21722610Y-1206500D01*
X21725101Y-1216453D01*
X21745000Y-1241492D01*
X21756688Y-1254125D01*
X21782070Y-1283172D01*
X21792070Y-1300035D01*
X21790603Y-1301750D01*
X21793140Y-1311865D01*
X21812962Y-1337495D01*
X21827247Y-1353343D01*
X21856743Y-1388533D01*
X21873907Y-1416205D01*
X21875677Y-1422837D01*
X21886794Y-1446769D01*
X21901129Y-1461799D01*
X21921931Y-1484696D01*
X21953749Y-1525996D01*
X21990302Y-1577477D01*
X21996618Y-1586774D01*
X22039452Y-1649021D01*
X22084208Y-1712112D01*
X22120999Y-1762125D01*
X22150878Y-1803184D01*
X22171036Y-1834176D01*
X22176322Y-1845468D01*
X22161339Y-1848369D01*
X22118366Y-1851014D01*
X22051164Y-1853315D01*
X21963491Y-1855183D01*
X21859108Y-1856529D01*
X21741775Y-1857263D01*
X21672936Y-1857375D01*
X21168496Y-1857375D01*
X21169108Y-2012156D01*
X21169719Y-2166937D01*
X21908220Y-2171061D01*
X22646721Y-2175184D01*
X22645668Y-2059936D01*
X22641040Y-1981502D01*
X22625541Y-1920828D01*
X22594243Y-1865523D01*
X22544576Y-1805781D01*
X22522467Y-1778004D01*
X22516729Y-1762989D01*
X22518688Y-1762125D01*
X22518400Y-1752065D01*
X22500482Y-1727052D01*
X22492967Y-1718468D01*
X22457866Y-1675744D01*
X22421374Y-1625560D01*
X22414591Y-1615389D01*
X22388760Y-1579506D01*
X22368831Y-1558299D01*
X22363907Y-1555858D01*
X22352500Y-1543378D01*
X22352000Y-1538417D01*
X22344859Y-1518136D01*
X22322038Y-1482845D01*
X22281439Y-1429563D01*
X22235262Y-1372603D01*
X22210645Y-1340067D01*
X22199949Y-1320343D01*
X22201188Y-1317625D01*
X22198988Y-1306892D01*
X22180599Y-1279685D01*
X22167114Y-1262646D01*
X22110940Y-1192995D01*
X22074206Y-1143694D01*
X22054813Y-1111765D01*
X22050375Y-1096832D01*
X22041874Y-1080149D01*
X22038469Y-1079391D01*
X22023374Y-1067204D01*
X21999181Y-1036587D01*
X21987785Y-1019860D01*
X21953019Y-970697D01*
X21916314Y-924612D01*
X21909409Y-916781D01*
X21887392Y-888982D01*
X21881733Y-873978D01*
X21883688Y-873125D01*
X21883400Y-863065D01*
X21865482Y-838052D01*
X21857967Y-829468D01*
X21822866Y-786744D01*
X21786374Y-736560D01*
X21779591Y-726389D01*
X21753760Y-690506D01*
X21733831Y-669299D01*
X21728907Y-666858D01*
X21717660Y-654249D01*
X21717000Y-648156D01*
X21707181Y-622836D01*
X21690728Y-600531D01*
X21684352Y-592243D01*
X21684040Y-585703D01*
X21692955Y-580704D01*
X21714258Y-577039D01*
X21751115Y-574502D01*
X21806686Y-572887D01*
X21884135Y-571985D01*
X21986625Y-571592D01*
X22117318Y-571500D01*
X22606000Y-571500D01*
X22606000Y-254000D01*
X21209000Y-254000D01*
X21209000Y-365340D01*
X21209000Y-365340D01*
G37*
X21209000Y-365340D02*
X21212513Y-442132D01*
X21225433Y-499279D01*
X21251338Y-548343D01*
X21275204Y-579437D01*
X21298609Y-609695D01*
X21334679Y-658866D01*
X21378194Y-719630D01*
X21423937Y-784665D01*
X21466690Y-846649D01*
X21485547Y-874558D01*
X21516058Y-917115D01*
X21544338Y-951850D01*
X21550046Y-957902D01*
X21566268Y-977867D01*
X21565677Y-984250D01*
X21568669Y-994741D01*
X21588261Y-1021458D01*
X21604231Y-1040364D01*
X21633402Y-1075838D01*
X21651074Y-1101670D01*
X21653500Y-1107995D01*
X21663335Y-1126117D01*
X21687613Y-1156163D01*
X21693830Y-1163005D01*
X21716845Y-1190694D01*
X21724095Y-1205646D01*
X21722610Y-1206500D01*
X21725101Y-1216453D01*
X21745000Y-1241492D01*
X21756688Y-1254125D01*
X21782070Y-1283172D01*
X21792070Y-1300035D01*
X21790603Y-1301750D01*
X21793140Y-1311865D01*
X21812962Y-1337495D01*
X21827247Y-1353343D01*
X21856743Y-1388533D01*
X21873907Y-1416205D01*
X21875677Y-1422837D01*
X21886794Y-1446769D01*
X21901129Y-1461799D01*
X21921931Y-1484696D01*
X21953749Y-1525996D01*
X21990302Y-1577477D01*
X21996618Y-1586774D01*
X22039452Y-1649021D01*
X22084208Y-1712112D01*
X22120999Y-1762125D01*
X22150878Y-1803184D01*
X22171036Y-1834176D01*
X22176322Y-1845468D01*
X22161339Y-1848369D01*
X22118366Y-1851014D01*
X22051164Y-1853315D01*
X21963491Y-1855183D01*
X21859108Y-1856529D01*
X21741775Y-1857263D01*
X21672936Y-1857375D01*
X21168496Y-1857375D01*
X21169108Y-2012156D01*
X21169719Y-2166937D01*
X21908220Y-2171061D01*
X22646721Y-2175184D01*
X22645668Y-2059936D01*
X22641040Y-1981502D01*
X22625541Y-1920828D01*
X22594243Y-1865523D01*
X22544576Y-1805781D01*
X22522467Y-1778004D01*
X22516729Y-1762989D01*
X22518688Y-1762125D01*
X22518400Y-1752065D01*
X22500482Y-1727052D01*
X22492967Y-1718468D01*
X22457866Y-1675744D01*
X22421374Y-1625560D01*
X22414591Y-1615389D01*
X22388760Y-1579506D01*
X22368831Y-1558299D01*
X22363907Y-1555858D01*
X22352500Y-1543378D01*
X22352000Y-1538417D01*
X22344859Y-1518136D01*
X22322038Y-1482845D01*
X22281439Y-1429563D01*
X22235262Y-1372603D01*
X22210645Y-1340067D01*
X22199949Y-1320343D01*
X22201188Y-1317625D01*
X22198988Y-1306892D01*
X22180599Y-1279685D01*
X22167114Y-1262646D01*
X22110940Y-1192995D01*
X22074206Y-1143694D01*
X22054813Y-1111765D01*
X22050375Y-1096832D01*
X22041874Y-1080149D01*
X22038469Y-1079391D01*
X22023374Y-1067204D01*
X21999181Y-1036587D01*
X21987785Y-1019860D01*
X21953019Y-970697D01*
X21916314Y-924612D01*
X21909409Y-916781D01*
X21887392Y-888982D01*
X21881733Y-873978D01*
X21883688Y-873125D01*
X21883400Y-863065D01*
X21865482Y-838052D01*
X21857967Y-829468D01*
X21822866Y-786744D01*
X21786374Y-736560D01*
X21779591Y-726389D01*
X21753760Y-690506D01*
X21733831Y-669299D01*
X21728907Y-666858D01*
X21717660Y-654249D01*
X21717000Y-648156D01*
X21707181Y-622836D01*
X21690728Y-600531D01*
X21684352Y-592243D01*
X21684040Y-585703D01*
X21692955Y-580704D01*
X21714258Y-577039D01*
X21751115Y-574502D01*
X21806686Y-572887D01*
X21884135Y-571985D01*
X21986625Y-571592D01*
X22117318Y-571500D01*
X22606000Y-571500D01*
X22606000Y-254000D01*
X21209000Y-254000D01*
X21209000Y-365340D01*
G36*
X19446875Y-367450D02*
X19448458Y-430971D01*
X19455662Y-476007D01*
X19472170Y-515763D01*
X19501455Y-563128D01*
X19534593Y-610421D01*
X19564474Y-648624D01*
X19580830Y-665933D01*
X19601471Y-691013D01*
X19605699Y-704412D01*
X19615836Y-726093D01*
X19641255Y-759526D01*
X19654129Y-773906D01*
X19680504Y-804497D01*
X19692022Y-822994D01*
X19690773Y-825500D01*
X19693161Y-835449D01*
X19712996Y-860480D01*
X19724688Y-873125D01*
X19750108Y-902176D01*
X19760190Y-919038D01*
X19758766Y-920750D01*
X19760701Y-930767D01*
X19779827Y-955675D01*
X19787546Y-964244D01*
X19813865Y-995437D01*
X19827394Y-1016959D01*
X19827875Y-1019254D01*
X19837503Y-1037037D01*
X19861907Y-1068962D01*
X19877145Y-1086885D01*
X19903997Y-1119490D01*
X19917248Y-1139731D01*
X19916938Y-1143000D01*
X19919106Y-1153188D01*
X19937448Y-1177794D01*
X19938242Y-1178718D01*
X19956833Y-1201163D01*
X19978578Y-1229515D01*
X20006832Y-1268432D01*
X20044952Y-1322571D01*
X20096294Y-1396587D01*
X20119502Y-1430218D01*
X20156803Y-1482476D01*
X20190132Y-1525942D01*
X20213291Y-1552597D01*
X20216143Y-1555193D01*
X20236614Y-1580230D01*
X20240699Y-1593412D01*
X20250836Y-1615093D01*
X20276255Y-1648526D01*
X20289129Y-1662906D01*
X20315504Y-1693497D01*
X20327022Y-1711994D01*
X20325773Y-1714500D01*
X20328161Y-1724449D01*
X20347996Y-1749480D01*
X20359688Y-1762125D01*
X20384808Y-1791140D01*
X20394234Y-1808013D01*
X20392464Y-1809750D01*
X20390148Y-1819461D01*
X20399188Y-1833337D01*
X20401647Y-1839934D01*
X20394936Y-1845272D01*
X20376067Y-1849520D01*
X20342050Y-1852849D01*
X20289895Y-1855432D01*
X20216611Y-1857437D01*
X20119210Y-1859037D01*
X19994700Y-1860402D01*
X19913177Y-1861118D01*
X19407590Y-1865312D01*
X19406980Y-2020093D01*
X19406371Y-2174875D01*
X20894862Y-2174875D01*
X20889213Y-2050521D01*
X20885131Y-1985467D01*
X20877953Y-1941928D01*
X20864478Y-1909670D01*
X20841508Y-1878458D01*
X20831969Y-1867406D01*
X20802026Y-1831151D01*
X20783410Y-1804467D01*
X20780375Y-1797129D01*
X20770541Y-1779007D01*
X20746263Y-1748961D01*
X20740046Y-1742119D01*
X20717031Y-1714430D01*
X20709781Y-1699478D01*
X20711266Y-1698625D01*
X20709475Y-1688501D01*
X20690664Y-1663349D01*
X20683291Y-1654968D01*
X20650731Y-1614925D01*
X20613626Y-1563614D01*
X20597813Y-1539875D01*
X20562698Y-1488795D01*
X20526501Y-1441407D01*
X20512335Y-1424781D01*
X20489587Y-1396884D01*
X20482279Y-1381926D01*
X20483613Y-1381125D01*
X20482390Y-1370975D01*
X20464529Y-1346449D01*
X20463634Y-1345406D01*
X20431723Y-1306022D01*
X20391589Y-1251939D01*
X20340203Y-1178962D01*
X20282501Y-1094649D01*
X20245615Y-1042286D01*
X20212417Y-998667D01*
X20189198Y-971990D01*
X20186629Y-969674D01*
X20165676Y-944512D01*
X20161177Y-930712D01*
X20151040Y-909031D01*
X20125621Y-875598D01*
X20112747Y-861218D01*
X20086372Y-830627D01*
X20074854Y-812130D01*
X20076103Y-809625D01*
X20074419Y-799505D01*
X20055671Y-774361D01*
X20048291Y-765968D01*
X20017336Y-728561D01*
X19983613Y-683043D01*
X19952856Y-637819D01*
X19930801Y-601292D01*
X19923125Y-582552D01*
X19938343Y-579738D01*
X19981362Y-577188D01*
X20048239Y-574997D01*
X20135025Y-573259D01*
X20237774Y-572070D01*
X20352539Y-571524D01*
X20383500Y-571500D01*
X20843875Y-571500D01*
X20843875Y-254000D01*
X19446875Y-254000D01*
X19446875Y-367450D01*
X19446875Y-367450D01*
G37*
X19446875Y-367450D02*
X19448458Y-430971D01*
X19455662Y-476007D01*
X19472170Y-515763D01*
X19501455Y-563128D01*
X19534593Y-610421D01*
X19564474Y-648624D01*
X19580830Y-665933D01*
X19601471Y-691013D01*
X19605699Y-704412D01*
X19615836Y-726093D01*
X19641255Y-759526D01*
X19654129Y-773906D01*
X19680504Y-804497D01*
X19692022Y-822994D01*
X19690773Y-825500D01*
X19693161Y-835449D01*
X19712996Y-860480D01*
X19724688Y-873125D01*
X19750108Y-902176D01*
X19760190Y-919038D01*
X19758766Y-920750D01*
X19760701Y-930767D01*
X19779827Y-955675D01*
X19787546Y-964244D01*
X19813865Y-995437D01*
X19827394Y-1016959D01*
X19827875Y-1019254D01*
X19837503Y-1037037D01*
X19861907Y-1068962D01*
X19877145Y-1086885D01*
X19903997Y-1119490D01*
X19917248Y-1139731D01*
X19916938Y-1143000D01*
X19919106Y-1153188D01*
X19937448Y-1177794D01*
X19938242Y-1178718D01*
X19956833Y-1201163D01*
X19978578Y-1229515D01*
X20006832Y-1268432D01*
X20044952Y-1322571D01*
X20096294Y-1396587D01*
X20119502Y-1430218D01*
X20156803Y-1482476D01*
X20190132Y-1525942D01*
X20213291Y-1552597D01*
X20216143Y-1555193D01*
X20236614Y-1580230D01*
X20240699Y-1593412D01*
X20250836Y-1615093D01*
X20276255Y-1648526D01*
X20289129Y-1662906D01*
X20315504Y-1693497D01*
X20327022Y-1711994D01*
X20325773Y-1714500D01*
X20328161Y-1724449D01*
X20347996Y-1749480D01*
X20359688Y-1762125D01*
X20384808Y-1791140D01*
X20394234Y-1808013D01*
X20392464Y-1809750D01*
X20390148Y-1819461D01*
X20399188Y-1833337D01*
X20401647Y-1839934D01*
X20394936Y-1845272D01*
X20376067Y-1849520D01*
X20342050Y-1852849D01*
X20289895Y-1855432D01*
X20216611Y-1857437D01*
X20119210Y-1859037D01*
X19994700Y-1860402D01*
X19913177Y-1861118D01*
X19407590Y-1865312D01*
X19406980Y-2020093D01*
X19406371Y-2174875D01*
X20894862Y-2174875D01*
X20889213Y-2050521D01*
X20885131Y-1985467D01*
X20877953Y-1941928D01*
X20864478Y-1909670D01*
X20841508Y-1878458D01*
X20831969Y-1867406D01*
X20802026Y-1831151D01*
X20783410Y-1804467D01*
X20780375Y-1797129D01*
X20770541Y-1779007D01*
X20746263Y-1748961D01*
X20740046Y-1742119D01*
X20717031Y-1714430D01*
X20709781Y-1699478D01*
X20711266Y-1698625D01*
X20709475Y-1688501D01*
X20690664Y-1663349D01*
X20683291Y-1654968D01*
X20650731Y-1614925D01*
X20613626Y-1563614D01*
X20597813Y-1539875D01*
X20562698Y-1488795D01*
X20526501Y-1441407D01*
X20512335Y-1424781D01*
X20489587Y-1396884D01*
X20482279Y-1381926D01*
X20483613Y-1381125D01*
X20482390Y-1370975D01*
X20464529Y-1346449D01*
X20463634Y-1345406D01*
X20431723Y-1306022D01*
X20391589Y-1251939D01*
X20340203Y-1178962D01*
X20282501Y-1094649D01*
X20245615Y-1042286D01*
X20212417Y-998667D01*
X20189198Y-971990D01*
X20186629Y-969674D01*
X20165676Y-944512D01*
X20161177Y-930712D01*
X20151040Y-909031D01*
X20125621Y-875598D01*
X20112747Y-861218D01*
X20086372Y-830627D01*
X20074854Y-812130D01*
X20076103Y-809625D01*
X20074419Y-799505D01*
X20055671Y-774361D01*
X20048291Y-765968D01*
X20017336Y-728561D01*
X19983613Y-683043D01*
X19952856Y-637819D01*
X19930801Y-601292D01*
X19923125Y-582552D01*
X19938343Y-579738D01*
X19981362Y-577188D01*
X20048239Y-574997D01*
X20135025Y-573259D01*
X20237774Y-572070D01*
X20352539Y-571524D01*
X20383500Y-571500D01*
X20843875Y-571500D01*
X20843875Y-254000D01*
X19446875Y-254000D01*
X19446875Y-367450D01*
G36*
X14351000Y-2071687D02*
X14358938Y-2079625D01*
X14366875Y-2071687D01*
X14358938Y-2063750D01*
X14351000Y-2071687D01*
X14351000Y-2071687D01*
G37*
X14351000Y-2071687D02*
X14358938Y-2079625D01*
X14366875Y-2071687D01*
X14358938Y-2063750D01*
X14351000Y-2071687D01*
G36*
X14986000Y-1690687D02*
X14993938Y-1698625D01*
X15001875Y-1690687D01*
X14993938Y-1682750D01*
X14986000Y-1690687D01*
X14986000Y-1690687D01*
G37*
X14986000Y-1690687D02*
X14993938Y-1698625D01*
X15001875Y-1690687D01*
X14993938Y-1682750D01*
X14986000Y-1690687D01*
G36*
X14224000Y-293687D02*
X14231938Y-301625D01*
X14239875Y-293687D01*
X14231938Y-285750D01*
X14224000Y-293687D01*
X14224000Y-293687D01*
G37*
X14224000Y-293687D02*
X14231938Y-301625D01*
X14239875Y-293687D01*
X14231938Y-285750D01*
X14224000Y-293687D01*
G36*
X23212419Y533697D02*
X23177254Y523331D01*
X23143302Y498659D01*
X23115333Y471995D01*
X23075875Y430166D01*
X23055072Y396636D01*
X23047474Y359041D01*
X23047247Y317500D01*
X23052025Y254565D01*
X23065409Y210608D01*
X23092237Y173081D01*
X23109905Y155027D01*
X23148552Y122900D01*
X23187362Y107115D01*
X23241572Y101657D01*
X23245420Y101534D01*
X23297526Y101567D01*
X23338645Y104411D01*
X23352125Y107034D01*
X23394711Y132912D01*
X23438513Y176852D01*
X23473537Y227209D01*
X23488952Y266423D01*
X23491167Y311527D01*
X23484759Y361695D01*
X23472235Y406967D01*
X23456106Y437383D01*
X23444092Y444500D01*
X23433678Y450700D01*
X23436036Y454328D01*
X23434857Y471516D01*
X23426162Y482109D01*
X23376687Y515746D01*
X23316141Y532256D01*
X23262177Y535546D01*
X23212419Y533697D01*
X23212419Y533697D01*
G37*
X23212419Y533697D02*
X23177254Y523331D01*
X23143302Y498659D01*
X23115333Y471995D01*
X23075875Y430166D01*
X23055072Y396636D01*
X23047474Y359041D01*
X23047247Y317500D01*
X23052025Y254565D01*
X23065409Y210608D01*
X23092237Y173081D01*
X23109905Y155027D01*
X23148552Y122900D01*
X23187362Y107115D01*
X23241572Y101657D01*
X23245420Y101534D01*
X23297526Y101567D01*
X23338645Y104411D01*
X23352125Y107034D01*
X23394711Y132912D01*
X23438513Y176852D01*
X23473537Y227209D01*
X23488952Y266423D01*
X23491167Y311527D01*
X23484759Y361695D01*
X23472235Y406967D01*
X23456106Y437383D01*
X23444092Y444500D01*
X23433678Y450700D01*
X23436036Y454328D01*
X23434857Y471516D01*
X23426162Y482109D01*
X23376687Y515746D01*
X23316141Y532256D01*
X23262177Y535546D01*
X23212419Y533697D01*
M02*
