%TF.GenerationSoftware,KiCad,Pcbnew,4.0.7*%
%TF.CreationDate,2018-07-15T20:14:49+02:00*%
%TF.ProjectId,KeyPad,4B65795061642E6B696361645F706362,v1.0*%
%TF.FileFunction,Legend,Top*%
%FSLAX46Y46*%
G04 Gerber Fmt 4.6, Leading zero omitted, Abs format (unit mm)*
G04 Created by KiCad (PCBNEW 4.0.7) date 07/15/18 20:14:49*
%MOMM*%
%LPD*%
G01*
G04 APERTURE LIST*
%ADD10C,0.127000*%
%ADD11C,0.150000*%
%ADD12C,0.010000*%
G04 APERTURE END LIST*
D10*
X18048257Y-34599485D02*
X18076829Y-34513771D01*
X18076829Y-34370914D01*
X18048257Y-34313771D01*
X18019686Y-34285200D01*
X17962543Y-34256628D01*
X17905400Y-34256628D01*
X17848257Y-34285200D01*
X17819686Y-34313771D01*
X17791114Y-34370914D01*
X17762543Y-34485200D01*
X17733971Y-34542342D01*
X17705400Y-34570914D01*
X17648257Y-34599485D01*
X17591114Y-34599485D01*
X17533971Y-34570914D01*
X17505400Y-34542342D01*
X17476829Y-34485200D01*
X17476829Y-34342342D01*
X17505400Y-34256628D01*
X18076829Y-33999485D02*
X17476829Y-33999485D01*
X17505400Y-33399485D02*
X17476829Y-33456628D01*
X17476829Y-33542342D01*
X17505400Y-33628057D01*
X17562543Y-33685199D01*
X17619686Y-33713771D01*
X17733971Y-33742342D01*
X17819686Y-33742342D01*
X17933971Y-33713771D01*
X17991114Y-33685199D01*
X18048257Y-33628057D01*
X18076829Y-33542342D01*
X18076829Y-33485199D01*
X18048257Y-33399485D01*
X18019686Y-33370914D01*
X17819686Y-33370914D01*
X17819686Y-33485199D01*
X19350929Y-34836000D02*
X19950929Y-34636000D01*
X19350929Y-34436000D01*
X19893786Y-33893143D02*
X19922357Y-33921714D01*
X19950929Y-34007428D01*
X19950929Y-34064571D01*
X19922357Y-34150286D01*
X19865214Y-34207428D01*
X19808071Y-34236000D01*
X19693786Y-34264571D01*
X19608071Y-34264571D01*
X19493786Y-34236000D01*
X19436643Y-34207428D01*
X19379500Y-34150286D01*
X19350929Y-34064571D01*
X19350929Y-34007428D01*
X19379500Y-33921714D01*
X19408071Y-33893143D01*
X19893786Y-33293143D02*
X19922357Y-33321714D01*
X19950929Y-33407428D01*
X19950929Y-33464571D01*
X19922357Y-33550286D01*
X19865214Y-33607428D01*
X19808071Y-33636000D01*
X19693786Y-33664571D01*
X19608071Y-33664571D01*
X19493786Y-33636000D01*
X19436643Y-33607428D01*
X19379500Y-33550286D01*
X19350929Y-33464571D01*
X19350929Y-33407428D01*
X19379500Y-33321714D01*
X19408071Y-33293143D01*
X21467800Y-34493142D02*
X21439229Y-34550285D01*
X21439229Y-34635999D01*
X21467800Y-34721714D01*
X21524943Y-34778856D01*
X21582086Y-34807428D01*
X21696371Y-34835999D01*
X21782086Y-34835999D01*
X21896371Y-34807428D01*
X21953514Y-34778856D01*
X22010657Y-34721714D01*
X22039229Y-34635999D01*
X22039229Y-34578856D01*
X22010657Y-34493142D01*
X21982086Y-34464571D01*
X21782086Y-34464571D01*
X21782086Y-34578856D01*
X22039229Y-34207428D02*
X21439229Y-34207428D01*
X22039229Y-33864571D01*
X21439229Y-33864571D01*
X22039229Y-33578857D02*
X21439229Y-33578857D01*
X21439229Y-33436000D01*
X21467800Y-33350285D01*
X21524943Y-33293143D01*
X21582086Y-33264571D01*
X21696371Y-33236000D01*
X21782086Y-33236000D01*
X21896371Y-33264571D01*
X21953514Y-33293143D01*
X22010657Y-33350285D01*
X22039229Y-33436000D01*
X22039229Y-33578857D01*
D11*
X34932050Y-8128000D02*
G75*
G03X34932050Y-8128000I-4579050J0D01*
G01*
X21372744Y-8128000D02*
X30353000Y852256D01*
X30353000Y852256D02*
X39333256Y-8128000D01*
X39333256Y-8128000D02*
X30353000Y-17108256D01*
X30353000Y-17108256D02*
X21372744Y-8128000D01*
X13088050Y-8128000D02*
G75*
G03X13088050Y-8128000I-4579050J0D01*
G01*
X-471256Y-8128000D02*
X8509000Y852256D01*
X8509000Y852256D02*
X17489256Y-8128000D01*
X17489256Y-8128000D02*
X8509000Y-17108256D01*
X8509000Y-17108256D02*
X-471256Y-8128000D01*
X4078000Y-20031000D02*
X4078000Y-18831000D01*
X5828000Y-18831000D02*
X5828000Y-20031000D01*
X3288000Y-18831000D02*
X3288000Y-20031000D01*
X1538000Y-20031000D02*
X1538000Y-18831000D01*
X37578000Y-18831000D02*
X37578000Y-20031000D01*
X35828000Y-20031000D02*
X35828000Y-18831000D01*
X33288000Y-20031000D02*
X33288000Y-18831000D01*
X35038000Y-18831000D02*
X35038000Y-20031000D01*
X13088050Y-29972000D02*
G75*
G03X13088050Y-29972000I-4579050J0D01*
G01*
X-471256Y-29972000D02*
X8509000Y-20991744D01*
X8509000Y-20991744D02*
X17489256Y-29972000D01*
X17489256Y-29972000D02*
X8509000Y-38952256D01*
X8509000Y-38952256D02*
X-471256Y-29972000D01*
X34932050Y-29972000D02*
G75*
G03X34932050Y-29972000I-4579050J0D01*
G01*
X21372744Y-29972000D02*
X30353000Y-20991744D01*
X30353000Y-20991744D02*
X39333256Y-29972000D01*
X39333256Y-29972000D02*
X30353000Y-38952256D01*
X30353000Y-38952256D02*
X21372744Y-29972000D01*
D12*
G36*
X19512281Y-12370309D02*
X19579253Y-12372062D01*
X19631710Y-12375859D01*
X19676506Y-12382457D01*
X19720492Y-12392612D01*
X19770520Y-12407082D01*
X19775853Y-12408713D01*
X19962024Y-12480392D01*
X20143626Y-12579553D01*
X20320368Y-12705784D01*
X20491959Y-12858672D01*
X20658110Y-13037804D01*
X20818531Y-13242767D01*
X20972930Y-13473147D01*
X21121017Y-13728533D01*
X21262503Y-14008509D01*
X21397097Y-14312665D01*
X21524508Y-14640586D01*
X21644446Y-14991860D01*
X21686702Y-15127112D01*
X21710484Y-15202919D01*
X21732214Y-15268155D01*
X21750351Y-15318502D01*
X21763350Y-15349641D01*
X21769107Y-15357812D01*
X21785910Y-15354091D01*
X21825618Y-15345061D01*
X21883641Y-15331772D01*
X21955391Y-15315275D01*
X22029740Y-15298131D01*
X22439592Y-15212403D01*
X22838313Y-15146875D01*
X23004627Y-15125186D01*
X23116415Y-15114062D01*
X23244590Y-15105115D01*
X23383646Y-15098418D01*
X23528079Y-15094042D01*
X23672384Y-15092059D01*
X23811056Y-15092542D01*
X23938590Y-15095562D01*
X24049480Y-15101191D01*
X24138222Y-15109502D01*
X24144112Y-15110274D01*
X24394254Y-15152109D01*
X24620521Y-15207417D01*
X24824099Y-15276691D01*
X25006175Y-15360425D01*
X25167934Y-15459111D01*
X25310562Y-15573244D01*
X25352168Y-15612922D01*
X25474575Y-15753533D01*
X25572153Y-15906658D01*
X25645076Y-16071718D01*
X25693516Y-16248138D01*
X25717648Y-16435340D01*
X25717646Y-16632748D01*
X25693683Y-16839785D01*
X25645934Y-17055875D01*
X25574571Y-17280440D01*
X25479769Y-17512904D01*
X25361701Y-17752691D01*
X25220542Y-17999223D01*
X25056464Y-18251924D01*
X24869643Y-18510217D01*
X24660250Y-18773525D01*
X24428461Y-19041272D01*
X24266296Y-19216964D01*
X24212088Y-19274874D01*
X24165401Y-19325840D01*
X24129419Y-19366297D01*
X24107324Y-19392682D01*
X24101778Y-19401167D01*
X24111159Y-19415997D01*
X24135086Y-19442523D01*
X24152711Y-19459982D01*
X24180992Y-19488240D01*
X24223185Y-19531967D01*
X24274169Y-19585790D01*
X24328825Y-19644335D01*
X24344269Y-19661036D01*
X24484895Y-19813461D01*
X24402697Y-19867259D01*
X24353144Y-19902290D01*
X24307008Y-19939242D01*
X24278760Y-19965614D01*
X24237019Y-20010172D01*
X24051630Y-19815895D01*
X23866240Y-19621619D01*
X23705315Y-19770768D01*
X23349878Y-20087305D01*
X22968058Y-20402453D01*
X22558961Y-20716949D01*
X22535117Y-20734637D01*
X22436492Y-20807620D01*
X22358134Y-20865714D01*
X22297724Y-20910954D01*
X22252942Y-20945375D01*
X22221469Y-20971009D01*
X22200987Y-20989892D01*
X22189177Y-21004057D01*
X22183718Y-21015539D01*
X22182293Y-21026372D01*
X22182581Y-21038590D01*
X22182658Y-21043796D01*
X22180425Y-21095104D01*
X22174078Y-21170477D01*
X22164123Y-21266141D01*
X22151067Y-21378319D01*
X22135417Y-21503237D01*
X22117679Y-21637119D01*
X22098359Y-21776188D01*
X22077966Y-21916671D01*
X22057004Y-22054791D01*
X22035980Y-22186773D01*
X22015402Y-22308841D01*
X22005233Y-22366112D01*
X21988810Y-22454223D01*
X21969819Y-22551965D01*
X21949261Y-22654571D01*
X21928140Y-22757274D01*
X21907461Y-22855306D01*
X21888226Y-22943901D01*
X21871439Y-23018291D01*
X21858103Y-23073709D01*
X21850335Y-23102008D01*
X21851323Y-23112611D01*
X21863999Y-23122732D01*
X21892214Y-23133835D01*
X21939819Y-23147384D01*
X22010663Y-23164846D01*
X22023413Y-23167865D01*
X22321241Y-23234117D01*
X22599093Y-23287247D01*
X22861674Y-23327821D01*
X23113688Y-23356410D01*
X23359838Y-23373582D01*
X23604829Y-23379905D01*
X23765841Y-23378463D01*
X23929961Y-23373054D01*
X24072139Y-23364082D01*
X24198515Y-23350749D01*
X24315235Y-23332257D01*
X24428440Y-23307806D01*
X24540231Y-23277778D01*
X24724560Y-23212968D01*
X24888856Y-23132047D01*
X25032074Y-23035937D01*
X25153168Y-22925561D01*
X25251093Y-22801841D01*
X25324805Y-22665700D01*
X25365343Y-22549556D01*
X25389887Y-22416849D01*
X25397294Y-22266682D01*
X25387759Y-22103868D01*
X25361478Y-21933220D01*
X25335844Y-21821678D01*
X25321041Y-21763677D01*
X25309408Y-21716146D01*
X25302503Y-21685552D01*
X25301276Y-21678018D01*
X25313166Y-21667050D01*
X25343327Y-21650909D01*
X25363573Y-21642016D01*
X25411192Y-21619941D01*
X25467389Y-21590418D01*
X25502914Y-21569997D01*
X25580010Y-21523572D01*
X25623764Y-21666147D01*
X25659733Y-21790181D01*
X25685512Y-21897689D01*
X25702533Y-21997866D01*
X25712226Y-22099904D01*
X25716021Y-22212997D01*
X25716216Y-22260278D01*
X25714209Y-22373560D01*
X25707658Y-22467517D01*
X25695026Y-22550885D01*
X25674775Y-22632401D01*
X25645368Y-22720802D01*
X25626243Y-22771627D01*
X25550552Y-22928676D01*
X25450197Y-23073801D01*
X25326522Y-23206035D01*
X25180872Y-23324408D01*
X25014591Y-23427952D01*
X24829024Y-23515699D01*
X24625515Y-23586681D01*
X24426334Y-23635793D01*
X24329808Y-23654551D01*
X24243457Y-23669309D01*
X24161717Y-23680517D01*
X24079024Y-23688624D01*
X23989812Y-23694081D01*
X23888518Y-23697337D01*
X23769577Y-23698841D01*
X23643167Y-23699070D01*
X23416546Y-23695453D01*
X23199343Y-23684752D01*
X22985570Y-23666232D01*
X22769238Y-23639155D01*
X22544357Y-23602786D01*
X22304939Y-23556388D01*
X22076834Y-23506533D01*
X21994176Y-23487688D01*
X21919547Y-23470723D01*
X21857906Y-23456761D01*
X21814210Y-23446926D01*
X21794028Y-23442468D01*
X21779152Y-23442554D01*
X21766994Y-23453308D01*
X21754835Y-23479620D01*
X21739954Y-23526381D01*
X21732070Y-23553890D01*
X21640618Y-23856097D01*
X21538831Y-24152385D01*
X21428153Y-24439570D01*
X21310027Y-24714472D01*
X21185896Y-24973908D01*
X21057203Y-25214696D01*
X20925392Y-25433654D01*
X20791907Y-25627600D01*
X20790766Y-25629137D01*
X20627366Y-25831891D01*
X20458621Y-26007592D01*
X20284757Y-26156067D01*
X20105997Y-26277142D01*
X19922565Y-26370644D01*
X19755556Y-26430532D01*
X19678944Y-26447146D01*
X19584600Y-26459199D01*
X19481109Y-26466370D01*
X19377057Y-26468340D01*
X19281029Y-26464788D01*
X19201610Y-26455397D01*
X19184056Y-26451802D01*
X18996290Y-26395294D01*
X18814858Y-26313661D01*
X18639170Y-26206429D01*
X18468637Y-26073124D01*
X18302673Y-25913271D01*
X18140687Y-25726396D01*
X17982091Y-25512026D01*
X17939769Y-25449361D01*
X17811553Y-25241784D01*
X17685373Y-25009780D01*
X17562881Y-24757143D01*
X17445727Y-24487666D01*
X17335561Y-24205142D01*
X17234036Y-23913365D01*
X17144485Y-23622000D01*
X17125481Y-23557745D01*
X17108367Y-23503382D01*
X17095043Y-23464715D01*
X17087487Y-23447641D01*
X17070851Y-23446567D01*
X17031856Y-23451587D01*
X16975495Y-23461841D01*
X16906761Y-23476467D01*
X16867630Y-23485552D01*
X16665309Y-23531431D01*
X16461109Y-23573238D01*
X16265625Y-23608879D01*
X16143112Y-23628523D01*
X16077477Y-23638409D01*
X16018758Y-23647350D01*
X15974799Y-23654147D01*
X15957382Y-23656925D01*
X15919818Y-23663131D01*
X15922104Y-23501521D01*
X15924214Y-23352240D01*
X17399000Y-23352240D01*
X17403232Y-23372874D01*
X17415004Y-23415900D01*
X17432937Y-23476938D01*
X17455647Y-23551606D01*
X17481753Y-23635523D01*
X17509875Y-23724306D01*
X17538628Y-23813576D01*
X17566633Y-23898950D01*
X17592508Y-23976046D01*
X17614870Y-24040484D01*
X17624097Y-24066030D01*
X17746199Y-24378450D01*
X17873794Y-24667322D01*
X18006526Y-24932164D01*
X18144038Y-25172494D01*
X18285972Y-25387830D01*
X18431972Y-25577690D01*
X18581679Y-25741591D01*
X18734738Y-25879052D01*
X18890790Y-25989590D01*
X19049479Y-26072724D01*
X19135486Y-26105832D01*
X19285970Y-26143423D01*
X19436610Y-26154076D01*
X19591347Y-26137940D01*
X19649723Y-26125382D01*
X19799149Y-26075243D01*
X19949247Y-25997664D01*
X20099160Y-25893387D01*
X20248029Y-25763153D01*
X20394994Y-25607703D01*
X20539197Y-25427779D01*
X20661790Y-25251834D01*
X20720637Y-25156640D01*
X20786509Y-25040912D01*
X20856455Y-24910518D01*
X20927524Y-24771322D01*
X20996764Y-24629192D01*
X21061222Y-24489994D01*
X21117949Y-24359593D01*
X21148143Y-24285223D01*
X21182375Y-24195593D01*
X21218506Y-24096771D01*
X21255446Y-23992158D01*
X21292105Y-23885157D01*
X21327392Y-23779170D01*
X21360217Y-23677599D01*
X21389488Y-23583845D01*
X21414116Y-23501312D01*
X21433010Y-23433400D01*
X21445079Y-23383512D01*
X21449232Y-23355051D01*
X21447965Y-23349891D01*
X21433566Y-23344543D01*
X21395557Y-23331456D01*
X21337139Y-23311706D01*
X21261512Y-23286364D01*
X21171877Y-23256507D01*
X21071435Y-23223207D01*
X21004389Y-23201056D01*
X20725396Y-23105592D01*
X20440273Y-23001603D01*
X20157674Y-22892425D01*
X19886249Y-22781393D01*
X19652093Y-22679689D01*
X19428685Y-22579475D01*
X19221704Y-22671651D01*
X19064038Y-22740378D01*
X18895101Y-22811330D01*
X18718557Y-22883139D01*
X18538069Y-22954443D01*
X18357301Y-23023875D01*
X18179916Y-23090071D01*
X18009578Y-23151665D01*
X17849950Y-23207293D01*
X17704696Y-23255590D01*
X17577478Y-23295191D01*
X17471961Y-23324730D01*
X17462432Y-23327156D01*
X17424940Y-23338371D01*
X17402174Y-23348601D01*
X17399000Y-23352240D01*
X15924214Y-23352240D01*
X15924389Y-23339910D01*
X15966723Y-23332755D01*
X16002509Y-23327020D01*
X16054556Y-23319041D01*
X16107834Y-23311102D01*
X16222504Y-23292658D01*
X16355499Y-23268600D01*
X16497902Y-23240687D01*
X16640797Y-23210677D01*
X16775265Y-23180330D01*
X16797208Y-23175129D01*
X17006805Y-23125052D01*
X16998971Y-23087776D01*
X16993574Y-23062538D01*
X16983280Y-23014771D01*
X16969178Y-22949523D01*
X16952360Y-22871844D01*
X16933918Y-22786785D01*
X16933832Y-22786389D01*
X16886079Y-22554111D01*
X16839542Y-22304287D01*
X16796132Y-22047583D01*
X16764818Y-21843601D01*
X16757068Y-21787864D01*
X16747486Y-21714761D01*
X16736596Y-21628722D01*
X16724923Y-21534174D01*
X16712991Y-21435545D01*
X16701325Y-21337263D01*
X16690449Y-21243757D01*
X16688092Y-21222975D01*
X17008634Y-21222975D01*
X17027323Y-21381793D01*
X17065725Y-21681787D01*
X17110323Y-21983830D01*
X17159836Y-22280235D01*
X17212986Y-22563320D01*
X17264900Y-22809423D01*
X17281620Y-22884391D01*
X17295922Y-22949141D01*
X17306766Y-22998916D01*
X17313113Y-23028957D01*
X17314334Y-23035628D01*
X17327269Y-23034686D01*
X17364477Y-23025244D01*
X17423560Y-23008034D01*
X17502124Y-22983791D01*
X17597769Y-22953246D01*
X17708101Y-22917132D01*
X17779270Y-22893458D01*
X18112874Y-22776682D01*
X18452722Y-22647899D01*
X18776299Y-22515948D01*
X19033037Y-22407261D01*
X19825276Y-22407261D01*
X19826993Y-22408658D01*
X19851217Y-22420192D01*
X19897461Y-22440422D01*
X19961520Y-22467622D01*
X20039188Y-22500065D01*
X20126257Y-22536023D01*
X20218521Y-22573771D01*
X20311776Y-22611581D01*
X20401813Y-22647725D01*
X20484428Y-22680478D01*
X20555413Y-22708113D01*
X20569709Y-22713584D01*
X20645454Y-22741816D01*
X20734150Y-22773817D01*
X20832081Y-22808347D01*
X20935531Y-22844165D01*
X21040786Y-22880032D01*
X21144129Y-22914706D01*
X21241845Y-22946949D01*
X21330217Y-22975518D01*
X21405531Y-22999175D01*
X21464071Y-23016678D01*
X21502121Y-23026788D01*
X21514047Y-23028806D01*
X21533690Y-23023942D01*
X21546900Y-23004120D01*
X21558026Y-22962784D01*
X21558127Y-22962306D01*
X21603340Y-22746474D01*
X21642611Y-22553333D01*
X21676768Y-22378174D01*
X21706641Y-22216291D01*
X21733058Y-22062975D01*
X21756849Y-21913518D01*
X21778842Y-21763214D01*
X21799866Y-21607354D01*
X21808374Y-21540942D01*
X21819238Y-21454147D01*
X21828765Y-21376427D01*
X21836418Y-21312308D01*
X21841657Y-21266320D01*
X21843944Y-21242990D01*
X21844000Y-21241556D01*
X21832955Y-21242718D01*
X21802485Y-21257408D01*
X21756592Y-21283413D01*
X21699276Y-21318519D01*
X21664084Y-21341067D01*
X21380962Y-21520921D01*
X21084135Y-21701514D01*
X20780907Y-21878640D01*
X20478585Y-22048092D01*
X20184474Y-22205667D01*
X19982168Y-22309270D01*
X19907210Y-22347954D01*
X19856963Y-22376611D01*
X19830096Y-22396096D01*
X19825276Y-22407261D01*
X19033037Y-22407261D01*
X19047284Y-22401230D01*
X18762892Y-22253143D01*
X18308652Y-22009697D01*
X17872599Y-21761455D01*
X17444721Y-21502550D01*
X17045067Y-21246871D01*
X17008634Y-21222975D01*
X16688092Y-21222975D01*
X16680887Y-21159455D01*
X16673165Y-21088784D01*
X16667805Y-21036173D01*
X16665333Y-21006050D01*
X16665227Y-21002609D01*
X16654302Y-20989577D01*
X16623997Y-20963265D01*
X16578014Y-20926638D01*
X16520055Y-20882655D01*
X16464139Y-20841702D01*
X16203264Y-20648695D01*
X15941336Y-20445596D01*
X15685658Y-20238283D01*
X15443533Y-20032635D01*
X15291833Y-19898081D01*
X15226799Y-19839395D01*
X15163873Y-19782846D01*
X15108219Y-19733055D01*
X15065000Y-19694648D01*
X15046255Y-19678180D01*
X14981678Y-19621970D01*
X14856123Y-19755791D01*
X14602303Y-20036082D01*
X14373143Y-20309528D01*
X14168878Y-20575753D01*
X13989743Y-20834379D01*
X13835973Y-21085032D01*
X13707802Y-21327333D01*
X13605464Y-21560907D01*
X13529196Y-21785377D01*
X13489199Y-21947749D01*
X13466847Y-22097061D01*
X13459378Y-22247465D01*
X13466348Y-22393232D01*
X13487317Y-22528634D01*
X13521843Y-22647944D01*
X13547729Y-22707164D01*
X13630969Y-22841808D01*
X13735015Y-22961277D01*
X13855368Y-23060483D01*
X13867053Y-23068382D01*
X13905752Y-23095739D01*
X13932755Y-23118005D01*
X13941778Y-23129421D01*
X13938454Y-23148309D01*
X13929844Y-23185514D01*
X13920612Y-23222110D01*
X13908345Y-23283110D01*
X13900705Y-23347867D01*
X13899445Y-23378021D01*
X13897601Y-23419596D01*
X13892861Y-23446696D01*
X13888638Y-23452667D01*
X13867188Y-23444982D01*
X13828551Y-23424314D01*
X13778392Y-23394243D01*
X13722376Y-23358350D01*
X13666165Y-23320213D01*
X13615424Y-23283414D01*
X13592297Y-23265362D01*
X13478797Y-23158322D01*
X13375141Y-23030898D01*
X13286460Y-22890531D01*
X13217885Y-22744665D01*
X13200919Y-22697723D01*
X13166553Y-22564351D01*
X13145186Y-22413654D01*
X13137256Y-22253577D01*
X13143199Y-22092066D01*
X13160117Y-21955848D01*
X13213002Y-21720615D01*
X13292799Y-21477622D01*
X13399527Y-21226839D01*
X13533205Y-20968233D01*
X13693852Y-20701772D01*
X13881486Y-20427427D01*
X14096127Y-20145164D01*
X14337794Y-19854952D01*
X14584864Y-19579993D01*
X14753239Y-19398744D01*
X15213239Y-19398744D01*
X15392425Y-19561396D01*
X15521277Y-19677371D01*
X15640125Y-19782017D01*
X15756972Y-19882186D01*
X15879821Y-19984730D01*
X16016676Y-20096502D01*
X16030223Y-20107466D01*
X16111837Y-20172900D01*
X16196679Y-20239895D01*
X16281705Y-20306148D01*
X16363870Y-20369353D01*
X16440129Y-20427208D01*
X16507438Y-20477406D01*
X16562752Y-20517644D01*
X16603026Y-20545618D01*
X16625217Y-20559023D01*
X16627947Y-20559860D01*
X16634477Y-20548415D01*
X16632388Y-20528139D01*
X16629972Y-20506556D01*
X16626763Y-20460459D01*
X16622953Y-20393538D01*
X16618732Y-20309484D01*
X16614292Y-20211989D01*
X16609822Y-20104741D01*
X16607761Y-20051889D01*
X16602809Y-19887625D01*
X16599647Y-19706077D01*
X16598220Y-19512986D01*
X16598292Y-19457084D01*
X16925925Y-19457084D01*
X16926239Y-19644633D01*
X16927610Y-19827974D01*
X16930036Y-20004253D01*
X16933519Y-20170619D01*
X16938058Y-20324218D01*
X16943652Y-20462197D01*
X16950303Y-20581702D01*
X16958009Y-20679881D01*
X16966772Y-20753881D01*
X16970671Y-20776576D01*
X16976215Y-20791149D01*
X16989092Y-20808094D01*
X17011932Y-20829441D01*
X17047365Y-20857219D01*
X17098022Y-20893455D01*
X17166534Y-20940178D01*
X17255530Y-20999417D01*
X17284033Y-21018229D01*
X17565692Y-21199584D01*
X17863405Y-21383283D01*
X18166430Y-21562801D01*
X18400889Y-21696468D01*
X18459435Y-21728708D01*
X18532961Y-21768365D01*
X18618279Y-21813793D01*
X18712200Y-21863346D01*
X18811537Y-21915378D01*
X18913101Y-21968240D01*
X19013706Y-22020287D01*
X19110161Y-22069872D01*
X19199281Y-22115348D01*
X19277876Y-22155070D01*
X19342758Y-22187389D01*
X19390740Y-22210659D01*
X19418634Y-22223235D01*
X19424154Y-22225000D01*
X19438290Y-22218895D01*
X19474445Y-22201619D01*
X19529448Y-22174734D01*
X19600130Y-22139801D01*
X19683322Y-22098383D01*
X19775855Y-22052041D01*
X19809029Y-22035366D01*
X20180147Y-21843926D01*
X20531958Y-21652337D01*
X20872971Y-21455689D01*
X21211696Y-21249070D01*
X21556644Y-21027572D01*
X21563518Y-21023053D01*
X21882758Y-20813099D01*
X21891530Y-20704133D01*
X21904257Y-20529253D01*
X21905227Y-20512223D01*
X22227282Y-20512223D01*
X22227465Y-20546370D01*
X22230847Y-20559878D01*
X22230988Y-20559889D01*
X22244908Y-20551827D01*
X22277161Y-20529600D01*
X22323631Y-20496149D01*
X22380202Y-20454413D01*
X22412548Y-20430184D01*
X22583690Y-20299073D01*
X22759716Y-20160010D01*
X22935714Y-20017080D01*
X23106772Y-19874369D01*
X23267977Y-19735964D01*
X23414418Y-19605948D01*
X23514751Y-19513443D01*
X23640334Y-19395276D01*
X23437140Y-19211379D01*
X23252479Y-19046322D01*
X23078976Y-18895893D01*
X22908935Y-18753717D01*
X22734657Y-18613424D01*
X22548445Y-18468639D01*
X22445178Y-18390090D01*
X22378818Y-18340481D01*
X22320407Y-18297845D01*
X22273539Y-18264723D01*
X22241806Y-18243652D01*
X22228801Y-18237170D01*
X22228757Y-18237207D01*
X22227751Y-18252384D01*
X22228110Y-18291889D01*
X22229715Y-18351866D01*
X22232447Y-18428458D01*
X22236187Y-18517811D01*
X22239850Y-18596410D01*
X22242891Y-18677017D01*
X22245337Y-18778976D01*
X22247204Y-18898791D01*
X22248512Y-19032964D01*
X22249278Y-19178000D01*
X22249520Y-19330401D01*
X22249255Y-19486672D01*
X22248501Y-19643315D01*
X22247277Y-19796833D01*
X22245599Y-19943732D01*
X22243486Y-20080513D01*
X22240955Y-20203681D01*
X22238025Y-20309739D01*
X22234712Y-20395190D01*
X22231036Y-20456537D01*
X22230347Y-20464639D01*
X22227282Y-20512223D01*
X21905227Y-20512223D01*
X21914440Y-20350557D01*
X21922226Y-20163493D01*
X21927760Y-19963508D01*
X21931188Y-19746051D01*
X21932656Y-19506569D01*
X21932734Y-19416889D01*
X21932315Y-19228159D01*
X21931060Y-19061329D01*
X21928770Y-18910087D01*
X21925243Y-18768117D01*
X21920280Y-18629107D01*
X21913681Y-18486742D01*
X21905244Y-18334707D01*
X21894769Y-18166691D01*
X21891448Y-18115976D01*
X21882415Y-17979230D01*
X21605680Y-17797266D01*
X21179387Y-17524630D01*
X20756464Y-17270061D01*
X20327505Y-17028140D01*
X19883107Y-16793450D01*
X19717825Y-16709835D01*
X19433149Y-16567386D01*
X19266269Y-16646614D01*
X19021705Y-16766685D01*
X18760518Y-16902256D01*
X18487585Y-17050543D01*
X18207781Y-17208763D01*
X17925983Y-17374131D01*
X17647066Y-17543863D01*
X17375907Y-17715176D01*
X17242014Y-17802363D01*
X16979193Y-17975360D01*
X16970630Y-18050541D01*
X16961437Y-18147574D01*
X16953301Y-18266076D01*
X16946221Y-18403195D01*
X16940197Y-18556078D01*
X16935230Y-18721870D01*
X16931320Y-18897720D01*
X16928465Y-19080775D01*
X16926667Y-19268180D01*
X16925925Y-19457084D01*
X16598292Y-19457084D01*
X16598477Y-19314093D01*
X16600364Y-19115138D01*
X16603830Y-18921863D01*
X16608821Y-18740007D01*
X16615286Y-18575313D01*
X16622497Y-18443760D01*
X16626792Y-18370985D01*
X16629664Y-18308814D01*
X16630935Y-18262392D01*
X16630432Y-18236866D01*
X16629672Y-18233635D01*
X16615828Y-18238933D01*
X16582628Y-18260281D01*
X16532514Y-18295797D01*
X16467924Y-18343601D01*
X16391296Y-18401811D01*
X16305071Y-18468545D01*
X16211687Y-18541922D01*
X16113583Y-18620061D01*
X16013199Y-18701079D01*
X15912973Y-18783097D01*
X15853834Y-18832083D01*
X15745754Y-18922471D01*
X15653467Y-19000741D01*
X15570710Y-19072380D01*
X15491219Y-19142876D01*
X15408733Y-19217719D01*
X15316986Y-19302395D01*
X15314814Y-19304412D01*
X15213239Y-19398744D01*
X14753239Y-19398744D01*
X14756102Y-19395663D01*
X14615572Y-19247526D01*
X14352604Y-18959365D01*
X14114171Y-18675273D01*
X13900606Y-18395784D01*
X13712244Y-18121432D01*
X13549417Y-17852749D01*
X13412460Y-17590268D01*
X13301707Y-17334523D01*
X13217491Y-17086047D01*
X13184691Y-16961556D01*
X13164323Y-16854395D01*
X13149541Y-16732997D01*
X13140791Y-16606115D01*
X13138700Y-16492487D01*
X13460190Y-16492487D01*
X13462230Y-16617712D01*
X13472956Y-16742617D01*
X13489267Y-16843977D01*
X13543783Y-17054378D01*
X13623326Y-17274930D01*
X13727141Y-17504299D01*
X13854474Y-17741152D01*
X14004572Y-17984155D01*
X14176682Y-18231974D01*
X14370048Y-18483276D01*
X14512797Y-18654889D01*
X14579689Y-18732021D01*
X14649314Y-18810674D01*
X14718989Y-18887979D01*
X14786034Y-18961068D01*
X14847767Y-19027071D01*
X14901506Y-19083120D01*
X14944570Y-19126346D01*
X14974277Y-19153879D01*
X14987631Y-19162889D01*
X15002693Y-19153735D01*
X15033415Y-19128881D01*
X15075162Y-19092243D01*
X15118174Y-19052579D01*
X15298312Y-18887613D01*
X15497954Y-18713272D01*
X15711892Y-18533815D01*
X15934921Y-18353500D01*
X16161833Y-18176586D01*
X16387422Y-18007333D01*
X16466634Y-17949585D01*
X16539895Y-17896064D01*
X16593137Y-17855513D01*
X16629617Y-17824941D01*
X16652592Y-17801357D01*
X16665318Y-17781770D01*
X16671052Y-17763188D01*
X16671316Y-17761596D01*
X16675298Y-17731715D01*
X16681454Y-17680075D01*
X16689059Y-17612989D01*
X16696801Y-17542139D01*
X17018000Y-17542139D01*
X17023562Y-17548102D01*
X17041856Y-17543146D01*
X17075292Y-17525994D01*
X17126284Y-17495370D01*
X17197244Y-17449997D01*
X17219084Y-17435743D01*
X17295460Y-17386444D01*
X17388398Y-17327550D01*
X17490197Y-17263880D01*
X17593152Y-17200248D01*
X17689561Y-17141471D01*
X17695274Y-17138020D01*
X17887116Y-17024026D01*
X18087588Y-16908256D01*
X18289907Y-16794488D01*
X18487288Y-16686502D01*
X18672949Y-16588076D01*
X18792421Y-16526832D01*
X18867741Y-16488435D01*
X18933588Y-16454038D01*
X18986106Y-16425725D01*
X19021434Y-16405580D01*
X19035716Y-16395688D01*
X19035838Y-16395349D01*
X19033312Y-16393629D01*
X19809676Y-16393629D01*
X20075422Y-16531484D01*
X20387871Y-16697250D01*
X20699575Y-16869751D01*
X21004330Y-17045394D01*
X21295931Y-17220586D01*
X21568171Y-17391736D01*
X21625014Y-17428597D01*
X21692923Y-17472647D01*
X21752099Y-17510555D01*
X21798748Y-17539928D01*
X21829073Y-17558373D01*
X21839284Y-17563642D01*
X21838475Y-17549443D01*
X21834538Y-17511540D01*
X21827967Y-17454221D01*
X21819254Y-17381772D01*
X21808894Y-17298478D01*
X21807298Y-17285860D01*
X21767792Y-16994815D01*
X21724613Y-16718359D01*
X21675575Y-16442899D01*
X21652210Y-16321715D01*
X21631986Y-16220961D01*
X21611271Y-16121237D01*
X21590952Y-16026476D01*
X21571911Y-15940611D01*
X21555035Y-15867575D01*
X21541209Y-15811300D01*
X21531317Y-15775720D01*
X21526915Y-15764878D01*
X21511706Y-15766631D01*
X21473955Y-15776097D01*
X21417866Y-15791979D01*
X21347641Y-15812978D01*
X21267484Y-15837795D01*
X21181597Y-15865131D01*
X21094183Y-15893688D01*
X21009446Y-15922166D01*
X20940889Y-15945967D01*
X20755187Y-16012919D01*
X20566624Y-16083284D01*
X20380922Y-16154813D01*
X20203804Y-16225262D01*
X20040991Y-16292382D01*
X19898205Y-16353926D01*
X19870811Y-16366152D01*
X19809676Y-16393629D01*
X19033312Y-16393629D01*
X19023262Y-16386788D01*
X18987722Y-16369407D01*
X18932569Y-16344594D01*
X18861151Y-16313734D01*
X18776818Y-16278215D01*
X18682918Y-16239423D01*
X18582800Y-16198745D01*
X18479815Y-16157567D01*
X18377310Y-16117277D01*
X18278636Y-16079261D01*
X18209454Y-16053186D01*
X18095537Y-16011413D01*
X17979108Y-15969953D01*
X17863289Y-15929810D01*
X17751203Y-15891985D01*
X17645972Y-15857481D01*
X17550719Y-15827300D01*
X17468565Y-15802443D01*
X17402634Y-15783914D01*
X17356047Y-15772714D01*
X17331927Y-15769846D01*
X17329538Y-15770761D01*
X17323419Y-15787730D01*
X17312613Y-15828095D01*
X17298077Y-15887598D01*
X17280763Y-15961982D01*
X17261626Y-16046991D01*
X17241619Y-16138366D01*
X17221698Y-16231851D01*
X17202816Y-16323188D01*
X17185926Y-16408120D01*
X17181262Y-16432389D01*
X17165514Y-16518591D01*
X17148214Y-16619251D01*
X17129946Y-16730402D01*
X17111293Y-16848077D01*
X17092840Y-16968307D01*
X17075170Y-17087127D01*
X17058866Y-17200569D01*
X17044513Y-17304665D01*
X17032693Y-17395449D01*
X17023991Y-17468954D01*
X17018990Y-17521211D01*
X17018000Y-17542139D01*
X16696801Y-17542139D01*
X16697388Y-17536769D01*
X16700792Y-17504834D01*
X16738614Y-17187398D01*
X16785846Y-16857340D01*
X16840721Y-16525520D01*
X16901474Y-16202799D01*
X16949719Y-15973778D01*
X16967975Y-15890724D01*
X16984045Y-15816432D01*
X16996938Y-15755578D01*
X17005664Y-15712839D01*
X17009231Y-15692890D01*
X17009241Y-15692783D01*
X17001056Y-15681486D01*
X16973776Y-15668041D01*
X16925970Y-15652065D01*
X16856204Y-15633172D01*
X16763046Y-15610980D01*
X16645063Y-15585103D01*
X16500822Y-15555156D01*
X16481778Y-15551291D01*
X16140082Y-15489443D01*
X15812773Y-15445088D01*
X15501025Y-15418244D01*
X15206012Y-15408930D01*
X14928906Y-15417165D01*
X14670881Y-15442968D01*
X14433111Y-15486357D01*
X14315723Y-15516485D01*
X14133353Y-15579792D01*
X13970202Y-15659722D01*
X13827451Y-15755200D01*
X13706279Y-15865146D01*
X13607867Y-15988485D01*
X13533394Y-16124138D01*
X13484040Y-16271028D01*
X13482595Y-16277167D01*
X13466943Y-16375965D01*
X13460190Y-16492487D01*
X13138700Y-16492487D01*
X13138516Y-16482501D01*
X13143163Y-16370909D01*
X13151167Y-16302158D01*
X13179337Y-16176112D01*
X13222407Y-16044383D01*
X13275746Y-15919985D01*
X13310411Y-15854861D01*
X13383832Y-15748651D01*
X13479143Y-15641293D01*
X13590698Y-15537830D01*
X13712852Y-15443301D01*
X13839960Y-15362750D01*
X13893133Y-15334465D01*
X13998581Y-15288187D01*
X14125936Y-15242966D01*
X14268895Y-15200545D01*
X14421149Y-15162663D01*
X14576394Y-15131060D01*
X14703778Y-15110738D01*
X14769099Y-15104292D01*
X14857212Y-15099286D01*
X14962725Y-15095722D01*
X15080245Y-15093596D01*
X15204379Y-15092910D01*
X15329735Y-15093663D01*
X15450920Y-15095853D01*
X15562541Y-15099480D01*
X15659205Y-15104543D01*
X15733889Y-15110861D01*
X15876502Y-15128298D01*
X16035925Y-15150632D01*
X16201842Y-15176245D01*
X16363936Y-15203521D01*
X16511888Y-15230840D01*
X16559300Y-15240291D01*
X16649139Y-15259041D01*
X16741759Y-15279097D01*
X16832220Y-15299316D01*
X16915582Y-15318553D01*
X16986904Y-15335667D01*
X17041246Y-15349514D01*
X17073667Y-15358951D01*
X17076435Y-15359954D01*
X17089337Y-15358359D01*
X17102123Y-15340341D01*
X17116968Y-15301802D01*
X17130373Y-15258286D01*
X17149441Y-15194871D01*
X17172969Y-15119278D01*
X17199461Y-15036040D01*
X17227418Y-14949689D01*
X17255343Y-14864757D01*
X17281739Y-14785775D01*
X17305108Y-14717277D01*
X17323953Y-14663795D01*
X17336776Y-14629859D01*
X17341080Y-14620571D01*
X17352167Y-14611732D01*
X17372385Y-14612218D01*
X17407743Y-14623019D01*
X17446526Y-14637972D01*
X17502911Y-14658571D01*
X17557825Y-14675410D01*
X17595195Y-14684031D01*
X17651171Y-14692981D01*
X17590544Y-14864185D01*
X17566259Y-14934632D01*
X17540058Y-15013800D01*
X17513271Y-15097300D01*
X17487229Y-15180742D01*
X17463261Y-15259735D01*
X17442698Y-15329890D01*
X17426871Y-15386815D01*
X17417108Y-15426120D01*
X17414742Y-15443416D01*
X17414939Y-15443745D01*
X17429095Y-15449218D01*
X17466874Y-15462508D01*
X17525115Y-15482537D01*
X17600657Y-15508229D01*
X17690339Y-15538508D01*
X17791000Y-15572297D01*
X17864667Y-15596916D01*
X18231016Y-15724436D01*
X18596414Y-15861895D01*
X18950908Y-16005448D01*
X19200177Y-16113255D01*
X19427965Y-16214725D01*
X19637622Y-16120788D01*
X19891018Y-16010712D01*
X20159756Y-15900315D01*
X20435697Y-15792703D01*
X20710699Y-15690983D01*
X20735758Y-15682245D01*
X21844000Y-15682245D01*
X21846978Y-15700404D01*
X21855243Y-15741366D01*
X21867798Y-15800421D01*
X21883642Y-15872859D01*
X21899768Y-15945065D01*
X21956354Y-16212413D01*
X22010353Y-16499192D01*
X22060346Y-16796637D01*
X22104914Y-17095982D01*
X22142638Y-17388459D01*
X22162681Y-17569406D01*
X22186739Y-17803311D01*
X22421064Y-17974888D01*
X22714671Y-18194298D01*
X22988245Y-18408224D01*
X23247955Y-18621671D01*
X23499968Y-18839648D01*
X23629056Y-18955571D01*
X23711709Y-19029973D01*
X23776007Y-19086069D01*
X23823764Y-19125296D01*
X23856795Y-19149086D01*
X23876917Y-19158875D01*
X23884844Y-19157686D01*
X23899638Y-19142253D01*
X23929988Y-19110180D01*
X23972160Y-19065428D01*
X24022421Y-19011956D01*
X24051966Y-18980470D01*
X24268908Y-18740480D01*
X24470820Y-18499583D01*
X24655716Y-18260471D01*
X24821612Y-18025835D01*
X24966523Y-17798370D01*
X25088464Y-17580766D01*
X25098900Y-17560471D01*
X25173826Y-17407895D01*
X25234702Y-17270441D01*
X25284470Y-17140697D01*
X25326073Y-17011254D01*
X25347169Y-16935113D01*
X25363944Y-16868895D01*
X25375751Y-16813782D01*
X25383467Y-16761949D01*
X25387968Y-16705573D01*
X25390130Y-16636830D01*
X25390831Y-16547894D01*
X25390837Y-16545278D01*
X25390693Y-16457796D01*
X25389299Y-16392023D01*
X25385942Y-16341454D01*
X25379906Y-16299580D01*
X25370475Y-16259895D01*
X25356936Y-16215891D01*
X25353508Y-16205505D01*
X25290025Y-16057738D01*
X25203285Y-15924142D01*
X25095523Y-15807764D01*
X25012664Y-15740934D01*
X24865254Y-15648941D01*
X24701956Y-15572466D01*
X24521369Y-15511204D01*
X24322094Y-15464850D01*
X24102729Y-15433099D01*
X23861874Y-15415646D01*
X23598128Y-15412187D01*
X23509973Y-15413949D01*
X23256462Y-15426038D01*
X23003213Y-15448883D01*
X22744276Y-15483295D01*
X22473698Y-15530082D01*
X22185527Y-15590055D01*
X22140334Y-15600257D01*
X22062458Y-15617975D01*
X21991642Y-15634034D01*
X21933664Y-15647128D01*
X21894299Y-15655950D01*
X21882806Y-15658481D01*
X21854696Y-15669357D01*
X21844000Y-15682245D01*
X20735758Y-15682245D01*
X20976624Y-15598259D01*
X21187733Y-15529375D01*
X21267372Y-15504210D01*
X21337137Y-15481944D01*
X21392802Y-15463944D01*
X21430141Y-15451577D01*
X21444926Y-15446210D01*
X21444986Y-15446163D01*
X21442741Y-15431444D01*
X21432833Y-15394014D01*
X21416523Y-15337934D01*
X21395077Y-15267265D01*
X21369759Y-15186070D01*
X21341833Y-15098408D01*
X21312562Y-15008343D01*
X21283213Y-14919934D01*
X21259107Y-14849006D01*
X21177483Y-14623793D01*
X21091091Y-14410276D01*
X20995121Y-14197141D01*
X20896498Y-13996129D01*
X20756491Y-13738078D01*
X20612479Y-13507951D01*
X20464465Y-13305751D01*
X20312451Y-13131482D01*
X20156438Y-12985144D01*
X19996430Y-12866741D01*
X19893044Y-12806212D01*
X19797701Y-12758958D01*
X19714845Y-12725582D01*
X19634577Y-12702774D01*
X19546998Y-12687223D01*
X19530891Y-12685091D01*
X19384520Y-12679073D01*
X19238345Y-12698687D01*
X19091094Y-12744386D01*
X18941499Y-12816621D01*
X18788289Y-12915843D01*
X18707088Y-12977999D01*
X18611120Y-13055155D01*
X18551866Y-12993306D01*
X18507617Y-12949630D01*
X18459952Y-12906287D01*
X18436167Y-12886334D01*
X18379723Y-12841210D01*
X18457334Y-12770291D01*
X18516989Y-12720061D01*
X18590972Y-12664153D01*
X18672032Y-12607472D01*
X18752920Y-12554923D01*
X18826384Y-12511409D01*
X18881235Y-12483549D01*
X18932299Y-12462550D01*
X18997768Y-12437790D01*
X19065124Y-12413972D01*
X19078300Y-12409542D01*
X19125922Y-12394332D01*
X19166834Y-12383569D01*
X19207627Y-12376496D01*
X19254892Y-12372355D01*
X19315220Y-12370390D01*
X19395203Y-12369843D01*
X19423945Y-12369842D01*
X19512281Y-12370309D01*
X19512281Y-12370309D01*
G37*
X19512281Y-12370309D02*
X19579253Y-12372062D01*
X19631710Y-12375859D01*
X19676506Y-12382457D01*
X19720492Y-12392612D01*
X19770520Y-12407082D01*
X19775853Y-12408713D01*
X19962024Y-12480392D01*
X20143626Y-12579553D01*
X20320368Y-12705784D01*
X20491959Y-12858672D01*
X20658110Y-13037804D01*
X20818531Y-13242767D01*
X20972930Y-13473147D01*
X21121017Y-13728533D01*
X21262503Y-14008509D01*
X21397097Y-14312665D01*
X21524508Y-14640586D01*
X21644446Y-14991860D01*
X21686702Y-15127112D01*
X21710484Y-15202919D01*
X21732214Y-15268155D01*
X21750351Y-15318502D01*
X21763350Y-15349641D01*
X21769107Y-15357812D01*
X21785910Y-15354091D01*
X21825618Y-15345061D01*
X21883641Y-15331772D01*
X21955391Y-15315275D01*
X22029740Y-15298131D01*
X22439592Y-15212403D01*
X22838313Y-15146875D01*
X23004627Y-15125186D01*
X23116415Y-15114062D01*
X23244590Y-15105115D01*
X23383646Y-15098418D01*
X23528079Y-15094042D01*
X23672384Y-15092059D01*
X23811056Y-15092542D01*
X23938590Y-15095562D01*
X24049480Y-15101191D01*
X24138222Y-15109502D01*
X24144112Y-15110274D01*
X24394254Y-15152109D01*
X24620521Y-15207417D01*
X24824099Y-15276691D01*
X25006175Y-15360425D01*
X25167934Y-15459111D01*
X25310562Y-15573244D01*
X25352168Y-15612922D01*
X25474575Y-15753533D01*
X25572153Y-15906658D01*
X25645076Y-16071718D01*
X25693516Y-16248138D01*
X25717648Y-16435340D01*
X25717646Y-16632748D01*
X25693683Y-16839785D01*
X25645934Y-17055875D01*
X25574571Y-17280440D01*
X25479769Y-17512904D01*
X25361701Y-17752691D01*
X25220542Y-17999223D01*
X25056464Y-18251924D01*
X24869643Y-18510217D01*
X24660250Y-18773525D01*
X24428461Y-19041272D01*
X24266296Y-19216964D01*
X24212088Y-19274874D01*
X24165401Y-19325840D01*
X24129419Y-19366297D01*
X24107324Y-19392682D01*
X24101778Y-19401167D01*
X24111159Y-19415997D01*
X24135086Y-19442523D01*
X24152711Y-19459982D01*
X24180992Y-19488240D01*
X24223185Y-19531967D01*
X24274169Y-19585790D01*
X24328825Y-19644335D01*
X24344269Y-19661036D01*
X24484895Y-19813461D01*
X24402697Y-19867259D01*
X24353144Y-19902290D01*
X24307008Y-19939242D01*
X24278760Y-19965614D01*
X24237019Y-20010172D01*
X24051630Y-19815895D01*
X23866240Y-19621619D01*
X23705315Y-19770768D01*
X23349878Y-20087305D01*
X22968058Y-20402453D01*
X22558961Y-20716949D01*
X22535117Y-20734637D01*
X22436492Y-20807620D01*
X22358134Y-20865714D01*
X22297724Y-20910954D01*
X22252942Y-20945375D01*
X22221469Y-20971009D01*
X22200987Y-20989892D01*
X22189177Y-21004057D01*
X22183718Y-21015539D01*
X22182293Y-21026372D01*
X22182581Y-21038590D01*
X22182658Y-21043796D01*
X22180425Y-21095104D01*
X22174078Y-21170477D01*
X22164123Y-21266141D01*
X22151067Y-21378319D01*
X22135417Y-21503237D01*
X22117679Y-21637119D01*
X22098359Y-21776188D01*
X22077966Y-21916671D01*
X22057004Y-22054791D01*
X22035980Y-22186773D01*
X22015402Y-22308841D01*
X22005233Y-22366112D01*
X21988810Y-22454223D01*
X21969819Y-22551965D01*
X21949261Y-22654571D01*
X21928140Y-22757274D01*
X21907461Y-22855306D01*
X21888226Y-22943901D01*
X21871439Y-23018291D01*
X21858103Y-23073709D01*
X21850335Y-23102008D01*
X21851323Y-23112611D01*
X21863999Y-23122732D01*
X21892214Y-23133835D01*
X21939819Y-23147384D01*
X22010663Y-23164846D01*
X22023413Y-23167865D01*
X22321241Y-23234117D01*
X22599093Y-23287247D01*
X22861674Y-23327821D01*
X23113688Y-23356410D01*
X23359838Y-23373582D01*
X23604829Y-23379905D01*
X23765841Y-23378463D01*
X23929961Y-23373054D01*
X24072139Y-23364082D01*
X24198515Y-23350749D01*
X24315235Y-23332257D01*
X24428440Y-23307806D01*
X24540231Y-23277778D01*
X24724560Y-23212968D01*
X24888856Y-23132047D01*
X25032074Y-23035937D01*
X25153168Y-22925561D01*
X25251093Y-22801841D01*
X25324805Y-22665700D01*
X25365343Y-22549556D01*
X25389887Y-22416849D01*
X25397294Y-22266682D01*
X25387759Y-22103868D01*
X25361478Y-21933220D01*
X25335844Y-21821678D01*
X25321041Y-21763677D01*
X25309408Y-21716146D01*
X25302503Y-21685552D01*
X25301276Y-21678018D01*
X25313166Y-21667050D01*
X25343327Y-21650909D01*
X25363573Y-21642016D01*
X25411192Y-21619941D01*
X25467389Y-21590418D01*
X25502914Y-21569997D01*
X25580010Y-21523572D01*
X25623764Y-21666147D01*
X25659733Y-21790181D01*
X25685512Y-21897689D01*
X25702533Y-21997866D01*
X25712226Y-22099904D01*
X25716021Y-22212997D01*
X25716216Y-22260278D01*
X25714209Y-22373560D01*
X25707658Y-22467517D01*
X25695026Y-22550885D01*
X25674775Y-22632401D01*
X25645368Y-22720802D01*
X25626243Y-22771627D01*
X25550552Y-22928676D01*
X25450197Y-23073801D01*
X25326522Y-23206035D01*
X25180872Y-23324408D01*
X25014591Y-23427952D01*
X24829024Y-23515699D01*
X24625515Y-23586681D01*
X24426334Y-23635793D01*
X24329808Y-23654551D01*
X24243457Y-23669309D01*
X24161717Y-23680517D01*
X24079024Y-23688624D01*
X23989812Y-23694081D01*
X23888518Y-23697337D01*
X23769577Y-23698841D01*
X23643167Y-23699070D01*
X23416546Y-23695453D01*
X23199343Y-23684752D01*
X22985570Y-23666232D01*
X22769238Y-23639155D01*
X22544357Y-23602786D01*
X22304939Y-23556388D01*
X22076834Y-23506533D01*
X21994176Y-23487688D01*
X21919547Y-23470723D01*
X21857906Y-23456761D01*
X21814210Y-23446926D01*
X21794028Y-23442468D01*
X21779152Y-23442554D01*
X21766994Y-23453308D01*
X21754835Y-23479620D01*
X21739954Y-23526381D01*
X21732070Y-23553890D01*
X21640618Y-23856097D01*
X21538831Y-24152385D01*
X21428153Y-24439570D01*
X21310027Y-24714472D01*
X21185896Y-24973908D01*
X21057203Y-25214696D01*
X20925392Y-25433654D01*
X20791907Y-25627600D01*
X20790766Y-25629137D01*
X20627366Y-25831891D01*
X20458621Y-26007592D01*
X20284757Y-26156067D01*
X20105997Y-26277142D01*
X19922565Y-26370644D01*
X19755556Y-26430532D01*
X19678944Y-26447146D01*
X19584600Y-26459199D01*
X19481109Y-26466370D01*
X19377057Y-26468340D01*
X19281029Y-26464788D01*
X19201610Y-26455397D01*
X19184056Y-26451802D01*
X18996290Y-26395294D01*
X18814858Y-26313661D01*
X18639170Y-26206429D01*
X18468637Y-26073124D01*
X18302673Y-25913271D01*
X18140687Y-25726396D01*
X17982091Y-25512026D01*
X17939769Y-25449361D01*
X17811553Y-25241784D01*
X17685373Y-25009780D01*
X17562881Y-24757143D01*
X17445727Y-24487666D01*
X17335561Y-24205142D01*
X17234036Y-23913365D01*
X17144485Y-23622000D01*
X17125481Y-23557745D01*
X17108367Y-23503382D01*
X17095043Y-23464715D01*
X17087487Y-23447641D01*
X17070851Y-23446567D01*
X17031856Y-23451587D01*
X16975495Y-23461841D01*
X16906761Y-23476467D01*
X16867630Y-23485552D01*
X16665309Y-23531431D01*
X16461109Y-23573238D01*
X16265625Y-23608879D01*
X16143112Y-23628523D01*
X16077477Y-23638409D01*
X16018758Y-23647350D01*
X15974799Y-23654147D01*
X15957382Y-23656925D01*
X15919818Y-23663131D01*
X15922104Y-23501521D01*
X15924214Y-23352240D01*
X17399000Y-23352240D01*
X17403232Y-23372874D01*
X17415004Y-23415900D01*
X17432937Y-23476938D01*
X17455647Y-23551606D01*
X17481753Y-23635523D01*
X17509875Y-23724306D01*
X17538628Y-23813576D01*
X17566633Y-23898950D01*
X17592508Y-23976046D01*
X17614870Y-24040484D01*
X17624097Y-24066030D01*
X17746199Y-24378450D01*
X17873794Y-24667322D01*
X18006526Y-24932164D01*
X18144038Y-25172494D01*
X18285972Y-25387830D01*
X18431972Y-25577690D01*
X18581679Y-25741591D01*
X18734738Y-25879052D01*
X18890790Y-25989590D01*
X19049479Y-26072724D01*
X19135486Y-26105832D01*
X19285970Y-26143423D01*
X19436610Y-26154076D01*
X19591347Y-26137940D01*
X19649723Y-26125382D01*
X19799149Y-26075243D01*
X19949247Y-25997664D01*
X20099160Y-25893387D01*
X20248029Y-25763153D01*
X20394994Y-25607703D01*
X20539197Y-25427779D01*
X20661790Y-25251834D01*
X20720637Y-25156640D01*
X20786509Y-25040912D01*
X20856455Y-24910518D01*
X20927524Y-24771322D01*
X20996764Y-24629192D01*
X21061222Y-24489994D01*
X21117949Y-24359593D01*
X21148143Y-24285223D01*
X21182375Y-24195593D01*
X21218506Y-24096771D01*
X21255446Y-23992158D01*
X21292105Y-23885157D01*
X21327392Y-23779170D01*
X21360217Y-23677599D01*
X21389488Y-23583845D01*
X21414116Y-23501312D01*
X21433010Y-23433400D01*
X21445079Y-23383512D01*
X21449232Y-23355051D01*
X21447965Y-23349891D01*
X21433566Y-23344543D01*
X21395557Y-23331456D01*
X21337139Y-23311706D01*
X21261512Y-23286364D01*
X21171877Y-23256507D01*
X21071435Y-23223207D01*
X21004389Y-23201056D01*
X20725396Y-23105592D01*
X20440273Y-23001603D01*
X20157674Y-22892425D01*
X19886249Y-22781393D01*
X19652093Y-22679689D01*
X19428685Y-22579475D01*
X19221704Y-22671651D01*
X19064038Y-22740378D01*
X18895101Y-22811330D01*
X18718557Y-22883139D01*
X18538069Y-22954443D01*
X18357301Y-23023875D01*
X18179916Y-23090071D01*
X18009578Y-23151665D01*
X17849950Y-23207293D01*
X17704696Y-23255590D01*
X17577478Y-23295191D01*
X17471961Y-23324730D01*
X17462432Y-23327156D01*
X17424940Y-23338371D01*
X17402174Y-23348601D01*
X17399000Y-23352240D01*
X15924214Y-23352240D01*
X15924389Y-23339910D01*
X15966723Y-23332755D01*
X16002509Y-23327020D01*
X16054556Y-23319041D01*
X16107834Y-23311102D01*
X16222504Y-23292658D01*
X16355499Y-23268600D01*
X16497902Y-23240687D01*
X16640797Y-23210677D01*
X16775265Y-23180330D01*
X16797208Y-23175129D01*
X17006805Y-23125052D01*
X16998971Y-23087776D01*
X16993574Y-23062538D01*
X16983280Y-23014771D01*
X16969178Y-22949523D01*
X16952360Y-22871844D01*
X16933918Y-22786785D01*
X16933832Y-22786389D01*
X16886079Y-22554111D01*
X16839542Y-22304287D01*
X16796132Y-22047583D01*
X16764818Y-21843601D01*
X16757068Y-21787864D01*
X16747486Y-21714761D01*
X16736596Y-21628722D01*
X16724923Y-21534174D01*
X16712991Y-21435545D01*
X16701325Y-21337263D01*
X16690449Y-21243757D01*
X16688092Y-21222975D01*
X17008634Y-21222975D01*
X17027323Y-21381793D01*
X17065725Y-21681787D01*
X17110323Y-21983830D01*
X17159836Y-22280235D01*
X17212986Y-22563320D01*
X17264900Y-22809423D01*
X17281620Y-22884391D01*
X17295922Y-22949141D01*
X17306766Y-22998916D01*
X17313113Y-23028957D01*
X17314334Y-23035628D01*
X17327269Y-23034686D01*
X17364477Y-23025244D01*
X17423560Y-23008034D01*
X17502124Y-22983791D01*
X17597769Y-22953246D01*
X17708101Y-22917132D01*
X17779270Y-22893458D01*
X18112874Y-22776682D01*
X18452722Y-22647899D01*
X18776299Y-22515948D01*
X19033037Y-22407261D01*
X19825276Y-22407261D01*
X19826993Y-22408658D01*
X19851217Y-22420192D01*
X19897461Y-22440422D01*
X19961520Y-22467622D01*
X20039188Y-22500065D01*
X20126257Y-22536023D01*
X20218521Y-22573771D01*
X20311776Y-22611581D01*
X20401813Y-22647725D01*
X20484428Y-22680478D01*
X20555413Y-22708113D01*
X20569709Y-22713584D01*
X20645454Y-22741816D01*
X20734150Y-22773817D01*
X20832081Y-22808347D01*
X20935531Y-22844165D01*
X21040786Y-22880032D01*
X21144129Y-22914706D01*
X21241845Y-22946949D01*
X21330217Y-22975518D01*
X21405531Y-22999175D01*
X21464071Y-23016678D01*
X21502121Y-23026788D01*
X21514047Y-23028806D01*
X21533690Y-23023942D01*
X21546900Y-23004120D01*
X21558026Y-22962784D01*
X21558127Y-22962306D01*
X21603340Y-22746474D01*
X21642611Y-22553333D01*
X21676768Y-22378174D01*
X21706641Y-22216291D01*
X21733058Y-22062975D01*
X21756849Y-21913518D01*
X21778842Y-21763214D01*
X21799866Y-21607354D01*
X21808374Y-21540942D01*
X21819238Y-21454147D01*
X21828765Y-21376427D01*
X21836418Y-21312308D01*
X21841657Y-21266320D01*
X21843944Y-21242990D01*
X21844000Y-21241556D01*
X21832955Y-21242718D01*
X21802485Y-21257408D01*
X21756592Y-21283413D01*
X21699276Y-21318519D01*
X21664084Y-21341067D01*
X21380962Y-21520921D01*
X21084135Y-21701514D01*
X20780907Y-21878640D01*
X20478585Y-22048092D01*
X20184474Y-22205667D01*
X19982168Y-22309270D01*
X19907210Y-22347954D01*
X19856963Y-22376611D01*
X19830096Y-22396096D01*
X19825276Y-22407261D01*
X19033037Y-22407261D01*
X19047284Y-22401230D01*
X18762892Y-22253143D01*
X18308652Y-22009697D01*
X17872599Y-21761455D01*
X17444721Y-21502550D01*
X17045067Y-21246871D01*
X17008634Y-21222975D01*
X16688092Y-21222975D01*
X16680887Y-21159455D01*
X16673165Y-21088784D01*
X16667805Y-21036173D01*
X16665333Y-21006050D01*
X16665227Y-21002609D01*
X16654302Y-20989577D01*
X16623997Y-20963265D01*
X16578014Y-20926638D01*
X16520055Y-20882655D01*
X16464139Y-20841702D01*
X16203264Y-20648695D01*
X15941336Y-20445596D01*
X15685658Y-20238283D01*
X15443533Y-20032635D01*
X15291833Y-19898081D01*
X15226799Y-19839395D01*
X15163873Y-19782846D01*
X15108219Y-19733055D01*
X15065000Y-19694648D01*
X15046255Y-19678180D01*
X14981678Y-19621970D01*
X14856123Y-19755791D01*
X14602303Y-20036082D01*
X14373143Y-20309528D01*
X14168878Y-20575753D01*
X13989743Y-20834379D01*
X13835973Y-21085032D01*
X13707802Y-21327333D01*
X13605464Y-21560907D01*
X13529196Y-21785377D01*
X13489199Y-21947749D01*
X13466847Y-22097061D01*
X13459378Y-22247465D01*
X13466348Y-22393232D01*
X13487317Y-22528634D01*
X13521843Y-22647944D01*
X13547729Y-22707164D01*
X13630969Y-22841808D01*
X13735015Y-22961277D01*
X13855368Y-23060483D01*
X13867053Y-23068382D01*
X13905752Y-23095739D01*
X13932755Y-23118005D01*
X13941778Y-23129421D01*
X13938454Y-23148309D01*
X13929844Y-23185514D01*
X13920612Y-23222110D01*
X13908345Y-23283110D01*
X13900705Y-23347867D01*
X13899445Y-23378021D01*
X13897601Y-23419596D01*
X13892861Y-23446696D01*
X13888638Y-23452667D01*
X13867188Y-23444982D01*
X13828551Y-23424314D01*
X13778392Y-23394243D01*
X13722376Y-23358350D01*
X13666165Y-23320213D01*
X13615424Y-23283414D01*
X13592297Y-23265362D01*
X13478797Y-23158322D01*
X13375141Y-23030898D01*
X13286460Y-22890531D01*
X13217885Y-22744665D01*
X13200919Y-22697723D01*
X13166553Y-22564351D01*
X13145186Y-22413654D01*
X13137256Y-22253577D01*
X13143199Y-22092066D01*
X13160117Y-21955848D01*
X13213002Y-21720615D01*
X13292799Y-21477622D01*
X13399527Y-21226839D01*
X13533205Y-20968233D01*
X13693852Y-20701772D01*
X13881486Y-20427427D01*
X14096127Y-20145164D01*
X14337794Y-19854952D01*
X14584864Y-19579993D01*
X14753239Y-19398744D01*
X15213239Y-19398744D01*
X15392425Y-19561396D01*
X15521277Y-19677371D01*
X15640125Y-19782017D01*
X15756972Y-19882186D01*
X15879821Y-19984730D01*
X16016676Y-20096502D01*
X16030223Y-20107466D01*
X16111837Y-20172900D01*
X16196679Y-20239895D01*
X16281705Y-20306148D01*
X16363870Y-20369353D01*
X16440129Y-20427208D01*
X16507438Y-20477406D01*
X16562752Y-20517644D01*
X16603026Y-20545618D01*
X16625217Y-20559023D01*
X16627947Y-20559860D01*
X16634477Y-20548415D01*
X16632388Y-20528139D01*
X16629972Y-20506556D01*
X16626763Y-20460459D01*
X16622953Y-20393538D01*
X16618732Y-20309484D01*
X16614292Y-20211989D01*
X16609822Y-20104741D01*
X16607761Y-20051889D01*
X16602809Y-19887625D01*
X16599647Y-19706077D01*
X16598220Y-19512986D01*
X16598292Y-19457084D01*
X16925925Y-19457084D01*
X16926239Y-19644633D01*
X16927610Y-19827974D01*
X16930036Y-20004253D01*
X16933519Y-20170619D01*
X16938058Y-20324218D01*
X16943652Y-20462197D01*
X16950303Y-20581702D01*
X16958009Y-20679881D01*
X16966772Y-20753881D01*
X16970671Y-20776576D01*
X16976215Y-20791149D01*
X16989092Y-20808094D01*
X17011932Y-20829441D01*
X17047365Y-20857219D01*
X17098022Y-20893455D01*
X17166534Y-20940178D01*
X17255530Y-20999417D01*
X17284033Y-21018229D01*
X17565692Y-21199584D01*
X17863405Y-21383283D01*
X18166430Y-21562801D01*
X18400889Y-21696468D01*
X18459435Y-21728708D01*
X18532961Y-21768365D01*
X18618279Y-21813793D01*
X18712200Y-21863346D01*
X18811537Y-21915378D01*
X18913101Y-21968240D01*
X19013706Y-22020287D01*
X19110161Y-22069872D01*
X19199281Y-22115348D01*
X19277876Y-22155070D01*
X19342758Y-22187389D01*
X19390740Y-22210659D01*
X19418634Y-22223235D01*
X19424154Y-22225000D01*
X19438290Y-22218895D01*
X19474445Y-22201619D01*
X19529448Y-22174734D01*
X19600130Y-22139801D01*
X19683322Y-22098383D01*
X19775855Y-22052041D01*
X19809029Y-22035366D01*
X20180147Y-21843926D01*
X20531958Y-21652337D01*
X20872971Y-21455689D01*
X21211696Y-21249070D01*
X21556644Y-21027572D01*
X21563518Y-21023053D01*
X21882758Y-20813099D01*
X21891530Y-20704133D01*
X21904257Y-20529253D01*
X21905227Y-20512223D01*
X22227282Y-20512223D01*
X22227465Y-20546370D01*
X22230847Y-20559878D01*
X22230988Y-20559889D01*
X22244908Y-20551827D01*
X22277161Y-20529600D01*
X22323631Y-20496149D01*
X22380202Y-20454413D01*
X22412548Y-20430184D01*
X22583690Y-20299073D01*
X22759716Y-20160010D01*
X22935714Y-20017080D01*
X23106772Y-19874369D01*
X23267977Y-19735964D01*
X23414418Y-19605948D01*
X23514751Y-19513443D01*
X23640334Y-19395276D01*
X23437140Y-19211379D01*
X23252479Y-19046322D01*
X23078976Y-18895893D01*
X22908935Y-18753717D01*
X22734657Y-18613424D01*
X22548445Y-18468639D01*
X22445178Y-18390090D01*
X22378818Y-18340481D01*
X22320407Y-18297845D01*
X22273539Y-18264723D01*
X22241806Y-18243652D01*
X22228801Y-18237170D01*
X22228757Y-18237207D01*
X22227751Y-18252384D01*
X22228110Y-18291889D01*
X22229715Y-18351866D01*
X22232447Y-18428458D01*
X22236187Y-18517811D01*
X22239850Y-18596410D01*
X22242891Y-18677017D01*
X22245337Y-18778976D01*
X22247204Y-18898791D01*
X22248512Y-19032964D01*
X22249278Y-19178000D01*
X22249520Y-19330401D01*
X22249255Y-19486672D01*
X22248501Y-19643315D01*
X22247277Y-19796833D01*
X22245599Y-19943732D01*
X22243486Y-20080513D01*
X22240955Y-20203681D01*
X22238025Y-20309739D01*
X22234712Y-20395190D01*
X22231036Y-20456537D01*
X22230347Y-20464639D01*
X22227282Y-20512223D01*
X21905227Y-20512223D01*
X21914440Y-20350557D01*
X21922226Y-20163493D01*
X21927760Y-19963508D01*
X21931188Y-19746051D01*
X21932656Y-19506569D01*
X21932734Y-19416889D01*
X21932315Y-19228159D01*
X21931060Y-19061329D01*
X21928770Y-18910087D01*
X21925243Y-18768117D01*
X21920280Y-18629107D01*
X21913681Y-18486742D01*
X21905244Y-18334707D01*
X21894769Y-18166691D01*
X21891448Y-18115976D01*
X21882415Y-17979230D01*
X21605680Y-17797266D01*
X21179387Y-17524630D01*
X20756464Y-17270061D01*
X20327505Y-17028140D01*
X19883107Y-16793450D01*
X19717825Y-16709835D01*
X19433149Y-16567386D01*
X19266269Y-16646614D01*
X19021705Y-16766685D01*
X18760518Y-16902256D01*
X18487585Y-17050543D01*
X18207781Y-17208763D01*
X17925983Y-17374131D01*
X17647066Y-17543863D01*
X17375907Y-17715176D01*
X17242014Y-17802363D01*
X16979193Y-17975360D01*
X16970630Y-18050541D01*
X16961437Y-18147574D01*
X16953301Y-18266076D01*
X16946221Y-18403195D01*
X16940197Y-18556078D01*
X16935230Y-18721870D01*
X16931320Y-18897720D01*
X16928465Y-19080775D01*
X16926667Y-19268180D01*
X16925925Y-19457084D01*
X16598292Y-19457084D01*
X16598477Y-19314093D01*
X16600364Y-19115138D01*
X16603830Y-18921863D01*
X16608821Y-18740007D01*
X16615286Y-18575313D01*
X16622497Y-18443760D01*
X16626792Y-18370985D01*
X16629664Y-18308814D01*
X16630935Y-18262392D01*
X16630432Y-18236866D01*
X16629672Y-18233635D01*
X16615828Y-18238933D01*
X16582628Y-18260281D01*
X16532514Y-18295797D01*
X16467924Y-18343601D01*
X16391296Y-18401811D01*
X16305071Y-18468545D01*
X16211687Y-18541922D01*
X16113583Y-18620061D01*
X16013199Y-18701079D01*
X15912973Y-18783097D01*
X15853834Y-18832083D01*
X15745754Y-18922471D01*
X15653467Y-19000741D01*
X15570710Y-19072380D01*
X15491219Y-19142876D01*
X15408733Y-19217719D01*
X15316986Y-19302395D01*
X15314814Y-19304412D01*
X15213239Y-19398744D01*
X14753239Y-19398744D01*
X14756102Y-19395663D01*
X14615572Y-19247526D01*
X14352604Y-18959365D01*
X14114171Y-18675273D01*
X13900606Y-18395784D01*
X13712244Y-18121432D01*
X13549417Y-17852749D01*
X13412460Y-17590268D01*
X13301707Y-17334523D01*
X13217491Y-17086047D01*
X13184691Y-16961556D01*
X13164323Y-16854395D01*
X13149541Y-16732997D01*
X13140791Y-16606115D01*
X13138700Y-16492487D01*
X13460190Y-16492487D01*
X13462230Y-16617712D01*
X13472956Y-16742617D01*
X13489267Y-16843977D01*
X13543783Y-17054378D01*
X13623326Y-17274930D01*
X13727141Y-17504299D01*
X13854474Y-17741152D01*
X14004572Y-17984155D01*
X14176682Y-18231974D01*
X14370048Y-18483276D01*
X14512797Y-18654889D01*
X14579689Y-18732021D01*
X14649314Y-18810674D01*
X14718989Y-18887979D01*
X14786034Y-18961068D01*
X14847767Y-19027071D01*
X14901506Y-19083120D01*
X14944570Y-19126346D01*
X14974277Y-19153879D01*
X14987631Y-19162889D01*
X15002693Y-19153735D01*
X15033415Y-19128881D01*
X15075162Y-19092243D01*
X15118174Y-19052579D01*
X15298312Y-18887613D01*
X15497954Y-18713272D01*
X15711892Y-18533815D01*
X15934921Y-18353500D01*
X16161833Y-18176586D01*
X16387422Y-18007333D01*
X16466634Y-17949585D01*
X16539895Y-17896064D01*
X16593137Y-17855513D01*
X16629617Y-17824941D01*
X16652592Y-17801357D01*
X16665318Y-17781770D01*
X16671052Y-17763188D01*
X16671316Y-17761596D01*
X16675298Y-17731715D01*
X16681454Y-17680075D01*
X16689059Y-17612989D01*
X16696801Y-17542139D01*
X17018000Y-17542139D01*
X17023562Y-17548102D01*
X17041856Y-17543146D01*
X17075292Y-17525994D01*
X17126284Y-17495370D01*
X17197244Y-17449997D01*
X17219084Y-17435743D01*
X17295460Y-17386444D01*
X17388398Y-17327550D01*
X17490197Y-17263880D01*
X17593152Y-17200248D01*
X17689561Y-17141471D01*
X17695274Y-17138020D01*
X17887116Y-17024026D01*
X18087588Y-16908256D01*
X18289907Y-16794488D01*
X18487288Y-16686502D01*
X18672949Y-16588076D01*
X18792421Y-16526832D01*
X18867741Y-16488435D01*
X18933588Y-16454038D01*
X18986106Y-16425725D01*
X19021434Y-16405580D01*
X19035716Y-16395688D01*
X19035838Y-16395349D01*
X19033312Y-16393629D01*
X19809676Y-16393629D01*
X20075422Y-16531484D01*
X20387871Y-16697250D01*
X20699575Y-16869751D01*
X21004330Y-17045394D01*
X21295931Y-17220586D01*
X21568171Y-17391736D01*
X21625014Y-17428597D01*
X21692923Y-17472647D01*
X21752099Y-17510555D01*
X21798748Y-17539928D01*
X21829073Y-17558373D01*
X21839284Y-17563642D01*
X21838475Y-17549443D01*
X21834538Y-17511540D01*
X21827967Y-17454221D01*
X21819254Y-17381772D01*
X21808894Y-17298478D01*
X21807298Y-17285860D01*
X21767792Y-16994815D01*
X21724613Y-16718359D01*
X21675575Y-16442899D01*
X21652210Y-16321715D01*
X21631986Y-16220961D01*
X21611271Y-16121237D01*
X21590952Y-16026476D01*
X21571911Y-15940611D01*
X21555035Y-15867575D01*
X21541209Y-15811300D01*
X21531317Y-15775720D01*
X21526915Y-15764878D01*
X21511706Y-15766631D01*
X21473955Y-15776097D01*
X21417866Y-15791979D01*
X21347641Y-15812978D01*
X21267484Y-15837795D01*
X21181597Y-15865131D01*
X21094183Y-15893688D01*
X21009446Y-15922166D01*
X20940889Y-15945967D01*
X20755187Y-16012919D01*
X20566624Y-16083284D01*
X20380922Y-16154813D01*
X20203804Y-16225262D01*
X20040991Y-16292382D01*
X19898205Y-16353926D01*
X19870811Y-16366152D01*
X19809676Y-16393629D01*
X19033312Y-16393629D01*
X19023262Y-16386788D01*
X18987722Y-16369407D01*
X18932569Y-16344594D01*
X18861151Y-16313734D01*
X18776818Y-16278215D01*
X18682918Y-16239423D01*
X18582800Y-16198745D01*
X18479815Y-16157567D01*
X18377310Y-16117277D01*
X18278636Y-16079261D01*
X18209454Y-16053186D01*
X18095537Y-16011413D01*
X17979108Y-15969953D01*
X17863289Y-15929810D01*
X17751203Y-15891985D01*
X17645972Y-15857481D01*
X17550719Y-15827300D01*
X17468565Y-15802443D01*
X17402634Y-15783914D01*
X17356047Y-15772714D01*
X17331927Y-15769846D01*
X17329538Y-15770761D01*
X17323419Y-15787730D01*
X17312613Y-15828095D01*
X17298077Y-15887598D01*
X17280763Y-15961982D01*
X17261626Y-16046991D01*
X17241619Y-16138366D01*
X17221698Y-16231851D01*
X17202816Y-16323188D01*
X17185926Y-16408120D01*
X17181262Y-16432389D01*
X17165514Y-16518591D01*
X17148214Y-16619251D01*
X17129946Y-16730402D01*
X17111293Y-16848077D01*
X17092840Y-16968307D01*
X17075170Y-17087127D01*
X17058866Y-17200569D01*
X17044513Y-17304665D01*
X17032693Y-17395449D01*
X17023991Y-17468954D01*
X17018990Y-17521211D01*
X17018000Y-17542139D01*
X16696801Y-17542139D01*
X16697388Y-17536769D01*
X16700792Y-17504834D01*
X16738614Y-17187398D01*
X16785846Y-16857340D01*
X16840721Y-16525520D01*
X16901474Y-16202799D01*
X16949719Y-15973778D01*
X16967975Y-15890724D01*
X16984045Y-15816432D01*
X16996938Y-15755578D01*
X17005664Y-15712839D01*
X17009231Y-15692890D01*
X17009241Y-15692783D01*
X17001056Y-15681486D01*
X16973776Y-15668041D01*
X16925970Y-15652065D01*
X16856204Y-15633172D01*
X16763046Y-15610980D01*
X16645063Y-15585103D01*
X16500822Y-15555156D01*
X16481778Y-15551291D01*
X16140082Y-15489443D01*
X15812773Y-15445088D01*
X15501025Y-15418244D01*
X15206012Y-15408930D01*
X14928906Y-15417165D01*
X14670881Y-15442968D01*
X14433111Y-15486357D01*
X14315723Y-15516485D01*
X14133353Y-15579792D01*
X13970202Y-15659722D01*
X13827451Y-15755200D01*
X13706279Y-15865146D01*
X13607867Y-15988485D01*
X13533394Y-16124138D01*
X13484040Y-16271028D01*
X13482595Y-16277167D01*
X13466943Y-16375965D01*
X13460190Y-16492487D01*
X13138700Y-16492487D01*
X13138516Y-16482501D01*
X13143163Y-16370909D01*
X13151167Y-16302158D01*
X13179337Y-16176112D01*
X13222407Y-16044383D01*
X13275746Y-15919985D01*
X13310411Y-15854861D01*
X13383832Y-15748651D01*
X13479143Y-15641293D01*
X13590698Y-15537830D01*
X13712852Y-15443301D01*
X13839960Y-15362750D01*
X13893133Y-15334465D01*
X13998581Y-15288187D01*
X14125936Y-15242966D01*
X14268895Y-15200545D01*
X14421149Y-15162663D01*
X14576394Y-15131060D01*
X14703778Y-15110738D01*
X14769099Y-15104292D01*
X14857212Y-15099286D01*
X14962725Y-15095722D01*
X15080245Y-15093596D01*
X15204379Y-15092910D01*
X15329735Y-15093663D01*
X15450920Y-15095853D01*
X15562541Y-15099480D01*
X15659205Y-15104543D01*
X15733889Y-15110861D01*
X15876502Y-15128298D01*
X16035925Y-15150632D01*
X16201842Y-15176245D01*
X16363936Y-15203521D01*
X16511888Y-15230840D01*
X16559300Y-15240291D01*
X16649139Y-15259041D01*
X16741759Y-15279097D01*
X16832220Y-15299316D01*
X16915582Y-15318553D01*
X16986904Y-15335667D01*
X17041246Y-15349514D01*
X17073667Y-15358951D01*
X17076435Y-15359954D01*
X17089337Y-15358359D01*
X17102123Y-15340341D01*
X17116968Y-15301802D01*
X17130373Y-15258286D01*
X17149441Y-15194871D01*
X17172969Y-15119278D01*
X17199461Y-15036040D01*
X17227418Y-14949689D01*
X17255343Y-14864757D01*
X17281739Y-14785775D01*
X17305108Y-14717277D01*
X17323953Y-14663795D01*
X17336776Y-14629859D01*
X17341080Y-14620571D01*
X17352167Y-14611732D01*
X17372385Y-14612218D01*
X17407743Y-14623019D01*
X17446526Y-14637972D01*
X17502911Y-14658571D01*
X17557825Y-14675410D01*
X17595195Y-14684031D01*
X17651171Y-14692981D01*
X17590544Y-14864185D01*
X17566259Y-14934632D01*
X17540058Y-15013800D01*
X17513271Y-15097300D01*
X17487229Y-15180742D01*
X17463261Y-15259735D01*
X17442698Y-15329890D01*
X17426871Y-15386815D01*
X17417108Y-15426120D01*
X17414742Y-15443416D01*
X17414939Y-15443745D01*
X17429095Y-15449218D01*
X17466874Y-15462508D01*
X17525115Y-15482537D01*
X17600657Y-15508229D01*
X17690339Y-15538508D01*
X17791000Y-15572297D01*
X17864667Y-15596916D01*
X18231016Y-15724436D01*
X18596414Y-15861895D01*
X18950908Y-16005448D01*
X19200177Y-16113255D01*
X19427965Y-16214725D01*
X19637622Y-16120788D01*
X19891018Y-16010712D01*
X20159756Y-15900315D01*
X20435697Y-15792703D01*
X20710699Y-15690983D01*
X20735758Y-15682245D01*
X21844000Y-15682245D01*
X21846978Y-15700404D01*
X21855243Y-15741366D01*
X21867798Y-15800421D01*
X21883642Y-15872859D01*
X21899768Y-15945065D01*
X21956354Y-16212413D01*
X22010353Y-16499192D01*
X22060346Y-16796637D01*
X22104914Y-17095982D01*
X22142638Y-17388459D01*
X22162681Y-17569406D01*
X22186739Y-17803311D01*
X22421064Y-17974888D01*
X22714671Y-18194298D01*
X22988245Y-18408224D01*
X23247955Y-18621671D01*
X23499968Y-18839648D01*
X23629056Y-18955571D01*
X23711709Y-19029973D01*
X23776007Y-19086069D01*
X23823764Y-19125296D01*
X23856795Y-19149086D01*
X23876917Y-19158875D01*
X23884844Y-19157686D01*
X23899638Y-19142253D01*
X23929988Y-19110180D01*
X23972160Y-19065428D01*
X24022421Y-19011956D01*
X24051966Y-18980470D01*
X24268908Y-18740480D01*
X24470820Y-18499583D01*
X24655716Y-18260471D01*
X24821612Y-18025835D01*
X24966523Y-17798370D01*
X25088464Y-17580766D01*
X25098900Y-17560471D01*
X25173826Y-17407895D01*
X25234702Y-17270441D01*
X25284470Y-17140697D01*
X25326073Y-17011254D01*
X25347169Y-16935113D01*
X25363944Y-16868895D01*
X25375751Y-16813782D01*
X25383467Y-16761949D01*
X25387968Y-16705573D01*
X25390130Y-16636830D01*
X25390831Y-16547894D01*
X25390837Y-16545278D01*
X25390693Y-16457796D01*
X25389299Y-16392023D01*
X25385942Y-16341454D01*
X25379906Y-16299580D01*
X25370475Y-16259895D01*
X25356936Y-16215891D01*
X25353508Y-16205505D01*
X25290025Y-16057738D01*
X25203285Y-15924142D01*
X25095523Y-15807764D01*
X25012664Y-15740934D01*
X24865254Y-15648941D01*
X24701956Y-15572466D01*
X24521369Y-15511204D01*
X24322094Y-15464850D01*
X24102729Y-15433099D01*
X23861874Y-15415646D01*
X23598128Y-15412187D01*
X23509973Y-15413949D01*
X23256462Y-15426038D01*
X23003213Y-15448883D01*
X22744276Y-15483295D01*
X22473698Y-15530082D01*
X22185527Y-15590055D01*
X22140334Y-15600257D01*
X22062458Y-15617975D01*
X21991642Y-15634034D01*
X21933664Y-15647128D01*
X21894299Y-15655950D01*
X21882806Y-15658481D01*
X21854696Y-15669357D01*
X21844000Y-15682245D01*
X20735758Y-15682245D01*
X20976624Y-15598259D01*
X21187733Y-15529375D01*
X21267372Y-15504210D01*
X21337137Y-15481944D01*
X21392802Y-15463944D01*
X21430141Y-15451577D01*
X21444926Y-15446210D01*
X21444986Y-15446163D01*
X21442741Y-15431444D01*
X21432833Y-15394014D01*
X21416523Y-15337934D01*
X21395077Y-15267265D01*
X21369759Y-15186070D01*
X21341833Y-15098408D01*
X21312562Y-15008343D01*
X21283213Y-14919934D01*
X21259107Y-14849006D01*
X21177483Y-14623793D01*
X21091091Y-14410276D01*
X20995121Y-14197141D01*
X20896498Y-13996129D01*
X20756491Y-13738078D01*
X20612479Y-13507951D01*
X20464465Y-13305751D01*
X20312451Y-13131482D01*
X20156438Y-12985144D01*
X19996430Y-12866741D01*
X19893044Y-12806212D01*
X19797701Y-12758958D01*
X19714845Y-12725582D01*
X19634577Y-12702774D01*
X19546998Y-12687223D01*
X19530891Y-12685091D01*
X19384520Y-12679073D01*
X19238345Y-12698687D01*
X19091094Y-12744386D01*
X18941499Y-12816621D01*
X18788289Y-12915843D01*
X18707088Y-12977999D01*
X18611120Y-13055155D01*
X18551866Y-12993306D01*
X18507617Y-12949630D01*
X18459952Y-12906287D01*
X18436167Y-12886334D01*
X18379723Y-12841210D01*
X18457334Y-12770291D01*
X18516989Y-12720061D01*
X18590972Y-12664153D01*
X18672032Y-12607472D01*
X18752920Y-12554923D01*
X18826384Y-12511409D01*
X18881235Y-12483549D01*
X18932299Y-12462550D01*
X18997768Y-12437790D01*
X19065124Y-12413972D01*
X19078300Y-12409542D01*
X19125922Y-12394332D01*
X19166834Y-12383569D01*
X19207627Y-12376496D01*
X19254892Y-12372355D01*
X19315220Y-12370390D01*
X19395203Y-12369843D01*
X19423945Y-12369842D01*
X19512281Y-12370309D01*
M02*
