%TF.GenerationSoftware,KiCad,Pcbnew,4.0.7*%
%TF.CreationDate,2018-07-15T20:14:49+02:00*%
%TF.ProjectId,KeyPad,4B65795061642E6B696361645F706362,v1.0*%
%TF.FileFunction,Copper,L1,Top,Signal*%
%FSLAX46Y46*%
G04 Gerber Fmt 4.6, Leading zero omitted, Abs format (unit mm)*
G04 Created by KiCad (PCBNEW 4.0.7) date 07/15/18 20:14:49*
%MOMM*%
%LPD*%
G01*
G04 APERTURE LIST*
%ADD10C,0.127000*%
%ADD11C,1.727200*%
%ADD12R,1.200000X1.700000*%
%ADD13O,1.200000X1.700000*%
%ADD14R,1.300000X0.700000*%
%ADD15C,0.685800*%
%ADD16C,0.500000*%
%ADD17C,0.400000*%
%ADD18C,0.254000*%
G04 APERTURE END LIST*
D10*
D11*
X32580104Y-2308794D02*
X33514050Y-1374848D01*
X36172206Y-5900896D02*
X37106152Y-4966950D01*
X23599848Y-11289050D02*
X24533794Y-10355104D01*
X27191950Y-14881152D02*
X28125896Y-13947206D01*
X10736104Y-2308794D02*
X11670050Y-1374848D01*
X14328206Y-5900896D02*
X15262152Y-4966950D01*
X1755848Y-11289050D02*
X2689794Y-10355104D01*
X5347950Y-14881152D02*
X6281896Y-13947206D01*
D12*
X17805400Y-36626800D03*
D13*
X19805400Y-36626800D03*
X21805400Y-36626800D03*
D14*
X4953000Y-18481000D03*
X4953000Y-20381000D03*
X2413000Y-20381000D03*
X2413000Y-18481000D03*
X36703000Y-20381000D03*
X36703000Y-18481000D03*
X34163000Y-18481000D03*
X34163000Y-20381000D03*
D11*
X10736104Y-24152794D02*
X11670050Y-23218848D01*
X14328206Y-27744896D02*
X15262152Y-26810950D01*
X1755848Y-33133050D02*
X2689794Y-32199104D01*
X5347950Y-36725152D02*
X6281896Y-35791206D01*
X32580104Y-24152794D02*
X33514050Y-23218848D01*
X36172206Y-27744896D02*
X37106152Y-26810950D01*
X23599848Y-33133050D02*
X24533794Y-32199104D01*
X27191950Y-36725152D02*
X28125896Y-35791206D01*
D15*
X33528000Y-26416000D03*
X6858000Y-27686000D03*
D16*
X19805400Y-36626800D02*
X19805400Y-34715200D01*
X6416000Y-18481000D02*
X4953000Y-18481000D01*
X7086600Y-19151600D02*
X6416000Y-18481000D01*
X7086600Y-23012400D02*
X7086600Y-19151600D01*
X10337800Y-26263600D02*
X7086600Y-23012400D01*
X10337800Y-29565600D02*
X10337800Y-26263600D01*
X14554200Y-33782000D02*
X10337800Y-29565600D01*
X18872200Y-33782000D02*
X14554200Y-33782000D01*
X19805400Y-34715200D02*
X18872200Y-33782000D01*
X36703000Y-20381000D02*
X36703000Y-23241000D01*
X36703000Y-23241000D02*
X33528000Y-26416000D01*
X36703000Y-20381000D02*
X36703000Y-20066000D01*
X2222821Y-32666077D02*
X2222821Y-32321179D01*
X2222821Y-32321179D02*
X6858000Y-27686000D01*
D17*
X2413000Y-18481000D02*
X2413000Y-17526000D01*
X11203077Y-18696077D02*
X11203077Y-19431000D01*
X11203077Y-19431000D02*
X11203077Y-20701000D01*
X11203077Y-20701000D02*
X11203077Y-23685821D01*
X9398000Y-16891000D02*
X11203077Y-18696077D01*
X3048000Y-16891000D02*
X9398000Y-16891000D01*
X2413000Y-17526000D02*
X3048000Y-16891000D01*
D16*
X24066821Y-10822077D02*
X33047077Y-1841821D01*
X36703000Y-18481000D02*
X34163000Y-18481000D01*
X33047077Y-1841821D02*
X33047077Y-12600077D01*
X36703000Y-16256000D02*
X36703000Y-18481000D01*
X33047077Y-12600077D02*
X36703000Y-16256000D01*
X33047077Y-23685821D02*
X33047077Y-21816923D01*
X33047077Y-21816923D02*
X34163000Y-20701000D01*
X34163000Y-20701000D02*
X34163000Y-20381000D01*
X24066821Y-32666077D02*
X33047077Y-23685821D01*
X17805400Y-36626800D02*
X15265400Y-36626800D01*
X4953000Y-22250400D02*
X4953000Y-20381000D01*
X9169400Y-26466800D02*
X4953000Y-22250400D01*
X9169400Y-30530800D02*
X9169400Y-26466800D01*
X15265400Y-36626800D02*
X9169400Y-30530800D01*
X823000Y-20381000D02*
X2413000Y-20381000D01*
X508000Y-20066000D02*
X823000Y-20381000D01*
X508000Y-17526000D02*
X508000Y-20066000D01*
D17*
X2413000Y-20381000D02*
X4953000Y-20381000D01*
D16*
X2222821Y-15811179D02*
X508000Y-17526000D01*
X2222821Y-10822077D02*
X2222821Y-15811179D01*
D17*
X2222821Y-10822077D02*
X11203077Y-1841821D01*
D18*
G36*
X36791710Y541551D02*
X36073628Y244845D01*
X35444364Y-383321D01*
X35103389Y-1204481D01*
X35102613Y-2093619D01*
X35442155Y-2915372D01*
X36070321Y-3544636D01*
X36390006Y-3677381D01*
X36136285Y-3817477D01*
X35669311Y-4284450D01*
X36639179Y-5254318D01*
X37959501Y-3933996D01*
X37925728Y-3826429D01*
X38602372Y-3546845D01*
X39231636Y-2918679D01*
X39530756Y-2198318D01*
X39814500Y-3624794D01*
X39814500Y-35237206D01*
X39530551Y-36664710D01*
X39233845Y-35946628D01*
X38605679Y-35317364D01*
X37784519Y-34976389D01*
X36895381Y-34975613D01*
X36073628Y-35315155D01*
X35444364Y-35943321D01*
X35103389Y-36764481D01*
X35102613Y-37653619D01*
X35442155Y-38475372D01*
X36070321Y-39104636D01*
X36790682Y-39403756D01*
X35364201Y-39687500D01*
X3751794Y-39687500D01*
X2324290Y-39403551D01*
X3042372Y-39106845D01*
X3671636Y-38478679D01*
X3970843Y-37758106D01*
X4494601Y-37758106D01*
X4573009Y-38007833D01*
X4657128Y-38061078D01*
X5220950Y-38223753D01*
X5804106Y-38158279D01*
X6317817Y-37874625D01*
X6784791Y-37407652D01*
X5814923Y-36437784D01*
X4494601Y-37758106D01*
X3970843Y-37758106D01*
X4012611Y-37657519D01*
X4012821Y-37417233D01*
X4065269Y-37500093D01*
X4314996Y-37578501D01*
X5635318Y-36258179D01*
X5994528Y-36258179D01*
X6964396Y-37228047D01*
X7431369Y-36761073D01*
X7715023Y-36247362D01*
X7780497Y-35664206D01*
X7617822Y-35100384D01*
X7564577Y-35016265D01*
X7314850Y-34937857D01*
X5994528Y-36258179D01*
X5635318Y-36258179D01*
X4665450Y-35288311D01*
X4198477Y-35755285D01*
X3914823Y-36268996D01*
X3891794Y-36474105D01*
X3673845Y-35946628D01*
X3045679Y-35317364D01*
X2543175Y-35108706D01*
X4845055Y-35108706D01*
X5814923Y-36078574D01*
X7135245Y-34758252D01*
X7056837Y-34508525D01*
X6972718Y-34455280D01*
X6408896Y-34292605D01*
X5825740Y-34358079D01*
X5312029Y-34641733D01*
X4845055Y-35108706D01*
X2543175Y-35108706D01*
X2224519Y-34976389D01*
X1335381Y-34975613D01*
X513628Y-35315155D01*
X-115636Y-35943321D01*
X-414756Y-36663682D01*
X-698500Y-35237201D01*
X-698500Y-33162959D01*
X227339Y-33162959D01*
X341413Y-33736449D01*
X666269Y-34222629D01*
X1152449Y-34547485D01*
X1725939Y-34661559D01*
X2299429Y-34547485D01*
X2785609Y-34222629D01*
X3779374Y-33228865D01*
X4104229Y-32742684D01*
X4218303Y-32169195D01*
X4120098Y-31675482D01*
X7187733Y-28607846D01*
X7411212Y-28515507D01*
X7686540Y-28240659D01*
X7835730Y-27881370D01*
X7836069Y-27492337D01*
X7687507Y-27132788D01*
X7412659Y-26857460D01*
X7053370Y-26708270D01*
X6664337Y-26707931D01*
X6304788Y-26856493D01*
X6029460Y-27131341D01*
X5935997Y-27356423D01*
X2597522Y-30694898D01*
X2146214Y-30784669D01*
X1660033Y-31109524D01*
X666269Y-32103289D01*
X341413Y-32589469D01*
X227339Y-33162959D01*
X-698500Y-33162959D01*
X-698500Y-17526000D01*
X-377001Y-17526000D01*
X-377000Y-17526005D01*
X-377000Y-20065995D01*
X-377001Y-20066000D01*
X-320810Y-20348484D01*
X-309633Y-20404675D01*
X-117790Y-20691790D01*
X197208Y-21006787D01*
X197210Y-21006790D01*
X484325Y-21198633D01*
X823000Y-21266001D01*
X823005Y-21266000D01*
X1421203Y-21266000D01*
X1511110Y-21327431D01*
X1763000Y-21378440D01*
X3063000Y-21378440D01*
X3298317Y-21334162D01*
X3481946Y-21216000D01*
X3888025Y-21216000D01*
X4051110Y-21327431D01*
X4068000Y-21330851D01*
X4068000Y-22250395D01*
X4067999Y-22250400D01*
X4124190Y-22532884D01*
X4135367Y-22589075D01*
X4191929Y-22673726D01*
X4327210Y-22876190D01*
X8284400Y-26833379D01*
X8284400Y-30530795D01*
X8284399Y-30530800D01*
X8312207Y-30670595D01*
X8351767Y-30869475D01*
X8512162Y-31109524D01*
X8543610Y-31156590D01*
X14639608Y-37252587D01*
X14639610Y-37252590D01*
X14926725Y-37444433D01*
X14982916Y-37455610D01*
X15265400Y-37511801D01*
X15265405Y-37511800D01*
X16564546Y-37511800D01*
X16602238Y-37712117D01*
X16741310Y-37928241D01*
X16953510Y-38073231D01*
X17205400Y-38124240D01*
X18405400Y-38124240D01*
X18640717Y-38079962D01*
X18856841Y-37940890D01*
X18956301Y-37795325D01*
X19332786Y-38046884D01*
X19805400Y-38140893D01*
X20278014Y-38046884D01*
X20678677Y-37779170D01*
X20807810Y-37585909D01*
X20976275Y-37808733D01*
X21396024Y-38055086D01*
X21487791Y-38070262D01*
X21678400Y-37945531D01*
X21678400Y-36753800D01*
X21932400Y-36753800D01*
X21932400Y-37945531D01*
X22123009Y-38070262D01*
X22214776Y-38055086D01*
X22634525Y-37808733D01*
X22672801Y-37758106D01*
X26338601Y-37758106D01*
X26417009Y-38007833D01*
X26501128Y-38061078D01*
X27064950Y-38223753D01*
X27648106Y-38158279D01*
X28161817Y-37874625D01*
X28628791Y-37407652D01*
X27658923Y-36437784D01*
X26338601Y-37758106D01*
X22672801Y-37758106D01*
X22928047Y-37420501D01*
X23050656Y-36949496D01*
X22969721Y-36852152D01*
X25693349Y-36852152D01*
X25856024Y-37415974D01*
X25909269Y-37500093D01*
X26158996Y-37578501D01*
X27479318Y-36258179D01*
X27838528Y-36258179D01*
X28808396Y-37228047D01*
X29275369Y-36761073D01*
X29559023Y-36247362D01*
X29624497Y-35664206D01*
X29461822Y-35100384D01*
X29408577Y-35016265D01*
X29158850Y-34937857D01*
X27838528Y-36258179D01*
X27479318Y-36258179D01*
X26509450Y-35288311D01*
X26042477Y-35755285D01*
X25758823Y-36268996D01*
X25693349Y-36852152D01*
X22969721Y-36852152D01*
X22887947Y-36753800D01*
X21932400Y-36753800D01*
X21678400Y-36753800D01*
X21658400Y-36753800D01*
X21658400Y-36499800D01*
X21678400Y-36499800D01*
X21678400Y-35308069D01*
X21932400Y-35308069D01*
X21932400Y-36499800D01*
X22887947Y-36499800D01*
X23050656Y-36304104D01*
X22928047Y-35833099D01*
X22634525Y-35444867D01*
X22214776Y-35198514D01*
X22123009Y-35183338D01*
X21932400Y-35308069D01*
X21678400Y-35308069D01*
X21487791Y-35183338D01*
X21396024Y-35198514D01*
X20976275Y-35444867D01*
X20807810Y-35667691D01*
X20690400Y-35491975D01*
X20690400Y-35108706D01*
X26689055Y-35108706D01*
X27658923Y-36078574D01*
X28979245Y-34758252D01*
X28900837Y-34508525D01*
X28816718Y-34455280D01*
X28252896Y-34292605D01*
X27669740Y-34358079D01*
X27156029Y-34641733D01*
X26689055Y-35108706D01*
X20690400Y-35108706D01*
X20690400Y-34715205D01*
X20690401Y-34715200D01*
X20623033Y-34376525D01*
X20610708Y-34358079D01*
X20431190Y-34089410D01*
X20431187Y-34089408D01*
X19497990Y-33156210D01*
X19471952Y-33138812D01*
X19210875Y-32964367D01*
X19123410Y-32946969D01*
X18872200Y-32896999D01*
X18872195Y-32897000D01*
X14920779Y-32897000D01*
X11222800Y-29199020D01*
X11222800Y-28777850D01*
X13474857Y-28777850D01*
X13553265Y-29027577D01*
X13637384Y-29080822D01*
X14201206Y-29243497D01*
X14784362Y-29178023D01*
X15298073Y-28894369D01*
X15765047Y-28427396D01*
X14795179Y-27457528D01*
X13474857Y-28777850D01*
X11222800Y-28777850D01*
X11222800Y-27871896D01*
X12829605Y-27871896D01*
X12992280Y-28435718D01*
X13045525Y-28519837D01*
X13295252Y-28598245D01*
X14615574Y-27277923D01*
X14974784Y-27277923D01*
X15944652Y-28247791D01*
X16411625Y-27780817D01*
X16695279Y-27267106D01*
X16760753Y-26683950D01*
X16598078Y-26120128D01*
X16544833Y-26036009D01*
X16295106Y-25957601D01*
X14974784Y-27277923D01*
X14615574Y-27277923D01*
X13645706Y-26308055D01*
X13178733Y-26775029D01*
X12895079Y-27288740D01*
X12829605Y-27871896D01*
X11222800Y-27871896D01*
X11222800Y-26263605D01*
X11222801Y-26263600D01*
X11195918Y-26128450D01*
X13825311Y-26128450D01*
X14795179Y-27098318D01*
X16115501Y-25777996D01*
X16037093Y-25528269D01*
X15952974Y-25475024D01*
X15389152Y-25312349D01*
X14805996Y-25377823D01*
X14292285Y-25661477D01*
X13825311Y-26128450D01*
X11195918Y-26128450D01*
X11155433Y-25924925D01*
X10963590Y-25637810D01*
X10963587Y-25637808D01*
X10957162Y-25631383D01*
X11279685Y-25567229D01*
X11765865Y-25242373D01*
X12759630Y-24248609D01*
X13084485Y-23762428D01*
X13198559Y-23188939D01*
X13084485Y-22615449D01*
X12759630Y-22129268D01*
X12273449Y-21804413D01*
X12038077Y-21757595D01*
X12038077Y-18696077D01*
X11974516Y-18376536D01*
X11793511Y-18105643D01*
X9988434Y-16300566D01*
X9863485Y-16217078D01*
X9717541Y-16119561D01*
X9398000Y-16056000D01*
X6271862Y-16056000D01*
X6317817Y-16030625D01*
X6434336Y-15914106D01*
X26338601Y-15914106D01*
X26417009Y-16163833D01*
X26501128Y-16217078D01*
X27064950Y-16379753D01*
X27648106Y-16314279D01*
X28161817Y-16030625D01*
X28628791Y-15563652D01*
X27658923Y-14593784D01*
X26338601Y-15914106D01*
X6434336Y-15914106D01*
X6784791Y-15563652D01*
X5814923Y-14593784D01*
X4494601Y-15914106D01*
X4539152Y-16056000D01*
X3059123Y-16056000D01*
X3107822Y-15811179D01*
X3107821Y-15811174D01*
X3107821Y-15008152D01*
X3849349Y-15008152D01*
X4012024Y-15571974D01*
X4065269Y-15656093D01*
X4314996Y-15734501D01*
X5635318Y-14414179D01*
X5994528Y-14414179D01*
X6964396Y-15384047D01*
X7340290Y-15008152D01*
X25693349Y-15008152D01*
X25856024Y-15571974D01*
X25909269Y-15656093D01*
X26158996Y-15734501D01*
X27479318Y-14414179D01*
X27838528Y-14414179D01*
X28808396Y-15384047D01*
X29275369Y-14917073D01*
X29559023Y-14403362D01*
X29624497Y-13820206D01*
X29461822Y-13256384D01*
X29408577Y-13172265D01*
X29158850Y-13093857D01*
X27838528Y-14414179D01*
X27479318Y-14414179D01*
X26509450Y-13444311D01*
X26042477Y-13911285D01*
X25758823Y-14424996D01*
X25693349Y-15008152D01*
X7340290Y-15008152D01*
X7431369Y-14917073D01*
X7715023Y-14403362D01*
X7780497Y-13820206D01*
X7620224Y-13264706D01*
X26689055Y-13264706D01*
X27658923Y-14234574D01*
X28979245Y-12914252D01*
X28900837Y-12664525D01*
X28816718Y-12611280D01*
X28252896Y-12448605D01*
X27669740Y-12514079D01*
X27156029Y-12797733D01*
X26689055Y-13264706D01*
X7620224Y-13264706D01*
X7617822Y-13256384D01*
X7564577Y-13172265D01*
X7314850Y-13093857D01*
X5994528Y-14414179D01*
X5635318Y-14414179D01*
X4665450Y-13444311D01*
X4198477Y-13911285D01*
X3914823Y-14424996D01*
X3849349Y-15008152D01*
X3107821Y-15008152D01*
X3107821Y-13264706D01*
X4845055Y-13264706D01*
X5814923Y-14234574D01*
X7135245Y-12914252D01*
X7056837Y-12664525D01*
X6972718Y-12611280D01*
X6408896Y-12448605D01*
X5825740Y-12514079D01*
X5312029Y-12797733D01*
X4845055Y-13264706D01*
X3107821Y-13264706D01*
X3107821Y-12056417D01*
X3779374Y-11384865D01*
X3823410Y-11318959D01*
X22071339Y-11318959D01*
X22185413Y-11892449D01*
X22510269Y-12378629D01*
X22996449Y-12703485D01*
X23569939Y-12817559D01*
X24143429Y-12703485D01*
X24629609Y-12378629D01*
X25623374Y-11384865D01*
X25948229Y-10898684D01*
X26062303Y-10325195D01*
X26021320Y-10119158D01*
X32162077Y-3978400D01*
X32162077Y-12600072D01*
X32162076Y-12600077D01*
X32182646Y-12703485D01*
X32229444Y-12938752D01*
X32421287Y-13225867D01*
X35818000Y-16622579D01*
X35818000Y-17527778D01*
X35817683Y-17527838D01*
X35711756Y-17596000D01*
X35154797Y-17596000D01*
X35064890Y-17534569D01*
X34813000Y-17483560D01*
X33513000Y-17483560D01*
X33277683Y-17527838D01*
X33061559Y-17666910D01*
X32916569Y-17879110D01*
X32865560Y-18131000D01*
X32865560Y-18831000D01*
X32909838Y-19066317D01*
X33048910Y-19282441D01*
X33261110Y-19427431D01*
X33274197Y-19430081D01*
X33061559Y-19566910D01*
X32916569Y-19779110D01*
X32865560Y-20031000D01*
X32865560Y-20731000D01*
X32868072Y-20744349D01*
X32421287Y-21191133D01*
X32229444Y-21478248D01*
X32229444Y-21478249D01*
X32162076Y-21816923D01*
X32162077Y-21816928D01*
X32162077Y-22451480D01*
X31490525Y-23123033D01*
X31165669Y-23609213D01*
X31051595Y-24182703D01*
X31092578Y-24388741D01*
X24769740Y-30711578D01*
X24563703Y-30670595D01*
X23990214Y-30784669D01*
X23504033Y-31109524D01*
X22510269Y-32103289D01*
X22185413Y-32589469D01*
X22071339Y-33162959D01*
X22185413Y-33736449D01*
X22510269Y-34222629D01*
X22996449Y-34547485D01*
X23569939Y-34661559D01*
X24143429Y-34547485D01*
X24629609Y-34222629D01*
X25623374Y-33228865D01*
X25948229Y-32742684D01*
X26062303Y-32169195D01*
X26021320Y-31963158D01*
X29206627Y-28777850D01*
X35318857Y-28777850D01*
X35397265Y-29027577D01*
X35481384Y-29080822D01*
X36045206Y-29243497D01*
X36628362Y-29178023D01*
X37142073Y-28894369D01*
X37609047Y-28427396D01*
X36639179Y-27457528D01*
X35318857Y-28777850D01*
X29206627Y-28777850D01*
X30112581Y-27871896D01*
X34673605Y-27871896D01*
X34836280Y-28435718D01*
X34889525Y-28519837D01*
X35139252Y-28598245D01*
X36459574Y-27277923D01*
X36818784Y-27277923D01*
X37788652Y-28247791D01*
X38255625Y-27780817D01*
X38539279Y-27267106D01*
X38604753Y-26683950D01*
X38442078Y-26120128D01*
X38388833Y-26036009D01*
X38139106Y-25957601D01*
X36818784Y-27277923D01*
X36459574Y-27277923D01*
X35489706Y-26308055D01*
X35022733Y-26775029D01*
X34739079Y-27288740D01*
X34673605Y-27871896D01*
X30112581Y-27871896D01*
X32344157Y-25640320D01*
X32550195Y-25681303D01*
X32961836Y-25599423D01*
X32699460Y-25861341D01*
X32550270Y-26220630D01*
X32549931Y-26609663D01*
X32698493Y-26969212D01*
X32973341Y-27244540D01*
X33332630Y-27393730D01*
X33721663Y-27394069D01*
X34081212Y-27245507D01*
X34356540Y-26970659D01*
X34450002Y-26745578D01*
X35067129Y-26128450D01*
X35669311Y-26128450D01*
X36639179Y-27098318D01*
X37959501Y-25777996D01*
X37881093Y-25528269D01*
X37796974Y-25475024D01*
X37233152Y-25312349D01*
X36649996Y-25377823D01*
X36136285Y-25661477D01*
X35669311Y-26128450D01*
X35067129Y-26128450D01*
X37328787Y-23866792D01*
X37328790Y-23866790D01*
X37520633Y-23579675D01*
X37566105Y-23351074D01*
X37588001Y-23241000D01*
X37588000Y-23240995D01*
X37588000Y-21334222D01*
X37588317Y-21334162D01*
X37804441Y-21195090D01*
X37949431Y-20982890D01*
X38000440Y-20731000D01*
X38000440Y-20031000D01*
X37956162Y-19795683D01*
X37817090Y-19579559D01*
X37604890Y-19434569D01*
X37591803Y-19431919D01*
X37804441Y-19295090D01*
X37949431Y-19082890D01*
X38000440Y-18831000D01*
X38000440Y-18131000D01*
X37956162Y-17895683D01*
X37817090Y-17679559D01*
X37604890Y-17534569D01*
X37588000Y-17531149D01*
X37588000Y-16256005D01*
X37588001Y-16256000D01*
X37520633Y-15917326D01*
X37520633Y-15917325D01*
X37328790Y-15630210D01*
X37328787Y-15630208D01*
X33932077Y-12233497D01*
X33932077Y-6933850D01*
X35318857Y-6933850D01*
X35397265Y-7183577D01*
X35481384Y-7236822D01*
X36045206Y-7399497D01*
X36628362Y-7334023D01*
X37142073Y-7050369D01*
X37609047Y-6583396D01*
X36639179Y-5613528D01*
X35318857Y-6933850D01*
X33932077Y-6933850D01*
X33932077Y-6027896D01*
X34673605Y-6027896D01*
X34836280Y-6591718D01*
X34889525Y-6675837D01*
X35139252Y-6754245D01*
X36459574Y-5433923D01*
X36818784Y-5433923D01*
X37788652Y-6403791D01*
X38255625Y-5936817D01*
X38539279Y-5423106D01*
X38604753Y-4839950D01*
X38442078Y-4276128D01*
X38388833Y-4192009D01*
X38139106Y-4113601D01*
X36818784Y-5433923D01*
X36459574Y-5433923D01*
X35489706Y-4464055D01*
X35022733Y-4931029D01*
X34739079Y-5444740D01*
X34673605Y-6027896D01*
X33932077Y-6027896D01*
X33932077Y-3076161D01*
X34603630Y-2404609D01*
X34928485Y-1918428D01*
X35042559Y-1344939D01*
X34928485Y-771449D01*
X34603630Y-285268D01*
X34117449Y39587D01*
X33543959Y153661D01*
X32970470Y39587D01*
X32484289Y-285268D01*
X31490525Y-1279033D01*
X31165669Y-1765213D01*
X31051595Y-2338703D01*
X31092578Y-2544741D01*
X24769740Y-8867578D01*
X24563703Y-8826595D01*
X23990214Y-8940669D01*
X23504033Y-9265524D01*
X22510269Y-10259289D01*
X22185413Y-10745469D01*
X22071339Y-11318959D01*
X3823410Y-11318959D01*
X4104229Y-10898684D01*
X4218303Y-10325195D01*
X4165588Y-10060178D01*
X7291916Y-6933850D01*
X13474857Y-6933850D01*
X13553265Y-7183577D01*
X13637384Y-7236822D01*
X14201206Y-7399497D01*
X14784362Y-7334023D01*
X15298073Y-7050369D01*
X15765047Y-6583396D01*
X14795179Y-5613528D01*
X13474857Y-6933850D01*
X7291916Y-6933850D01*
X8197870Y-6027896D01*
X12829605Y-6027896D01*
X12992280Y-6591718D01*
X13045525Y-6675837D01*
X13295252Y-6754245D01*
X14615574Y-5433923D01*
X14974784Y-5433923D01*
X15944652Y-6403791D01*
X16411625Y-5936817D01*
X16695279Y-5423106D01*
X16760753Y-4839950D01*
X16598078Y-4276128D01*
X16544833Y-4192009D01*
X16295106Y-4113601D01*
X14974784Y-5433923D01*
X14615574Y-5433923D01*
X13645706Y-4464055D01*
X13178733Y-4931029D01*
X12895079Y-5444740D01*
X12829605Y-6027896D01*
X8197870Y-6027896D01*
X9941316Y-4284450D01*
X13825311Y-4284450D01*
X14795179Y-5254318D01*
X16115501Y-3933996D01*
X16037093Y-3684269D01*
X15952974Y-3631024D01*
X15389152Y-3468349D01*
X14805996Y-3533823D01*
X14292285Y-3817477D01*
X13825311Y-4284450D01*
X9941316Y-4284450D01*
X10441178Y-3784588D01*
X10706195Y-3837303D01*
X11279685Y-3723229D01*
X11765865Y-3398373D01*
X12759630Y-2404609D01*
X13084485Y-1918428D01*
X13198559Y-1344939D01*
X13084485Y-771449D01*
X12759630Y-285268D01*
X12273449Y39587D01*
X11699959Y153661D01*
X11126470Y39587D01*
X10640289Y-285268D01*
X9646525Y-1279033D01*
X9321669Y-1765213D01*
X9207595Y-2338703D01*
X9260310Y-2603720D01*
X2984720Y-8879310D01*
X2719703Y-8826595D01*
X2146214Y-8940669D01*
X1660033Y-9265524D01*
X666269Y-10259289D01*
X341413Y-10745469D01*
X227339Y-11318959D01*
X341413Y-11892449D01*
X666269Y-12378629D01*
X1152449Y-12703485D01*
X1337821Y-12740358D01*
X1337821Y-15444600D01*
X-117790Y-16900210D01*
X-309633Y-17187325D01*
X-309633Y-17187326D01*
X-377001Y-17526000D01*
X-698500Y-17526000D01*
X-698500Y-3624799D01*
X-414551Y-2197290D01*
X-117845Y-2915372D01*
X510321Y-3544636D01*
X1331481Y-3885611D01*
X2220619Y-3886387D01*
X3042372Y-3546845D01*
X3671636Y-2918679D01*
X4012611Y-2097519D01*
X4013387Y-1208381D01*
X3673845Y-386628D01*
X3045679Y242636D01*
X2325318Y541756D01*
X3751794Y825500D01*
X35364201Y825500D01*
X36791710Y541551D01*
X36791710Y541551D01*
G37*
X36791710Y541551D02*
X36073628Y244845D01*
X35444364Y-383321D01*
X35103389Y-1204481D01*
X35102613Y-2093619D01*
X35442155Y-2915372D01*
X36070321Y-3544636D01*
X36390006Y-3677381D01*
X36136285Y-3817477D01*
X35669311Y-4284450D01*
X36639179Y-5254318D01*
X37959501Y-3933996D01*
X37925728Y-3826429D01*
X38602372Y-3546845D01*
X39231636Y-2918679D01*
X39530756Y-2198318D01*
X39814500Y-3624794D01*
X39814500Y-35237206D01*
X39530551Y-36664710D01*
X39233845Y-35946628D01*
X38605679Y-35317364D01*
X37784519Y-34976389D01*
X36895381Y-34975613D01*
X36073628Y-35315155D01*
X35444364Y-35943321D01*
X35103389Y-36764481D01*
X35102613Y-37653619D01*
X35442155Y-38475372D01*
X36070321Y-39104636D01*
X36790682Y-39403756D01*
X35364201Y-39687500D01*
X3751794Y-39687500D01*
X2324290Y-39403551D01*
X3042372Y-39106845D01*
X3671636Y-38478679D01*
X3970843Y-37758106D01*
X4494601Y-37758106D01*
X4573009Y-38007833D01*
X4657128Y-38061078D01*
X5220950Y-38223753D01*
X5804106Y-38158279D01*
X6317817Y-37874625D01*
X6784791Y-37407652D01*
X5814923Y-36437784D01*
X4494601Y-37758106D01*
X3970843Y-37758106D01*
X4012611Y-37657519D01*
X4012821Y-37417233D01*
X4065269Y-37500093D01*
X4314996Y-37578501D01*
X5635318Y-36258179D01*
X5994528Y-36258179D01*
X6964396Y-37228047D01*
X7431369Y-36761073D01*
X7715023Y-36247362D01*
X7780497Y-35664206D01*
X7617822Y-35100384D01*
X7564577Y-35016265D01*
X7314850Y-34937857D01*
X5994528Y-36258179D01*
X5635318Y-36258179D01*
X4665450Y-35288311D01*
X4198477Y-35755285D01*
X3914823Y-36268996D01*
X3891794Y-36474105D01*
X3673845Y-35946628D01*
X3045679Y-35317364D01*
X2543175Y-35108706D01*
X4845055Y-35108706D01*
X5814923Y-36078574D01*
X7135245Y-34758252D01*
X7056837Y-34508525D01*
X6972718Y-34455280D01*
X6408896Y-34292605D01*
X5825740Y-34358079D01*
X5312029Y-34641733D01*
X4845055Y-35108706D01*
X2543175Y-35108706D01*
X2224519Y-34976389D01*
X1335381Y-34975613D01*
X513628Y-35315155D01*
X-115636Y-35943321D01*
X-414756Y-36663682D01*
X-698500Y-35237201D01*
X-698500Y-33162959D01*
X227339Y-33162959D01*
X341413Y-33736449D01*
X666269Y-34222629D01*
X1152449Y-34547485D01*
X1725939Y-34661559D01*
X2299429Y-34547485D01*
X2785609Y-34222629D01*
X3779374Y-33228865D01*
X4104229Y-32742684D01*
X4218303Y-32169195D01*
X4120098Y-31675482D01*
X7187733Y-28607846D01*
X7411212Y-28515507D01*
X7686540Y-28240659D01*
X7835730Y-27881370D01*
X7836069Y-27492337D01*
X7687507Y-27132788D01*
X7412659Y-26857460D01*
X7053370Y-26708270D01*
X6664337Y-26707931D01*
X6304788Y-26856493D01*
X6029460Y-27131341D01*
X5935997Y-27356423D01*
X2597522Y-30694898D01*
X2146214Y-30784669D01*
X1660033Y-31109524D01*
X666269Y-32103289D01*
X341413Y-32589469D01*
X227339Y-33162959D01*
X-698500Y-33162959D01*
X-698500Y-17526000D01*
X-377001Y-17526000D01*
X-377000Y-17526005D01*
X-377000Y-20065995D01*
X-377001Y-20066000D01*
X-320810Y-20348484D01*
X-309633Y-20404675D01*
X-117790Y-20691790D01*
X197208Y-21006787D01*
X197210Y-21006790D01*
X484325Y-21198633D01*
X823000Y-21266001D01*
X823005Y-21266000D01*
X1421203Y-21266000D01*
X1511110Y-21327431D01*
X1763000Y-21378440D01*
X3063000Y-21378440D01*
X3298317Y-21334162D01*
X3481946Y-21216000D01*
X3888025Y-21216000D01*
X4051110Y-21327431D01*
X4068000Y-21330851D01*
X4068000Y-22250395D01*
X4067999Y-22250400D01*
X4124190Y-22532884D01*
X4135367Y-22589075D01*
X4191929Y-22673726D01*
X4327210Y-22876190D01*
X8284400Y-26833379D01*
X8284400Y-30530795D01*
X8284399Y-30530800D01*
X8312207Y-30670595D01*
X8351767Y-30869475D01*
X8512162Y-31109524D01*
X8543610Y-31156590D01*
X14639608Y-37252587D01*
X14639610Y-37252590D01*
X14926725Y-37444433D01*
X14982916Y-37455610D01*
X15265400Y-37511801D01*
X15265405Y-37511800D01*
X16564546Y-37511800D01*
X16602238Y-37712117D01*
X16741310Y-37928241D01*
X16953510Y-38073231D01*
X17205400Y-38124240D01*
X18405400Y-38124240D01*
X18640717Y-38079962D01*
X18856841Y-37940890D01*
X18956301Y-37795325D01*
X19332786Y-38046884D01*
X19805400Y-38140893D01*
X20278014Y-38046884D01*
X20678677Y-37779170D01*
X20807810Y-37585909D01*
X20976275Y-37808733D01*
X21396024Y-38055086D01*
X21487791Y-38070262D01*
X21678400Y-37945531D01*
X21678400Y-36753800D01*
X21932400Y-36753800D01*
X21932400Y-37945531D01*
X22123009Y-38070262D01*
X22214776Y-38055086D01*
X22634525Y-37808733D01*
X22672801Y-37758106D01*
X26338601Y-37758106D01*
X26417009Y-38007833D01*
X26501128Y-38061078D01*
X27064950Y-38223753D01*
X27648106Y-38158279D01*
X28161817Y-37874625D01*
X28628791Y-37407652D01*
X27658923Y-36437784D01*
X26338601Y-37758106D01*
X22672801Y-37758106D01*
X22928047Y-37420501D01*
X23050656Y-36949496D01*
X22969721Y-36852152D01*
X25693349Y-36852152D01*
X25856024Y-37415974D01*
X25909269Y-37500093D01*
X26158996Y-37578501D01*
X27479318Y-36258179D01*
X27838528Y-36258179D01*
X28808396Y-37228047D01*
X29275369Y-36761073D01*
X29559023Y-36247362D01*
X29624497Y-35664206D01*
X29461822Y-35100384D01*
X29408577Y-35016265D01*
X29158850Y-34937857D01*
X27838528Y-36258179D01*
X27479318Y-36258179D01*
X26509450Y-35288311D01*
X26042477Y-35755285D01*
X25758823Y-36268996D01*
X25693349Y-36852152D01*
X22969721Y-36852152D01*
X22887947Y-36753800D01*
X21932400Y-36753800D01*
X21678400Y-36753800D01*
X21658400Y-36753800D01*
X21658400Y-36499800D01*
X21678400Y-36499800D01*
X21678400Y-35308069D01*
X21932400Y-35308069D01*
X21932400Y-36499800D01*
X22887947Y-36499800D01*
X23050656Y-36304104D01*
X22928047Y-35833099D01*
X22634525Y-35444867D01*
X22214776Y-35198514D01*
X22123009Y-35183338D01*
X21932400Y-35308069D01*
X21678400Y-35308069D01*
X21487791Y-35183338D01*
X21396024Y-35198514D01*
X20976275Y-35444867D01*
X20807810Y-35667691D01*
X20690400Y-35491975D01*
X20690400Y-35108706D01*
X26689055Y-35108706D01*
X27658923Y-36078574D01*
X28979245Y-34758252D01*
X28900837Y-34508525D01*
X28816718Y-34455280D01*
X28252896Y-34292605D01*
X27669740Y-34358079D01*
X27156029Y-34641733D01*
X26689055Y-35108706D01*
X20690400Y-35108706D01*
X20690400Y-34715205D01*
X20690401Y-34715200D01*
X20623033Y-34376525D01*
X20610708Y-34358079D01*
X20431190Y-34089410D01*
X20431187Y-34089408D01*
X19497990Y-33156210D01*
X19471952Y-33138812D01*
X19210875Y-32964367D01*
X19123410Y-32946969D01*
X18872200Y-32896999D01*
X18872195Y-32897000D01*
X14920779Y-32897000D01*
X11222800Y-29199020D01*
X11222800Y-28777850D01*
X13474857Y-28777850D01*
X13553265Y-29027577D01*
X13637384Y-29080822D01*
X14201206Y-29243497D01*
X14784362Y-29178023D01*
X15298073Y-28894369D01*
X15765047Y-28427396D01*
X14795179Y-27457528D01*
X13474857Y-28777850D01*
X11222800Y-28777850D01*
X11222800Y-27871896D01*
X12829605Y-27871896D01*
X12992280Y-28435718D01*
X13045525Y-28519837D01*
X13295252Y-28598245D01*
X14615574Y-27277923D01*
X14974784Y-27277923D01*
X15944652Y-28247791D01*
X16411625Y-27780817D01*
X16695279Y-27267106D01*
X16760753Y-26683950D01*
X16598078Y-26120128D01*
X16544833Y-26036009D01*
X16295106Y-25957601D01*
X14974784Y-27277923D01*
X14615574Y-27277923D01*
X13645706Y-26308055D01*
X13178733Y-26775029D01*
X12895079Y-27288740D01*
X12829605Y-27871896D01*
X11222800Y-27871896D01*
X11222800Y-26263605D01*
X11222801Y-26263600D01*
X11195918Y-26128450D01*
X13825311Y-26128450D01*
X14795179Y-27098318D01*
X16115501Y-25777996D01*
X16037093Y-25528269D01*
X15952974Y-25475024D01*
X15389152Y-25312349D01*
X14805996Y-25377823D01*
X14292285Y-25661477D01*
X13825311Y-26128450D01*
X11195918Y-26128450D01*
X11155433Y-25924925D01*
X10963590Y-25637810D01*
X10963587Y-25637808D01*
X10957162Y-25631383D01*
X11279685Y-25567229D01*
X11765865Y-25242373D01*
X12759630Y-24248609D01*
X13084485Y-23762428D01*
X13198559Y-23188939D01*
X13084485Y-22615449D01*
X12759630Y-22129268D01*
X12273449Y-21804413D01*
X12038077Y-21757595D01*
X12038077Y-18696077D01*
X11974516Y-18376536D01*
X11793511Y-18105643D01*
X9988434Y-16300566D01*
X9863485Y-16217078D01*
X9717541Y-16119561D01*
X9398000Y-16056000D01*
X6271862Y-16056000D01*
X6317817Y-16030625D01*
X6434336Y-15914106D01*
X26338601Y-15914106D01*
X26417009Y-16163833D01*
X26501128Y-16217078D01*
X27064950Y-16379753D01*
X27648106Y-16314279D01*
X28161817Y-16030625D01*
X28628791Y-15563652D01*
X27658923Y-14593784D01*
X26338601Y-15914106D01*
X6434336Y-15914106D01*
X6784791Y-15563652D01*
X5814923Y-14593784D01*
X4494601Y-15914106D01*
X4539152Y-16056000D01*
X3059123Y-16056000D01*
X3107822Y-15811179D01*
X3107821Y-15811174D01*
X3107821Y-15008152D01*
X3849349Y-15008152D01*
X4012024Y-15571974D01*
X4065269Y-15656093D01*
X4314996Y-15734501D01*
X5635318Y-14414179D01*
X5994528Y-14414179D01*
X6964396Y-15384047D01*
X7340290Y-15008152D01*
X25693349Y-15008152D01*
X25856024Y-15571974D01*
X25909269Y-15656093D01*
X26158996Y-15734501D01*
X27479318Y-14414179D01*
X27838528Y-14414179D01*
X28808396Y-15384047D01*
X29275369Y-14917073D01*
X29559023Y-14403362D01*
X29624497Y-13820206D01*
X29461822Y-13256384D01*
X29408577Y-13172265D01*
X29158850Y-13093857D01*
X27838528Y-14414179D01*
X27479318Y-14414179D01*
X26509450Y-13444311D01*
X26042477Y-13911285D01*
X25758823Y-14424996D01*
X25693349Y-15008152D01*
X7340290Y-15008152D01*
X7431369Y-14917073D01*
X7715023Y-14403362D01*
X7780497Y-13820206D01*
X7620224Y-13264706D01*
X26689055Y-13264706D01*
X27658923Y-14234574D01*
X28979245Y-12914252D01*
X28900837Y-12664525D01*
X28816718Y-12611280D01*
X28252896Y-12448605D01*
X27669740Y-12514079D01*
X27156029Y-12797733D01*
X26689055Y-13264706D01*
X7620224Y-13264706D01*
X7617822Y-13256384D01*
X7564577Y-13172265D01*
X7314850Y-13093857D01*
X5994528Y-14414179D01*
X5635318Y-14414179D01*
X4665450Y-13444311D01*
X4198477Y-13911285D01*
X3914823Y-14424996D01*
X3849349Y-15008152D01*
X3107821Y-15008152D01*
X3107821Y-13264706D01*
X4845055Y-13264706D01*
X5814923Y-14234574D01*
X7135245Y-12914252D01*
X7056837Y-12664525D01*
X6972718Y-12611280D01*
X6408896Y-12448605D01*
X5825740Y-12514079D01*
X5312029Y-12797733D01*
X4845055Y-13264706D01*
X3107821Y-13264706D01*
X3107821Y-12056417D01*
X3779374Y-11384865D01*
X3823410Y-11318959D01*
X22071339Y-11318959D01*
X22185413Y-11892449D01*
X22510269Y-12378629D01*
X22996449Y-12703485D01*
X23569939Y-12817559D01*
X24143429Y-12703485D01*
X24629609Y-12378629D01*
X25623374Y-11384865D01*
X25948229Y-10898684D01*
X26062303Y-10325195D01*
X26021320Y-10119158D01*
X32162077Y-3978400D01*
X32162077Y-12600072D01*
X32162076Y-12600077D01*
X32182646Y-12703485D01*
X32229444Y-12938752D01*
X32421287Y-13225867D01*
X35818000Y-16622579D01*
X35818000Y-17527778D01*
X35817683Y-17527838D01*
X35711756Y-17596000D01*
X35154797Y-17596000D01*
X35064890Y-17534569D01*
X34813000Y-17483560D01*
X33513000Y-17483560D01*
X33277683Y-17527838D01*
X33061559Y-17666910D01*
X32916569Y-17879110D01*
X32865560Y-18131000D01*
X32865560Y-18831000D01*
X32909838Y-19066317D01*
X33048910Y-19282441D01*
X33261110Y-19427431D01*
X33274197Y-19430081D01*
X33061559Y-19566910D01*
X32916569Y-19779110D01*
X32865560Y-20031000D01*
X32865560Y-20731000D01*
X32868072Y-20744349D01*
X32421287Y-21191133D01*
X32229444Y-21478248D01*
X32229444Y-21478249D01*
X32162076Y-21816923D01*
X32162077Y-21816928D01*
X32162077Y-22451480D01*
X31490525Y-23123033D01*
X31165669Y-23609213D01*
X31051595Y-24182703D01*
X31092578Y-24388741D01*
X24769740Y-30711578D01*
X24563703Y-30670595D01*
X23990214Y-30784669D01*
X23504033Y-31109524D01*
X22510269Y-32103289D01*
X22185413Y-32589469D01*
X22071339Y-33162959D01*
X22185413Y-33736449D01*
X22510269Y-34222629D01*
X22996449Y-34547485D01*
X23569939Y-34661559D01*
X24143429Y-34547485D01*
X24629609Y-34222629D01*
X25623374Y-33228865D01*
X25948229Y-32742684D01*
X26062303Y-32169195D01*
X26021320Y-31963158D01*
X29206627Y-28777850D01*
X35318857Y-28777850D01*
X35397265Y-29027577D01*
X35481384Y-29080822D01*
X36045206Y-29243497D01*
X36628362Y-29178023D01*
X37142073Y-28894369D01*
X37609047Y-28427396D01*
X36639179Y-27457528D01*
X35318857Y-28777850D01*
X29206627Y-28777850D01*
X30112581Y-27871896D01*
X34673605Y-27871896D01*
X34836280Y-28435718D01*
X34889525Y-28519837D01*
X35139252Y-28598245D01*
X36459574Y-27277923D01*
X36818784Y-27277923D01*
X37788652Y-28247791D01*
X38255625Y-27780817D01*
X38539279Y-27267106D01*
X38604753Y-26683950D01*
X38442078Y-26120128D01*
X38388833Y-26036009D01*
X38139106Y-25957601D01*
X36818784Y-27277923D01*
X36459574Y-27277923D01*
X35489706Y-26308055D01*
X35022733Y-26775029D01*
X34739079Y-27288740D01*
X34673605Y-27871896D01*
X30112581Y-27871896D01*
X32344157Y-25640320D01*
X32550195Y-25681303D01*
X32961836Y-25599423D01*
X32699460Y-25861341D01*
X32550270Y-26220630D01*
X32549931Y-26609663D01*
X32698493Y-26969212D01*
X32973341Y-27244540D01*
X33332630Y-27393730D01*
X33721663Y-27394069D01*
X34081212Y-27245507D01*
X34356540Y-26970659D01*
X34450002Y-26745578D01*
X35067129Y-26128450D01*
X35669311Y-26128450D01*
X36639179Y-27098318D01*
X37959501Y-25777996D01*
X37881093Y-25528269D01*
X37796974Y-25475024D01*
X37233152Y-25312349D01*
X36649996Y-25377823D01*
X36136285Y-25661477D01*
X35669311Y-26128450D01*
X35067129Y-26128450D01*
X37328787Y-23866792D01*
X37328790Y-23866790D01*
X37520633Y-23579675D01*
X37566105Y-23351074D01*
X37588001Y-23241000D01*
X37588000Y-23240995D01*
X37588000Y-21334222D01*
X37588317Y-21334162D01*
X37804441Y-21195090D01*
X37949431Y-20982890D01*
X38000440Y-20731000D01*
X38000440Y-20031000D01*
X37956162Y-19795683D01*
X37817090Y-19579559D01*
X37604890Y-19434569D01*
X37591803Y-19431919D01*
X37804441Y-19295090D01*
X37949431Y-19082890D01*
X38000440Y-18831000D01*
X38000440Y-18131000D01*
X37956162Y-17895683D01*
X37817090Y-17679559D01*
X37604890Y-17534569D01*
X37588000Y-17531149D01*
X37588000Y-16256005D01*
X37588001Y-16256000D01*
X37520633Y-15917326D01*
X37520633Y-15917325D01*
X37328790Y-15630210D01*
X37328787Y-15630208D01*
X33932077Y-12233497D01*
X33932077Y-6933850D01*
X35318857Y-6933850D01*
X35397265Y-7183577D01*
X35481384Y-7236822D01*
X36045206Y-7399497D01*
X36628362Y-7334023D01*
X37142073Y-7050369D01*
X37609047Y-6583396D01*
X36639179Y-5613528D01*
X35318857Y-6933850D01*
X33932077Y-6933850D01*
X33932077Y-6027896D01*
X34673605Y-6027896D01*
X34836280Y-6591718D01*
X34889525Y-6675837D01*
X35139252Y-6754245D01*
X36459574Y-5433923D01*
X36818784Y-5433923D01*
X37788652Y-6403791D01*
X38255625Y-5936817D01*
X38539279Y-5423106D01*
X38604753Y-4839950D01*
X38442078Y-4276128D01*
X38388833Y-4192009D01*
X38139106Y-4113601D01*
X36818784Y-5433923D01*
X36459574Y-5433923D01*
X35489706Y-4464055D01*
X35022733Y-4931029D01*
X34739079Y-5444740D01*
X34673605Y-6027896D01*
X33932077Y-6027896D01*
X33932077Y-3076161D01*
X34603630Y-2404609D01*
X34928485Y-1918428D01*
X35042559Y-1344939D01*
X34928485Y-771449D01*
X34603630Y-285268D01*
X34117449Y39587D01*
X33543959Y153661D01*
X32970470Y39587D01*
X32484289Y-285268D01*
X31490525Y-1279033D01*
X31165669Y-1765213D01*
X31051595Y-2338703D01*
X31092578Y-2544741D01*
X24769740Y-8867578D01*
X24563703Y-8826595D01*
X23990214Y-8940669D01*
X23504033Y-9265524D01*
X22510269Y-10259289D01*
X22185413Y-10745469D01*
X22071339Y-11318959D01*
X3823410Y-11318959D01*
X4104229Y-10898684D01*
X4218303Y-10325195D01*
X4165588Y-10060178D01*
X7291916Y-6933850D01*
X13474857Y-6933850D01*
X13553265Y-7183577D01*
X13637384Y-7236822D01*
X14201206Y-7399497D01*
X14784362Y-7334023D01*
X15298073Y-7050369D01*
X15765047Y-6583396D01*
X14795179Y-5613528D01*
X13474857Y-6933850D01*
X7291916Y-6933850D01*
X8197870Y-6027896D01*
X12829605Y-6027896D01*
X12992280Y-6591718D01*
X13045525Y-6675837D01*
X13295252Y-6754245D01*
X14615574Y-5433923D01*
X14974784Y-5433923D01*
X15944652Y-6403791D01*
X16411625Y-5936817D01*
X16695279Y-5423106D01*
X16760753Y-4839950D01*
X16598078Y-4276128D01*
X16544833Y-4192009D01*
X16295106Y-4113601D01*
X14974784Y-5433923D01*
X14615574Y-5433923D01*
X13645706Y-4464055D01*
X13178733Y-4931029D01*
X12895079Y-5444740D01*
X12829605Y-6027896D01*
X8197870Y-6027896D01*
X9941316Y-4284450D01*
X13825311Y-4284450D01*
X14795179Y-5254318D01*
X16115501Y-3933996D01*
X16037093Y-3684269D01*
X15952974Y-3631024D01*
X15389152Y-3468349D01*
X14805996Y-3533823D01*
X14292285Y-3817477D01*
X13825311Y-4284450D01*
X9941316Y-4284450D01*
X10441178Y-3784588D01*
X10706195Y-3837303D01*
X11279685Y-3723229D01*
X11765865Y-3398373D01*
X12759630Y-2404609D01*
X13084485Y-1918428D01*
X13198559Y-1344939D01*
X13084485Y-771449D01*
X12759630Y-285268D01*
X12273449Y39587D01*
X11699959Y153661D01*
X11126470Y39587D01*
X10640289Y-285268D01*
X9646525Y-1279033D01*
X9321669Y-1765213D01*
X9207595Y-2338703D01*
X9260310Y-2603720D01*
X2984720Y-8879310D01*
X2719703Y-8826595D01*
X2146214Y-8940669D01*
X1660033Y-9265524D01*
X666269Y-10259289D01*
X341413Y-10745469D01*
X227339Y-11318959D01*
X341413Y-11892449D01*
X666269Y-12378629D01*
X1152449Y-12703485D01*
X1337821Y-12740358D01*
X1337821Y-15444600D01*
X-117790Y-16900210D01*
X-309633Y-17187325D01*
X-309633Y-17187326D01*
X-377001Y-17526000D01*
X-698500Y-17526000D01*
X-698500Y-3624799D01*
X-414551Y-2197290D01*
X-117845Y-2915372D01*
X510321Y-3544636D01*
X1331481Y-3885611D01*
X2220619Y-3886387D01*
X3042372Y-3546845D01*
X3671636Y-2918679D01*
X4012611Y-2097519D01*
X4013387Y-1208381D01*
X3673845Y-386628D01*
X3045679Y242636D01*
X2325318Y541756D01*
X3751794Y825500D01*
X35364201Y825500D01*
X36791710Y541551D01*
M02*
