%TF.GenerationSoftware,KiCad,Pcbnew,4.0.7*%
%TF.CreationDate,2018-07-15T20:14:49+02:00*%
%TF.ProjectId,KeyPad,4B65795061642E6B696361645F706362,v1.0*%
%TF.FileFunction,Copper,L2,Bot,Signal*%
%FSLAX46Y46*%
G04 Gerber Fmt 4.6, Leading zero omitted, Abs format (unit mm)*
G04 Created by KiCad (PCBNEW 4.0.7) date 07/15/18 20:14:49*
%MOMM*%
%LPD*%
G01*
G04 APERTURE LIST*
%ADD10C,0.127000*%
%ADD11C,1.727200*%
%ADD12R,1.200000X1.700000*%
%ADD13O,1.200000X1.700000*%
%ADD14C,0.685800*%
%ADD15C,0.500000*%
%ADD16C,0.254000*%
G04 APERTURE END LIST*
D10*
D11*
X32580104Y-2308794D02*
X33514050Y-1374848D01*
X36172206Y-5900896D02*
X37106152Y-4966950D01*
X23599848Y-11289050D02*
X24533794Y-10355104D01*
X27191950Y-14881152D02*
X28125896Y-13947206D01*
X10736104Y-2308794D02*
X11670050Y-1374848D01*
X14328206Y-5900896D02*
X15262152Y-4966950D01*
X1755848Y-11289050D02*
X2689794Y-10355104D01*
X5347950Y-14881152D02*
X6281896Y-13947206D01*
D12*
X17805400Y-36626800D03*
D13*
X19805400Y-36626800D03*
X21805400Y-36626800D03*
D11*
X10736104Y-24152794D02*
X11670050Y-23218848D01*
X14328206Y-27744896D02*
X15262152Y-26810950D01*
X1755848Y-33133050D02*
X2689794Y-32199104D01*
X5347950Y-36725152D02*
X6281896Y-35791206D01*
X32580104Y-24152794D02*
X33514050Y-23218848D01*
X36172206Y-27744896D02*
X37106152Y-26810950D01*
X23599848Y-33133050D02*
X24533794Y-32199104D01*
X27191950Y-36725152D02*
X28125896Y-35791206D01*
D14*
X33528000Y-26416000D03*
X6858000Y-27686000D03*
D15*
X10033000Y-30861000D02*
X6858000Y-27686000D01*
X14478000Y-30861000D02*
X10033000Y-30861000D01*
X17653000Y-27686000D02*
X14478000Y-30861000D01*
X32258000Y-27686000D02*
X17653000Y-27686000D01*
X33528000Y-26416000D02*
X32258000Y-27686000D01*
X6858000Y-27686000D02*
X10858179Y-23685821D01*
X10858179Y-23685821D02*
X11203077Y-23685821D01*
D16*
G36*
X36791710Y541551D02*
X36073628Y244845D01*
X35444364Y-383321D01*
X35103389Y-1204481D01*
X35102613Y-2093619D01*
X35442155Y-2915372D01*
X36070321Y-3544636D01*
X36390006Y-3677381D01*
X36136285Y-3817477D01*
X35669311Y-4284450D01*
X36639179Y-5254318D01*
X37959501Y-3933996D01*
X37925728Y-3826429D01*
X38602372Y-3546845D01*
X39231636Y-2918679D01*
X39530756Y-2198318D01*
X39814500Y-3624794D01*
X39814500Y-35237206D01*
X39530551Y-36664710D01*
X39233845Y-35946628D01*
X38605679Y-35317364D01*
X37784519Y-34976389D01*
X36895381Y-34975613D01*
X36073628Y-35315155D01*
X35444364Y-35943321D01*
X35103389Y-36764481D01*
X35102613Y-37653619D01*
X35442155Y-38475372D01*
X36070321Y-39104636D01*
X36790682Y-39403756D01*
X35364201Y-39687500D01*
X3751794Y-39687500D01*
X2324290Y-39403551D01*
X3042372Y-39106845D01*
X3671636Y-38478679D01*
X3970843Y-37758106D01*
X4494601Y-37758106D01*
X4573009Y-38007833D01*
X4657128Y-38061078D01*
X5220950Y-38223753D01*
X5804106Y-38158279D01*
X6317817Y-37874625D01*
X6784791Y-37407652D01*
X5814923Y-36437784D01*
X4494601Y-37758106D01*
X3970843Y-37758106D01*
X4012611Y-37657519D01*
X4012821Y-37417233D01*
X4065269Y-37500093D01*
X4314996Y-37578501D01*
X5635318Y-36258179D01*
X5994528Y-36258179D01*
X6964396Y-37228047D01*
X7431369Y-36761073D01*
X7715023Y-36247362D01*
X7767855Y-35776800D01*
X16557960Y-35776800D01*
X16557960Y-37476800D01*
X16602238Y-37712117D01*
X16741310Y-37928241D01*
X16953510Y-38073231D01*
X17205400Y-38124240D01*
X18405400Y-38124240D01*
X18640717Y-38079962D01*
X18856841Y-37940890D01*
X18956301Y-37795325D01*
X19332786Y-38046884D01*
X19805400Y-38140893D01*
X20278014Y-38046884D01*
X20678677Y-37779170D01*
X20807810Y-37585909D01*
X20976275Y-37808733D01*
X21396024Y-38055086D01*
X21487791Y-38070262D01*
X21678400Y-37945531D01*
X21678400Y-36753800D01*
X21932400Y-36753800D01*
X21932400Y-37945531D01*
X22123009Y-38070262D01*
X22214776Y-38055086D01*
X22634525Y-37808733D01*
X22672801Y-37758106D01*
X26338601Y-37758106D01*
X26417009Y-38007833D01*
X26501128Y-38061078D01*
X27064950Y-38223753D01*
X27648106Y-38158279D01*
X28161817Y-37874625D01*
X28628791Y-37407652D01*
X27658923Y-36437784D01*
X26338601Y-37758106D01*
X22672801Y-37758106D01*
X22928047Y-37420501D01*
X23050656Y-36949496D01*
X22969721Y-36852152D01*
X25693349Y-36852152D01*
X25856024Y-37415974D01*
X25909269Y-37500093D01*
X26158996Y-37578501D01*
X27479318Y-36258179D01*
X27838528Y-36258179D01*
X28808396Y-37228047D01*
X29275369Y-36761073D01*
X29559023Y-36247362D01*
X29624497Y-35664206D01*
X29461822Y-35100384D01*
X29408577Y-35016265D01*
X29158850Y-34937857D01*
X27838528Y-36258179D01*
X27479318Y-36258179D01*
X26509450Y-35288311D01*
X26042477Y-35755285D01*
X25758823Y-36268996D01*
X25693349Y-36852152D01*
X22969721Y-36852152D01*
X22887947Y-36753800D01*
X21932400Y-36753800D01*
X21678400Y-36753800D01*
X21658400Y-36753800D01*
X21658400Y-36499800D01*
X21678400Y-36499800D01*
X21678400Y-35308069D01*
X21932400Y-35308069D01*
X21932400Y-36499800D01*
X22887947Y-36499800D01*
X23050656Y-36304104D01*
X22928047Y-35833099D01*
X22634525Y-35444867D01*
X22214776Y-35198514D01*
X22123009Y-35183338D01*
X21932400Y-35308069D01*
X21678400Y-35308069D01*
X21487791Y-35183338D01*
X21396024Y-35198514D01*
X20976275Y-35444867D01*
X20807810Y-35667691D01*
X20678677Y-35474430D01*
X20278014Y-35206716D01*
X19805400Y-35112707D01*
X19332786Y-35206716D01*
X18955404Y-35458874D01*
X18869490Y-35325359D01*
X18657290Y-35180369D01*
X18405400Y-35129360D01*
X17205400Y-35129360D01*
X16970083Y-35173638D01*
X16753959Y-35312710D01*
X16608969Y-35524910D01*
X16557960Y-35776800D01*
X7767855Y-35776800D01*
X7780497Y-35664206D01*
X7620224Y-35108706D01*
X26689055Y-35108706D01*
X27658923Y-36078574D01*
X28979245Y-34758252D01*
X28900837Y-34508525D01*
X28816718Y-34455280D01*
X28252896Y-34292605D01*
X27669740Y-34358079D01*
X27156029Y-34641733D01*
X26689055Y-35108706D01*
X7620224Y-35108706D01*
X7617822Y-35100384D01*
X7564577Y-35016265D01*
X7314850Y-34937857D01*
X5994528Y-36258179D01*
X5635318Y-36258179D01*
X4665450Y-35288311D01*
X4198477Y-35755285D01*
X3914823Y-36268996D01*
X3891794Y-36474105D01*
X3673845Y-35946628D01*
X3045679Y-35317364D01*
X2543175Y-35108706D01*
X4845055Y-35108706D01*
X5814923Y-36078574D01*
X7135245Y-34758252D01*
X7056837Y-34508525D01*
X6972718Y-34455280D01*
X6408896Y-34292605D01*
X5825740Y-34358079D01*
X5312029Y-34641733D01*
X4845055Y-35108706D01*
X2543175Y-35108706D01*
X2224519Y-34976389D01*
X1335381Y-34975613D01*
X513628Y-35315155D01*
X-115636Y-35943321D01*
X-414756Y-36663682D01*
X-698500Y-35237201D01*
X-698500Y-33162959D01*
X227339Y-33162959D01*
X341413Y-33736449D01*
X666269Y-34222629D01*
X1152449Y-34547485D01*
X1725939Y-34661559D01*
X2299429Y-34547485D01*
X2785609Y-34222629D01*
X3779374Y-33228865D01*
X3823410Y-33162959D01*
X22071339Y-33162959D01*
X22185413Y-33736449D01*
X22510269Y-34222629D01*
X22996449Y-34547485D01*
X23569939Y-34661559D01*
X24143429Y-34547485D01*
X24629609Y-34222629D01*
X25623374Y-33228865D01*
X25948229Y-32742684D01*
X26062303Y-32169195D01*
X25948229Y-31595705D01*
X25623374Y-31109524D01*
X25137193Y-30784669D01*
X24563703Y-30670595D01*
X23990214Y-30784669D01*
X23504033Y-31109524D01*
X22510269Y-32103289D01*
X22185413Y-32589469D01*
X22071339Y-33162959D01*
X3823410Y-33162959D01*
X4104229Y-32742684D01*
X4218303Y-32169195D01*
X4104229Y-31595705D01*
X3779374Y-31109524D01*
X3293193Y-30784669D01*
X2719703Y-30670595D01*
X2146214Y-30784669D01*
X1660033Y-31109524D01*
X666269Y-32103289D01*
X341413Y-32589469D01*
X227339Y-33162959D01*
X-698500Y-33162959D01*
X-698500Y-27879663D01*
X5879931Y-27879663D01*
X6028493Y-28239212D01*
X6303341Y-28514540D01*
X6528422Y-28608002D01*
X9407208Y-31486787D01*
X9407210Y-31486790D01*
X9694325Y-31678633D01*
X9750516Y-31689810D01*
X10033000Y-31746001D01*
X10033005Y-31746000D01*
X14477995Y-31746000D01*
X14478000Y-31746001D01*
X14760484Y-31689810D01*
X14816675Y-31678633D01*
X15103790Y-31486790D01*
X15103791Y-31486789D01*
X17812729Y-28777850D01*
X35318857Y-28777850D01*
X35397265Y-29027577D01*
X35481384Y-29080822D01*
X36045206Y-29243497D01*
X36628362Y-29178023D01*
X37142073Y-28894369D01*
X37609047Y-28427396D01*
X36639179Y-27457528D01*
X35318857Y-28777850D01*
X17812729Y-28777850D01*
X18019579Y-28571000D01*
X32257995Y-28571000D01*
X32258000Y-28571001D01*
X32541842Y-28514540D01*
X32596675Y-28503633D01*
X32883790Y-28311790D01*
X33323683Y-27871896D01*
X34673605Y-27871896D01*
X34836280Y-28435718D01*
X34889525Y-28519837D01*
X35139252Y-28598245D01*
X36459574Y-27277923D01*
X36818784Y-27277923D01*
X37788652Y-28247791D01*
X38255625Y-27780817D01*
X38539279Y-27267106D01*
X38604753Y-26683950D01*
X38442078Y-26120128D01*
X38388833Y-26036009D01*
X38139106Y-25957601D01*
X36818784Y-27277923D01*
X36459574Y-27277923D01*
X35489706Y-26308055D01*
X35022733Y-26775029D01*
X34739079Y-27288740D01*
X34673605Y-27871896D01*
X33323683Y-27871896D01*
X33857733Y-27337846D01*
X34081212Y-27245507D01*
X34356540Y-26970659D01*
X34505730Y-26611370D01*
X34506069Y-26222337D01*
X34467276Y-26128450D01*
X35669311Y-26128450D01*
X36639179Y-27098318D01*
X37959501Y-25777996D01*
X37881093Y-25528269D01*
X37796974Y-25475024D01*
X37233152Y-25312349D01*
X36649996Y-25377823D01*
X36136285Y-25661477D01*
X35669311Y-26128450D01*
X34467276Y-26128450D01*
X34357507Y-25862788D01*
X34082659Y-25587460D01*
X33723370Y-25438270D01*
X33334337Y-25437931D01*
X33289412Y-25456494D01*
X33609865Y-25242373D01*
X34603630Y-24248609D01*
X34928485Y-23762428D01*
X35042559Y-23188939D01*
X34928485Y-22615449D01*
X34603630Y-22129268D01*
X34117449Y-21804413D01*
X33543959Y-21690339D01*
X32970470Y-21804413D01*
X32484289Y-22129268D01*
X31490525Y-23123033D01*
X31165669Y-23609213D01*
X31051595Y-24182703D01*
X31165669Y-24756193D01*
X31490525Y-25242373D01*
X31976705Y-25567229D01*
X32550195Y-25681303D01*
X32961836Y-25599423D01*
X32699460Y-25861341D01*
X32605998Y-26086423D01*
X31891420Y-26801000D01*
X17653005Y-26801000D01*
X17653000Y-26800999D01*
X17374019Y-26856493D01*
X17314325Y-26868367D01*
X17027210Y-27060210D01*
X17027208Y-27060213D01*
X16541113Y-27546308D01*
X16695279Y-27267106D01*
X16760753Y-26683950D01*
X16598078Y-26120128D01*
X16544833Y-26036009D01*
X16295106Y-25957601D01*
X14974784Y-27277923D01*
X14988927Y-27292066D01*
X14809322Y-27471671D01*
X14795179Y-27457528D01*
X13474857Y-28777850D01*
X13553265Y-29027577D01*
X13637384Y-29080822D01*
X14201206Y-29243497D01*
X14784362Y-29178023D01*
X15063563Y-29023858D01*
X14111420Y-29976000D01*
X10399579Y-29976000D01*
X8295476Y-27871896D01*
X12829605Y-27871896D01*
X12992280Y-28435718D01*
X13045525Y-28519837D01*
X13295252Y-28598245D01*
X14615574Y-27277923D01*
X13645706Y-26308055D01*
X13178733Y-26775029D01*
X12895079Y-27288740D01*
X12829605Y-27871896D01*
X8295476Y-27871896D01*
X8109580Y-27686000D01*
X9667130Y-26128450D01*
X13825311Y-26128450D01*
X14795179Y-27098318D01*
X16115501Y-25777996D01*
X16037093Y-25528269D01*
X15952974Y-25475024D01*
X15389152Y-25312349D01*
X14805996Y-25377823D01*
X14292285Y-25661477D01*
X13825311Y-26128450D01*
X9667130Y-26128450D01*
X10212482Y-25583098D01*
X10706195Y-25681303D01*
X11279685Y-25567229D01*
X11765865Y-25242373D01*
X12759630Y-24248609D01*
X13084485Y-23762428D01*
X13198559Y-23188939D01*
X13084485Y-22615449D01*
X12759630Y-22129268D01*
X12273449Y-21804413D01*
X11699959Y-21690339D01*
X11126470Y-21804413D01*
X10640289Y-22129268D01*
X9646525Y-23123033D01*
X9321669Y-23609213D01*
X9231898Y-24060523D01*
X6528266Y-26764154D01*
X6304788Y-26856493D01*
X6029460Y-27131341D01*
X5880270Y-27490630D01*
X5879931Y-27879663D01*
X-698500Y-27879663D01*
X-698500Y-15914106D01*
X4494601Y-15914106D01*
X4573009Y-16163833D01*
X4657128Y-16217078D01*
X5220950Y-16379753D01*
X5804106Y-16314279D01*
X6317817Y-16030625D01*
X6434336Y-15914106D01*
X26338601Y-15914106D01*
X26417009Y-16163833D01*
X26501128Y-16217078D01*
X27064950Y-16379753D01*
X27648106Y-16314279D01*
X28161817Y-16030625D01*
X28628791Y-15563652D01*
X27658923Y-14593784D01*
X26338601Y-15914106D01*
X6434336Y-15914106D01*
X6784791Y-15563652D01*
X5814923Y-14593784D01*
X4494601Y-15914106D01*
X-698500Y-15914106D01*
X-698500Y-15008152D01*
X3849349Y-15008152D01*
X4012024Y-15571974D01*
X4065269Y-15656093D01*
X4314996Y-15734501D01*
X5635318Y-14414179D01*
X5994528Y-14414179D01*
X6964396Y-15384047D01*
X7340290Y-15008152D01*
X25693349Y-15008152D01*
X25856024Y-15571974D01*
X25909269Y-15656093D01*
X26158996Y-15734501D01*
X27479318Y-14414179D01*
X27838528Y-14414179D01*
X28808396Y-15384047D01*
X29275369Y-14917073D01*
X29559023Y-14403362D01*
X29624497Y-13820206D01*
X29461822Y-13256384D01*
X29408577Y-13172265D01*
X29158850Y-13093857D01*
X27838528Y-14414179D01*
X27479318Y-14414179D01*
X26509450Y-13444311D01*
X26042477Y-13911285D01*
X25758823Y-14424996D01*
X25693349Y-15008152D01*
X7340290Y-15008152D01*
X7431369Y-14917073D01*
X7715023Y-14403362D01*
X7780497Y-13820206D01*
X7620224Y-13264706D01*
X26689055Y-13264706D01*
X27658923Y-14234574D01*
X28979245Y-12914252D01*
X28900837Y-12664525D01*
X28816718Y-12611280D01*
X28252896Y-12448605D01*
X27669740Y-12514079D01*
X27156029Y-12797733D01*
X26689055Y-13264706D01*
X7620224Y-13264706D01*
X7617822Y-13256384D01*
X7564577Y-13172265D01*
X7314850Y-13093857D01*
X5994528Y-14414179D01*
X5635318Y-14414179D01*
X4665450Y-13444311D01*
X4198477Y-13911285D01*
X3914823Y-14424996D01*
X3849349Y-15008152D01*
X-698500Y-15008152D01*
X-698500Y-13264706D01*
X4845055Y-13264706D01*
X5814923Y-14234574D01*
X7135245Y-12914252D01*
X7056837Y-12664525D01*
X6972718Y-12611280D01*
X6408896Y-12448605D01*
X5825740Y-12514079D01*
X5312029Y-12797733D01*
X4845055Y-13264706D01*
X-698500Y-13264706D01*
X-698500Y-11318959D01*
X227339Y-11318959D01*
X341413Y-11892449D01*
X666269Y-12378629D01*
X1152449Y-12703485D01*
X1725939Y-12817559D01*
X2299429Y-12703485D01*
X2785609Y-12378629D01*
X3779374Y-11384865D01*
X3823410Y-11318959D01*
X22071339Y-11318959D01*
X22185413Y-11892449D01*
X22510269Y-12378629D01*
X22996449Y-12703485D01*
X23569939Y-12817559D01*
X24143429Y-12703485D01*
X24629609Y-12378629D01*
X25623374Y-11384865D01*
X25948229Y-10898684D01*
X26062303Y-10325195D01*
X25948229Y-9751705D01*
X25623374Y-9265524D01*
X25137193Y-8940669D01*
X24563703Y-8826595D01*
X23990214Y-8940669D01*
X23504033Y-9265524D01*
X22510269Y-10259289D01*
X22185413Y-10745469D01*
X22071339Y-11318959D01*
X3823410Y-11318959D01*
X4104229Y-10898684D01*
X4218303Y-10325195D01*
X4104229Y-9751705D01*
X3779374Y-9265524D01*
X3293193Y-8940669D01*
X2719703Y-8826595D01*
X2146214Y-8940669D01*
X1660033Y-9265524D01*
X666269Y-10259289D01*
X341413Y-10745469D01*
X227339Y-11318959D01*
X-698500Y-11318959D01*
X-698500Y-6933850D01*
X13474857Y-6933850D01*
X13553265Y-7183577D01*
X13637384Y-7236822D01*
X14201206Y-7399497D01*
X14784362Y-7334023D01*
X15298073Y-7050369D01*
X15414592Y-6933850D01*
X35318857Y-6933850D01*
X35397265Y-7183577D01*
X35481384Y-7236822D01*
X36045206Y-7399497D01*
X36628362Y-7334023D01*
X37142073Y-7050369D01*
X37609047Y-6583396D01*
X36639179Y-5613528D01*
X35318857Y-6933850D01*
X15414592Y-6933850D01*
X15765047Y-6583396D01*
X14795179Y-5613528D01*
X13474857Y-6933850D01*
X-698500Y-6933850D01*
X-698500Y-6027896D01*
X12829605Y-6027896D01*
X12992280Y-6591718D01*
X13045525Y-6675837D01*
X13295252Y-6754245D01*
X14615574Y-5433923D01*
X14974784Y-5433923D01*
X15944652Y-6403791D01*
X16320546Y-6027896D01*
X34673605Y-6027896D01*
X34836280Y-6591718D01*
X34889525Y-6675837D01*
X35139252Y-6754245D01*
X36459574Y-5433923D01*
X36818784Y-5433923D01*
X37788652Y-6403791D01*
X38255625Y-5936817D01*
X38539279Y-5423106D01*
X38604753Y-4839950D01*
X38442078Y-4276128D01*
X38388833Y-4192009D01*
X38139106Y-4113601D01*
X36818784Y-5433923D01*
X36459574Y-5433923D01*
X35489706Y-4464055D01*
X35022733Y-4931029D01*
X34739079Y-5444740D01*
X34673605Y-6027896D01*
X16320546Y-6027896D01*
X16411625Y-5936817D01*
X16695279Y-5423106D01*
X16760753Y-4839950D01*
X16598078Y-4276128D01*
X16544833Y-4192009D01*
X16295106Y-4113601D01*
X14974784Y-5433923D01*
X14615574Y-5433923D01*
X13645706Y-4464055D01*
X13178733Y-4931029D01*
X12895079Y-5444740D01*
X12829605Y-6027896D01*
X-698500Y-6027896D01*
X-698500Y-4284450D01*
X13825311Y-4284450D01*
X14795179Y-5254318D01*
X16115501Y-3933996D01*
X16037093Y-3684269D01*
X15952974Y-3631024D01*
X15389152Y-3468349D01*
X14805996Y-3533823D01*
X14292285Y-3817477D01*
X13825311Y-4284450D01*
X-698500Y-4284450D01*
X-698500Y-3624799D01*
X-414551Y-2197290D01*
X-117845Y-2915372D01*
X510321Y-3544636D01*
X1331481Y-3885611D01*
X2220619Y-3886387D01*
X3042372Y-3546845D01*
X3671636Y-2918679D01*
X3912462Y-2338703D01*
X9207595Y-2338703D01*
X9321669Y-2912193D01*
X9646525Y-3398373D01*
X10132705Y-3723229D01*
X10706195Y-3837303D01*
X11279685Y-3723229D01*
X11765865Y-3398373D01*
X12759630Y-2404609D01*
X12803666Y-2338703D01*
X31051595Y-2338703D01*
X31165669Y-2912193D01*
X31490525Y-3398373D01*
X31976705Y-3723229D01*
X32550195Y-3837303D01*
X33123685Y-3723229D01*
X33609865Y-3398373D01*
X34603630Y-2404609D01*
X34928485Y-1918428D01*
X35042559Y-1344939D01*
X34928485Y-771449D01*
X34603630Y-285268D01*
X34117449Y39587D01*
X33543959Y153661D01*
X32970470Y39587D01*
X32484289Y-285268D01*
X31490525Y-1279033D01*
X31165669Y-1765213D01*
X31051595Y-2338703D01*
X12803666Y-2338703D01*
X13084485Y-1918428D01*
X13198559Y-1344939D01*
X13084485Y-771449D01*
X12759630Y-285268D01*
X12273449Y39587D01*
X11699959Y153661D01*
X11126470Y39587D01*
X10640289Y-285268D01*
X9646525Y-1279033D01*
X9321669Y-1765213D01*
X9207595Y-2338703D01*
X3912462Y-2338703D01*
X4012611Y-2097519D01*
X4013387Y-1208381D01*
X3673845Y-386628D01*
X3045679Y242636D01*
X2325318Y541756D01*
X3751794Y825500D01*
X35364201Y825500D01*
X36791710Y541551D01*
X36791710Y541551D01*
G37*
X36791710Y541551D02*
X36073628Y244845D01*
X35444364Y-383321D01*
X35103389Y-1204481D01*
X35102613Y-2093619D01*
X35442155Y-2915372D01*
X36070321Y-3544636D01*
X36390006Y-3677381D01*
X36136285Y-3817477D01*
X35669311Y-4284450D01*
X36639179Y-5254318D01*
X37959501Y-3933996D01*
X37925728Y-3826429D01*
X38602372Y-3546845D01*
X39231636Y-2918679D01*
X39530756Y-2198318D01*
X39814500Y-3624794D01*
X39814500Y-35237206D01*
X39530551Y-36664710D01*
X39233845Y-35946628D01*
X38605679Y-35317364D01*
X37784519Y-34976389D01*
X36895381Y-34975613D01*
X36073628Y-35315155D01*
X35444364Y-35943321D01*
X35103389Y-36764481D01*
X35102613Y-37653619D01*
X35442155Y-38475372D01*
X36070321Y-39104636D01*
X36790682Y-39403756D01*
X35364201Y-39687500D01*
X3751794Y-39687500D01*
X2324290Y-39403551D01*
X3042372Y-39106845D01*
X3671636Y-38478679D01*
X3970843Y-37758106D01*
X4494601Y-37758106D01*
X4573009Y-38007833D01*
X4657128Y-38061078D01*
X5220950Y-38223753D01*
X5804106Y-38158279D01*
X6317817Y-37874625D01*
X6784791Y-37407652D01*
X5814923Y-36437784D01*
X4494601Y-37758106D01*
X3970843Y-37758106D01*
X4012611Y-37657519D01*
X4012821Y-37417233D01*
X4065269Y-37500093D01*
X4314996Y-37578501D01*
X5635318Y-36258179D01*
X5994528Y-36258179D01*
X6964396Y-37228047D01*
X7431369Y-36761073D01*
X7715023Y-36247362D01*
X7767855Y-35776800D01*
X16557960Y-35776800D01*
X16557960Y-37476800D01*
X16602238Y-37712117D01*
X16741310Y-37928241D01*
X16953510Y-38073231D01*
X17205400Y-38124240D01*
X18405400Y-38124240D01*
X18640717Y-38079962D01*
X18856841Y-37940890D01*
X18956301Y-37795325D01*
X19332786Y-38046884D01*
X19805400Y-38140893D01*
X20278014Y-38046884D01*
X20678677Y-37779170D01*
X20807810Y-37585909D01*
X20976275Y-37808733D01*
X21396024Y-38055086D01*
X21487791Y-38070262D01*
X21678400Y-37945531D01*
X21678400Y-36753800D01*
X21932400Y-36753800D01*
X21932400Y-37945531D01*
X22123009Y-38070262D01*
X22214776Y-38055086D01*
X22634525Y-37808733D01*
X22672801Y-37758106D01*
X26338601Y-37758106D01*
X26417009Y-38007833D01*
X26501128Y-38061078D01*
X27064950Y-38223753D01*
X27648106Y-38158279D01*
X28161817Y-37874625D01*
X28628791Y-37407652D01*
X27658923Y-36437784D01*
X26338601Y-37758106D01*
X22672801Y-37758106D01*
X22928047Y-37420501D01*
X23050656Y-36949496D01*
X22969721Y-36852152D01*
X25693349Y-36852152D01*
X25856024Y-37415974D01*
X25909269Y-37500093D01*
X26158996Y-37578501D01*
X27479318Y-36258179D01*
X27838528Y-36258179D01*
X28808396Y-37228047D01*
X29275369Y-36761073D01*
X29559023Y-36247362D01*
X29624497Y-35664206D01*
X29461822Y-35100384D01*
X29408577Y-35016265D01*
X29158850Y-34937857D01*
X27838528Y-36258179D01*
X27479318Y-36258179D01*
X26509450Y-35288311D01*
X26042477Y-35755285D01*
X25758823Y-36268996D01*
X25693349Y-36852152D01*
X22969721Y-36852152D01*
X22887947Y-36753800D01*
X21932400Y-36753800D01*
X21678400Y-36753800D01*
X21658400Y-36753800D01*
X21658400Y-36499800D01*
X21678400Y-36499800D01*
X21678400Y-35308069D01*
X21932400Y-35308069D01*
X21932400Y-36499800D01*
X22887947Y-36499800D01*
X23050656Y-36304104D01*
X22928047Y-35833099D01*
X22634525Y-35444867D01*
X22214776Y-35198514D01*
X22123009Y-35183338D01*
X21932400Y-35308069D01*
X21678400Y-35308069D01*
X21487791Y-35183338D01*
X21396024Y-35198514D01*
X20976275Y-35444867D01*
X20807810Y-35667691D01*
X20678677Y-35474430D01*
X20278014Y-35206716D01*
X19805400Y-35112707D01*
X19332786Y-35206716D01*
X18955404Y-35458874D01*
X18869490Y-35325359D01*
X18657290Y-35180369D01*
X18405400Y-35129360D01*
X17205400Y-35129360D01*
X16970083Y-35173638D01*
X16753959Y-35312710D01*
X16608969Y-35524910D01*
X16557960Y-35776800D01*
X7767855Y-35776800D01*
X7780497Y-35664206D01*
X7620224Y-35108706D01*
X26689055Y-35108706D01*
X27658923Y-36078574D01*
X28979245Y-34758252D01*
X28900837Y-34508525D01*
X28816718Y-34455280D01*
X28252896Y-34292605D01*
X27669740Y-34358079D01*
X27156029Y-34641733D01*
X26689055Y-35108706D01*
X7620224Y-35108706D01*
X7617822Y-35100384D01*
X7564577Y-35016265D01*
X7314850Y-34937857D01*
X5994528Y-36258179D01*
X5635318Y-36258179D01*
X4665450Y-35288311D01*
X4198477Y-35755285D01*
X3914823Y-36268996D01*
X3891794Y-36474105D01*
X3673845Y-35946628D01*
X3045679Y-35317364D01*
X2543175Y-35108706D01*
X4845055Y-35108706D01*
X5814923Y-36078574D01*
X7135245Y-34758252D01*
X7056837Y-34508525D01*
X6972718Y-34455280D01*
X6408896Y-34292605D01*
X5825740Y-34358079D01*
X5312029Y-34641733D01*
X4845055Y-35108706D01*
X2543175Y-35108706D01*
X2224519Y-34976389D01*
X1335381Y-34975613D01*
X513628Y-35315155D01*
X-115636Y-35943321D01*
X-414756Y-36663682D01*
X-698500Y-35237201D01*
X-698500Y-33162959D01*
X227339Y-33162959D01*
X341413Y-33736449D01*
X666269Y-34222629D01*
X1152449Y-34547485D01*
X1725939Y-34661559D01*
X2299429Y-34547485D01*
X2785609Y-34222629D01*
X3779374Y-33228865D01*
X3823410Y-33162959D01*
X22071339Y-33162959D01*
X22185413Y-33736449D01*
X22510269Y-34222629D01*
X22996449Y-34547485D01*
X23569939Y-34661559D01*
X24143429Y-34547485D01*
X24629609Y-34222629D01*
X25623374Y-33228865D01*
X25948229Y-32742684D01*
X26062303Y-32169195D01*
X25948229Y-31595705D01*
X25623374Y-31109524D01*
X25137193Y-30784669D01*
X24563703Y-30670595D01*
X23990214Y-30784669D01*
X23504033Y-31109524D01*
X22510269Y-32103289D01*
X22185413Y-32589469D01*
X22071339Y-33162959D01*
X3823410Y-33162959D01*
X4104229Y-32742684D01*
X4218303Y-32169195D01*
X4104229Y-31595705D01*
X3779374Y-31109524D01*
X3293193Y-30784669D01*
X2719703Y-30670595D01*
X2146214Y-30784669D01*
X1660033Y-31109524D01*
X666269Y-32103289D01*
X341413Y-32589469D01*
X227339Y-33162959D01*
X-698500Y-33162959D01*
X-698500Y-27879663D01*
X5879931Y-27879663D01*
X6028493Y-28239212D01*
X6303341Y-28514540D01*
X6528422Y-28608002D01*
X9407208Y-31486787D01*
X9407210Y-31486790D01*
X9694325Y-31678633D01*
X9750516Y-31689810D01*
X10033000Y-31746001D01*
X10033005Y-31746000D01*
X14477995Y-31746000D01*
X14478000Y-31746001D01*
X14760484Y-31689810D01*
X14816675Y-31678633D01*
X15103790Y-31486790D01*
X15103791Y-31486789D01*
X17812729Y-28777850D01*
X35318857Y-28777850D01*
X35397265Y-29027577D01*
X35481384Y-29080822D01*
X36045206Y-29243497D01*
X36628362Y-29178023D01*
X37142073Y-28894369D01*
X37609047Y-28427396D01*
X36639179Y-27457528D01*
X35318857Y-28777850D01*
X17812729Y-28777850D01*
X18019579Y-28571000D01*
X32257995Y-28571000D01*
X32258000Y-28571001D01*
X32541842Y-28514540D01*
X32596675Y-28503633D01*
X32883790Y-28311790D01*
X33323683Y-27871896D01*
X34673605Y-27871896D01*
X34836280Y-28435718D01*
X34889525Y-28519837D01*
X35139252Y-28598245D01*
X36459574Y-27277923D01*
X36818784Y-27277923D01*
X37788652Y-28247791D01*
X38255625Y-27780817D01*
X38539279Y-27267106D01*
X38604753Y-26683950D01*
X38442078Y-26120128D01*
X38388833Y-26036009D01*
X38139106Y-25957601D01*
X36818784Y-27277923D01*
X36459574Y-27277923D01*
X35489706Y-26308055D01*
X35022733Y-26775029D01*
X34739079Y-27288740D01*
X34673605Y-27871896D01*
X33323683Y-27871896D01*
X33857733Y-27337846D01*
X34081212Y-27245507D01*
X34356540Y-26970659D01*
X34505730Y-26611370D01*
X34506069Y-26222337D01*
X34467276Y-26128450D01*
X35669311Y-26128450D01*
X36639179Y-27098318D01*
X37959501Y-25777996D01*
X37881093Y-25528269D01*
X37796974Y-25475024D01*
X37233152Y-25312349D01*
X36649996Y-25377823D01*
X36136285Y-25661477D01*
X35669311Y-26128450D01*
X34467276Y-26128450D01*
X34357507Y-25862788D01*
X34082659Y-25587460D01*
X33723370Y-25438270D01*
X33334337Y-25437931D01*
X33289412Y-25456494D01*
X33609865Y-25242373D01*
X34603630Y-24248609D01*
X34928485Y-23762428D01*
X35042559Y-23188939D01*
X34928485Y-22615449D01*
X34603630Y-22129268D01*
X34117449Y-21804413D01*
X33543959Y-21690339D01*
X32970470Y-21804413D01*
X32484289Y-22129268D01*
X31490525Y-23123033D01*
X31165669Y-23609213D01*
X31051595Y-24182703D01*
X31165669Y-24756193D01*
X31490525Y-25242373D01*
X31976705Y-25567229D01*
X32550195Y-25681303D01*
X32961836Y-25599423D01*
X32699460Y-25861341D01*
X32605998Y-26086423D01*
X31891420Y-26801000D01*
X17653005Y-26801000D01*
X17653000Y-26800999D01*
X17374019Y-26856493D01*
X17314325Y-26868367D01*
X17027210Y-27060210D01*
X17027208Y-27060213D01*
X16541113Y-27546308D01*
X16695279Y-27267106D01*
X16760753Y-26683950D01*
X16598078Y-26120128D01*
X16544833Y-26036009D01*
X16295106Y-25957601D01*
X14974784Y-27277923D01*
X14988927Y-27292066D01*
X14809322Y-27471671D01*
X14795179Y-27457528D01*
X13474857Y-28777850D01*
X13553265Y-29027577D01*
X13637384Y-29080822D01*
X14201206Y-29243497D01*
X14784362Y-29178023D01*
X15063563Y-29023858D01*
X14111420Y-29976000D01*
X10399579Y-29976000D01*
X8295476Y-27871896D01*
X12829605Y-27871896D01*
X12992280Y-28435718D01*
X13045525Y-28519837D01*
X13295252Y-28598245D01*
X14615574Y-27277923D01*
X13645706Y-26308055D01*
X13178733Y-26775029D01*
X12895079Y-27288740D01*
X12829605Y-27871896D01*
X8295476Y-27871896D01*
X8109580Y-27686000D01*
X9667130Y-26128450D01*
X13825311Y-26128450D01*
X14795179Y-27098318D01*
X16115501Y-25777996D01*
X16037093Y-25528269D01*
X15952974Y-25475024D01*
X15389152Y-25312349D01*
X14805996Y-25377823D01*
X14292285Y-25661477D01*
X13825311Y-26128450D01*
X9667130Y-26128450D01*
X10212482Y-25583098D01*
X10706195Y-25681303D01*
X11279685Y-25567229D01*
X11765865Y-25242373D01*
X12759630Y-24248609D01*
X13084485Y-23762428D01*
X13198559Y-23188939D01*
X13084485Y-22615449D01*
X12759630Y-22129268D01*
X12273449Y-21804413D01*
X11699959Y-21690339D01*
X11126470Y-21804413D01*
X10640289Y-22129268D01*
X9646525Y-23123033D01*
X9321669Y-23609213D01*
X9231898Y-24060523D01*
X6528266Y-26764154D01*
X6304788Y-26856493D01*
X6029460Y-27131341D01*
X5880270Y-27490630D01*
X5879931Y-27879663D01*
X-698500Y-27879663D01*
X-698500Y-15914106D01*
X4494601Y-15914106D01*
X4573009Y-16163833D01*
X4657128Y-16217078D01*
X5220950Y-16379753D01*
X5804106Y-16314279D01*
X6317817Y-16030625D01*
X6434336Y-15914106D01*
X26338601Y-15914106D01*
X26417009Y-16163833D01*
X26501128Y-16217078D01*
X27064950Y-16379753D01*
X27648106Y-16314279D01*
X28161817Y-16030625D01*
X28628791Y-15563652D01*
X27658923Y-14593784D01*
X26338601Y-15914106D01*
X6434336Y-15914106D01*
X6784791Y-15563652D01*
X5814923Y-14593784D01*
X4494601Y-15914106D01*
X-698500Y-15914106D01*
X-698500Y-15008152D01*
X3849349Y-15008152D01*
X4012024Y-15571974D01*
X4065269Y-15656093D01*
X4314996Y-15734501D01*
X5635318Y-14414179D01*
X5994528Y-14414179D01*
X6964396Y-15384047D01*
X7340290Y-15008152D01*
X25693349Y-15008152D01*
X25856024Y-15571974D01*
X25909269Y-15656093D01*
X26158996Y-15734501D01*
X27479318Y-14414179D01*
X27838528Y-14414179D01*
X28808396Y-15384047D01*
X29275369Y-14917073D01*
X29559023Y-14403362D01*
X29624497Y-13820206D01*
X29461822Y-13256384D01*
X29408577Y-13172265D01*
X29158850Y-13093857D01*
X27838528Y-14414179D01*
X27479318Y-14414179D01*
X26509450Y-13444311D01*
X26042477Y-13911285D01*
X25758823Y-14424996D01*
X25693349Y-15008152D01*
X7340290Y-15008152D01*
X7431369Y-14917073D01*
X7715023Y-14403362D01*
X7780497Y-13820206D01*
X7620224Y-13264706D01*
X26689055Y-13264706D01*
X27658923Y-14234574D01*
X28979245Y-12914252D01*
X28900837Y-12664525D01*
X28816718Y-12611280D01*
X28252896Y-12448605D01*
X27669740Y-12514079D01*
X27156029Y-12797733D01*
X26689055Y-13264706D01*
X7620224Y-13264706D01*
X7617822Y-13256384D01*
X7564577Y-13172265D01*
X7314850Y-13093857D01*
X5994528Y-14414179D01*
X5635318Y-14414179D01*
X4665450Y-13444311D01*
X4198477Y-13911285D01*
X3914823Y-14424996D01*
X3849349Y-15008152D01*
X-698500Y-15008152D01*
X-698500Y-13264706D01*
X4845055Y-13264706D01*
X5814923Y-14234574D01*
X7135245Y-12914252D01*
X7056837Y-12664525D01*
X6972718Y-12611280D01*
X6408896Y-12448605D01*
X5825740Y-12514079D01*
X5312029Y-12797733D01*
X4845055Y-13264706D01*
X-698500Y-13264706D01*
X-698500Y-11318959D01*
X227339Y-11318959D01*
X341413Y-11892449D01*
X666269Y-12378629D01*
X1152449Y-12703485D01*
X1725939Y-12817559D01*
X2299429Y-12703485D01*
X2785609Y-12378629D01*
X3779374Y-11384865D01*
X3823410Y-11318959D01*
X22071339Y-11318959D01*
X22185413Y-11892449D01*
X22510269Y-12378629D01*
X22996449Y-12703485D01*
X23569939Y-12817559D01*
X24143429Y-12703485D01*
X24629609Y-12378629D01*
X25623374Y-11384865D01*
X25948229Y-10898684D01*
X26062303Y-10325195D01*
X25948229Y-9751705D01*
X25623374Y-9265524D01*
X25137193Y-8940669D01*
X24563703Y-8826595D01*
X23990214Y-8940669D01*
X23504033Y-9265524D01*
X22510269Y-10259289D01*
X22185413Y-10745469D01*
X22071339Y-11318959D01*
X3823410Y-11318959D01*
X4104229Y-10898684D01*
X4218303Y-10325195D01*
X4104229Y-9751705D01*
X3779374Y-9265524D01*
X3293193Y-8940669D01*
X2719703Y-8826595D01*
X2146214Y-8940669D01*
X1660033Y-9265524D01*
X666269Y-10259289D01*
X341413Y-10745469D01*
X227339Y-11318959D01*
X-698500Y-11318959D01*
X-698500Y-6933850D01*
X13474857Y-6933850D01*
X13553265Y-7183577D01*
X13637384Y-7236822D01*
X14201206Y-7399497D01*
X14784362Y-7334023D01*
X15298073Y-7050369D01*
X15414592Y-6933850D01*
X35318857Y-6933850D01*
X35397265Y-7183577D01*
X35481384Y-7236822D01*
X36045206Y-7399497D01*
X36628362Y-7334023D01*
X37142073Y-7050369D01*
X37609047Y-6583396D01*
X36639179Y-5613528D01*
X35318857Y-6933850D01*
X15414592Y-6933850D01*
X15765047Y-6583396D01*
X14795179Y-5613528D01*
X13474857Y-6933850D01*
X-698500Y-6933850D01*
X-698500Y-6027896D01*
X12829605Y-6027896D01*
X12992280Y-6591718D01*
X13045525Y-6675837D01*
X13295252Y-6754245D01*
X14615574Y-5433923D01*
X14974784Y-5433923D01*
X15944652Y-6403791D01*
X16320546Y-6027896D01*
X34673605Y-6027896D01*
X34836280Y-6591718D01*
X34889525Y-6675837D01*
X35139252Y-6754245D01*
X36459574Y-5433923D01*
X36818784Y-5433923D01*
X37788652Y-6403791D01*
X38255625Y-5936817D01*
X38539279Y-5423106D01*
X38604753Y-4839950D01*
X38442078Y-4276128D01*
X38388833Y-4192009D01*
X38139106Y-4113601D01*
X36818784Y-5433923D01*
X36459574Y-5433923D01*
X35489706Y-4464055D01*
X35022733Y-4931029D01*
X34739079Y-5444740D01*
X34673605Y-6027896D01*
X16320546Y-6027896D01*
X16411625Y-5936817D01*
X16695279Y-5423106D01*
X16760753Y-4839950D01*
X16598078Y-4276128D01*
X16544833Y-4192009D01*
X16295106Y-4113601D01*
X14974784Y-5433923D01*
X14615574Y-5433923D01*
X13645706Y-4464055D01*
X13178733Y-4931029D01*
X12895079Y-5444740D01*
X12829605Y-6027896D01*
X-698500Y-6027896D01*
X-698500Y-4284450D01*
X13825311Y-4284450D01*
X14795179Y-5254318D01*
X16115501Y-3933996D01*
X16037093Y-3684269D01*
X15952974Y-3631024D01*
X15389152Y-3468349D01*
X14805996Y-3533823D01*
X14292285Y-3817477D01*
X13825311Y-4284450D01*
X-698500Y-4284450D01*
X-698500Y-3624799D01*
X-414551Y-2197290D01*
X-117845Y-2915372D01*
X510321Y-3544636D01*
X1331481Y-3885611D01*
X2220619Y-3886387D01*
X3042372Y-3546845D01*
X3671636Y-2918679D01*
X3912462Y-2338703D01*
X9207595Y-2338703D01*
X9321669Y-2912193D01*
X9646525Y-3398373D01*
X10132705Y-3723229D01*
X10706195Y-3837303D01*
X11279685Y-3723229D01*
X11765865Y-3398373D01*
X12759630Y-2404609D01*
X12803666Y-2338703D01*
X31051595Y-2338703D01*
X31165669Y-2912193D01*
X31490525Y-3398373D01*
X31976705Y-3723229D01*
X32550195Y-3837303D01*
X33123685Y-3723229D01*
X33609865Y-3398373D01*
X34603630Y-2404609D01*
X34928485Y-1918428D01*
X35042559Y-1344939D01*
X34928485Y-771449D01*
X34603630Y-285268D01*
X34117449Y39587D01*
X33543959Y153661D01*
X32970470Y39587D01*
X32484289Y-285268D01*
X31490525Y-1279033D01*
X31165669Y-1765213D01*
X31051595Y-2338703D01*
X12803666Y-2338703D01*
X13084485Y-1918428D01*
X13198559Y-1344939D01*
X13084485Y-771449D01*
X12759630Y-285268D01*
X12273449Y39587D01*
X11699959Y153661D01*
X11126470Y39587D01*
X10640289Y-285268D01*
X9646525Y-1279033D01*
X9321669Y-1765213D01*
X9207595Y-2338703D01*
X3912462Y-2338703D01*
X4012611Y-2097519D01*
X4013387Y-1208381D01*
X3673845Y-386628D01*
X3045679Y242636D01*
X2325318Y541756D01*
X3751794Y825500D01*
X35364201Y825500D01*
X36791710Y541551D01*
M02*
