M48
;DRILL file {KiCad 4.0.7} date 07/15/18 20:15:07
;FORMAT={-:-/ absolute / metric / decimal}
FMAT,2
METRIC,TZ
T1C0.330
T2C0.700
T3C1.300
T4C3.200
%
G90
G05
M71
T1
X6.858Y-27.686
X33.528Y-26.416
T2
X17.805Y-36.627
X19.805Y-36.627
X21.805Y-36.627
T3
X2.223Y-10.822
X2.223Y-32.666
X5.815Y-14.414
X5.815Y-36.258
X11.203Y-1.842
X11.203Y-23.686
X14.795Y-5.434
X14.795Y-27.278
X24.067Y-10.822
X24.067Y-32.666
X27.659Y-14.414
X27.659Y-36.258
X33.047Y-1.842
X33.047Y-23.686
X36.639Y-5.434
X36.639Y-27.278
T4
X1.778Y-1.651
X1.778Y-37.211
X37.338Y-1.651
X37.338Y-37.211
T0
M30
